SourceSerif-Italic_1.ufo
<glyph name="exclam" format="2">
	<unicode hex="0021"/>
	<advance width="290"/>
	<outline>
		<contour>
			<point x="115" y="197" type="line"/>
			<point x="148" y="197" type="line"/>
			<point x="243" y="512"/>
			<point x="271" y="592"/>
			<point x="271" y="639" type="curve" smooth="yes"/>
			<point x="271" y="669"/>
			<point x="257" y="684"/>
			<point x="227" y="684" type="curve" smooth="yes"/>
			<point x="199" y="684"/>
			<point x="176" y="669"/>
			<point x="164" y="608" type="curve" smooth="yes"/>
			<point x="159" y="580"/>
			<point x="148" y="490"/>
			<point x="134" y="355" type="curve" smooth="yes"/>
		</contour>
		<contour>
			<point x="40" y="46" type="curve" smooth="yes"/>
			<point x="40" y="12"/>
			<point x="65" y="-12"/>
			<point x="96" y="-12" type="curve" smooth="yes"/>
			<point x="133" y="-12"/>
			<point x="166" y="19"/>
			<point x="166" y="56" type="curve" smooth="yes"/>
			<point x="166" y="88"/>
			<point x="144" y="115"/>
			<point x="110" y="115" type="curve" smooth="yes"/>
			<point x="73" y="115"/>
			<point x="40" y="84"/>
		</contour>
	</outline>
</glyph>
<glyph name="numbersign" format="2">
	<unicode hex="0023"/>
	<advance width="554"/>
	<outline>
		<contour>
			<point x="74" y="0" type="line"/>
			<point x="119" y="0" type="line"/>
			<point x="295" y="650" type="line"/>
			<point x="250" y="650" type="line"/>
		</contour>
		<contour>
			<point x="43" y="261" type="line"/>
			<point x="27" y="181" type="line"/>
			<point x="479" y="181" type="line"/>
			<point x="495" y="261" type="line"/>
		</contour>
		<contour>
			<point x="535" y="394" type="line"/>
			<point x="551" y="474" type="line"/>
			<point x="99" y="474" type="line"/>
			<point x="83" y="394" type="line"/>
		</contour>
		<contour>
			<point x="288" y="0" type="line"/>
			<point x="333" y="0" type="line"/>
			<point x="509" y="650" type="line"/>
			<point x="464" y="650" type="line"/>
		</contour>
	</outline>
</glyph>
<glyph name="dollar" format="2">
	<unicode hex="0024"/>
	<advance width="510"/>
	<outline>
		<contour>
			<point x="208" y="-13" type="curve" smooth="yes"/>
			<point x="347" y="-13"/>
			<point x="436" y="71"/>
			<point x="436" y="176" type="curve" smooth="yes"/>
			<point x="436" y="257"/>
			<point x="401" y="294"/>
			<point x="313" y="349" type="curve" smooth="yes"/>
			<point x="273" y="374" type="line" smooth="yes"/>
			<point x="222" y="407"/>
			<point x="183" y="429"/>
			<point x="183" y="501" type="curve" smooth="yes"/>
			<point x="183" y="577"/>
			<point x="240" y="621"/>
			<point x="330" y="621" type="curve" smooth="yes"/>
			<point x="361" y="621"/>
			<point x="404" y="618"/>
			<point x="451" y="592" type="curve"/>
			<point x="410" y="628" type="line"/>
			<point x="410" y="550" type="line" smooth="yes"/>
			<point x="410" y="505"/>
			<point x="433" y="491"/>
			<point x="455" y="491" type="curve" smooth="yes"/>
			<point x="475" y="491"/>
			<point x="493" y="502"/>
			<point x="498" y="531" type="curve"/>
			<point x="493" y="613"/>
			<point x="440" y="660"/>
			<point x="335" y="660" type="curve" smooth="yes"/>
			<point x="192" y="660"/>
			<point x="113" y="573"/>
			<point x="113" y="472" type="curve" smooth="yes"/>
			<point x="113" y="396"/>
			<point x="148" y="350"/>
			<point x="219" y="305" type="curve" smooth="yes"/>
			<point x="260" y="279" type="line" smooth="yes"/>
			<point x="322" y="239"/>
			<point x="366" y="214"/>
			<point x="366" y="148" type="curve" smooth="yes"/>
			<point x="366" y="76"/>
			<point x="311" y="25"/>
			<point x="214" y="25" type="curve" smooth="yes"/>
			<point x="166" y="25"/>
			<point x="132" y="30"/>
			<point x="83" y="57" type="curve"/>
			<point x="130" y="15" type="line"/>
			<point x="124" y="95" type="line" smooth="yes"/>
			<point x="120" y="148"/>
			<point x="102" y="162"/>
			<point x="76" y="162" type="curve" smooth="yes"/>
			<point x="54" y="162"/>
			<point x="42" y="151"/>
			<point x="34" y="128" type="curve"/>
			<point x="41" y="27"/>
			<point x="100" y="-13"/>
		</contour>
		<contour>
			<point x="166" y="-115" type="line"/>
			<point x="204" y="-115" type="line"/>
			<point x="293" y="322" type="line"/>
			<point x="255" y="322" type="line"/>
		</contour>
		<contour>
			<point x="253" y="322" type="line"/>
			<point x="291" y="322" type="line"/>
			<point x="378" y="750" type="line"/>
			<point x="340" y="750" type="line"/>
		</contour>
	</outline>
</glyph>
<glyph name="ampersand" format="2">
	<unicode hex="0026"/>
	<advance width="693"/>
	<outline>
		<contour>
			<point x="302" y="-13" type="curve" smooth="yes"/>
			<point x="439" y="-13"/>
			<point x="530" y="59"/>
			<point x="530" y="166" type="curve" smooth="yes"/>
			<point x="530" y="220"/>
			<point x="504" y="279"/>
			<point x="424" y="287" type="curve"/>
			<point x="423" y="273" type="line"/>
			<point x="561" y="283"/>
			<point x="648" y="331"/>
			<point x="703" y="460" type="curve"/>
			<point x="637" y="489" type="line"/>
			<point x="588" y="363"/>
			<point x="523" y="301"/>
			<point x="380" y="299" type="curve"/>
			<point x="373" y="252" type="line"/>
			<point x="452" y="247"/>
			<point x="485" y="217"/>
			<point x="485" y="162" type="curve" smooth="yes"/>
			<point x="485" y="96"/>
			<point x="415" y="52"/>
			<point x="311" y="52" type="curve" smooth="yes"/>
			<point x="212" y="52"/>
			<point x="121" y="110"/>
			<point x="121" y="218" type="curve" smooth="yes"/>
			<point x="121" y="301"/>
			<point x="165" y="386"/>
			<point x="287" y="402" type="curve"/>
			<point x="262" y="432"/>
			<point x="248" y="465"/>
			<point x="248" y="506" type="curve" smooth="yes"/>
			<point x="248" y="596"/>
			<point x="303" y="650"/>
			<point x="395" y="650" type="curve" smooth="yes"/>
			<point x="421" y="650"/>
			<point x="444" y="646"/>
			<point x="468" y="636" type="curve"/>
			<point x="412" y="668" type="line"/>
			<point x="437" y="613" type="line" smooth="yes"/>
			<point x="451" y="583"/>
			<point x="468" y="570"/>
			<point x="491" y="570" type="curve" smooth="yes"/>
			<point x="515" y="570"/>
			<point x="524" y="583"/>
			<point x="529" y="601" type="curve"/>
			<point x="515" y="659"/>
			<point x="458" y="685"/>
			<point x="396" y="685" type="curve" smooth="yes"/>
			<point x="266" y="685"/>
			<point x="188" y="598"/>
			<point x="188" y="502" type="curve" smooth="yes"/>
			<point x="188" y="423"/>
			<point x="252" y="345"/>
			<point x="331" y="345" type="curve" smooth="yes"/>
			<point x="354" y="345"/>
			<point x="369" y="358"/>
			<point x="369" y="382" type="curve" smooth="yes"/>
			<point x="369" y="413"/>
			<point x="332" y="429"/>
			<point x="274" y="429" type="curve" smooth="yes"/>
			<point x="126" y="429"/>
			<point x="48" y="311"/>
			<point x="48" y="201" type="curve" smooth="yes"/>
			<point x="48" y="64"/>
			<point x="151" y="-13"/>
		</contour>
	</outline>
</glyph>
<glyph name="quotesingle" format="2">
	<unicode hex="0027"/>
	<advance width="257"/>
	<outline>
		<contour>
			<point x="207" y="736" type="curve" smooth="yes"/>
			<point x="178" y="736"/>
			<point x="161" y="723"/>
			<point x="154" y="680" type="curve" smooth="yes"/>
			<point x="147" y="642"/>
			<point x="142" y="537"/>
			<point x="142" y="504" type="curve" smooth="yes"/>
			<point x="141" y="434" type="line"/>
			<point x="174" y="434" type="line"/>
			<point x="206" y="537"/>
			<point x="244" y="651"/>
			<point x="244" y="690" type="curve" smooth="yes"/>
			<point x="244" y="717"/>
			<point x="232" y="736"/>
		</contour>
	</outline>
</glyph>
<glyph name="parenleft" format="2">
	<unicode hex="0028"/>
	<advance width="375"/>
	<outline>
		<contour>
			<point x="216" y="-212" type="curve"/>
			<point x="249" y="-191" type="line"/>
			<point x="175" y="-66"/>
			<point x="141" y="37"/>
			<point x="141" y="172" type="curve" smooth="yes"/>
			<point x="141" y="384"/>
			<point x="231" y="537"/>
			<point x="414" y="683" type="curve"/>
			<point x="391" y="714" type="line"/>
			<point x="173" y="568"/>
			<point x="64" y="382"/>
			<point x="64" y="175" type="curve" smooth="yes"/>
			<point x="64" y="31"/>
			<point x="119" y="-92"/>
		</contour>
	</outline>
</glyph>
<glyph name="asterisk" format="2">
	<unicode hex="002A"/>
	<advance width="480"/>
	<outline>
		<contour>
			<point x="240" y="750"/>
			<point x="231" y="733"/>
			<point x="231" y="717" type="curve" smooth="yes"/>
			<point x="231" y="695"/>
			<point x="248" y="649"/>
			<point x="289" y="532" type="curve"/>
			<point x="307" y="534" type="line"/>
			<point x="304" y="658"/>
			<point x="302" y="701"/>
			<point x="300" y="717" type="curve" smooth="yes"/>
			<point x="296" y="743"/>
			<point x="283" y="750"/>
			<point x="264" y="750" type="curve" smooth="yes"/>
		</contour>
		<contour>
			<point x="98" y="599"/>
			<point x="90" y="581"/>
			<point x="90" y="566" type="curve" smooth="yes"/>
			<point x="90" y="525"/>
			<point x="138" y="528"/>
			<point x="304" y="532" type="curve"/>
			<point x="308" y="552" type="line"/>
			<point x="180" y="588"/>
			<point x="144" y="599"/>
			<point x="121" y="599" type="curve" smooth="yes"/>
		</contour>
		<contour>
			<point x="213" y="439"/>
			<point x="185" y="409"/>
			<point x="185" y="382" type="curve" smooth="yes"/>
			<point x="185" y="359"/>
			<point x="199" y="351"/>
			<point x="214" y="351" type="curve" smooth="yes"/>
			<point x="247" y="351"/>
			<point x="263" y="402"/>
			<point x="309" y="548" type="curve"/>
			<point x="291" y="556" type="line"/>
		</contour>
		<contour>
			<point x="282" y="543" type="line"/>
			<point x="374" y="422"/>
			<point x="399" y="382"/>
			<point x="431" y="387" type="curve" smooth="yes"/>
			<point x="446" y="390"/>
			<point x="460" y="405"/>
			<point x="457" y="423" type="curve" smooth="yes"/>
			<point x="452" y="451"/>
			<point x="412" y="471"/>
			<point x="296" y="557" type="curve"/>
		</contour>
		<contour>
			<point x="484" y="648"/>
			<point x="469" y="657"/>
			<point x="454" y="657" type="curve" smooth="yes"/>
			<point x="427" y="657"/>
			<point x="392" y="627"/>
			<point x="282" y="546" type="curve"/>
			<point x="292" y="529" type="line"/>
			<point x="439" y="583"/>
			<point x="484" y="589"/>
			<point x="484" y="624" type="curve" smooth="yes"/>
		</contour>
	</outline>
</glyph>
<glyph name="plus" format="2">
	<unicode hex="002B"/>
	<advance width="530"/>
	<outline>
		<contour>
			<point x="235" y="92" type="line"/>
			<point x="291" y="92" type="line"/>
			<point x="291" y="563" type="line"/>
			<point x="235" y="563" type="line"/>
		</contour>
		<contour>
			<point x="485" y="304" type="line"/>
			<point x="485" y="356" type="line"/>
			<point x="41" y="356" type="line"/>
			<point x="41" y="304" type="line"/>
		</contour>
	</outline>
</glyph>
<glyph name="comma" format="2">
	<unicode hex="002C"/>
	<advance width="300"/>
	<outline>
		<contour>
			<point x="169" y="61" type="curve" smooth="yes"/>
			<point x="169" y="72"/>
			<point x="168" y="79"/>
			<point x="166" y="89" type="curve"/>
			<point x="150" y="110"/>
			<point x="134" y="117"/>
			<point x="108" y="117" type="curve" smooth="yes"/>
			<point x="73" y="117"/>
			<point x="45" y="88"/>
			<point x="45" y="48" type="curve" smooth="yes"/>
			<point x="45" y="18"/>
			<point x="55" y="1"/>
			<point x="85" y="-15" type="curve" smooth="yes"/>
			<point x="129" y="-37" type="line"/>
			<point x="113" y="0" type="line"/>
			<point x="90" y="-69"/>
			<point x="56" y="-106"/>
			<point x="-20" y="-133" type="curve"/>
			<point x="-7" y="-170" type="line"/>
			<point x="98" y="-141"/>
			<point x="169" y="-51"/>
		</contour>
	</outline>
</glyph>
<glyph name="hyphen" format="2">
	<unicode hex="002D"/>
	<unicode hex="00AD"/>
	<unicode hex="2010"/>
	<advance width="310"/>
	<outline>
		<contour>
			<point x="36" y="215" type="line"/>
			<point x="266" y="215" type="line"/>
			<point x="266" y="279" type="line"/>
			<point x="36" y="279" type="line"/>
		</contour>
	</outline>
</glyph>
<glyph name="period" format="2">
	<unicode hex="002E"/>
	<advance width="300"/>
	<outline>
		<contour>
			<point x="104" y="-10" type="curve" smooth="yes"/>
			<point x="142" y="-10"/>
			<point x="173" y="19"/>
			<point x="173" y="58" type="curve" smooth="yes"/>
			<point x="173" y="89"/>
			<point x="150" y="115"/>
			<point x="116" y="115" type="curve" smooth="yes"/>
			<point x="78" y="115"/>
			<point x="45" y="86"/>
			<point x="45" y="47" type="curve" smooth="yes"/>
			<point x="45" y="14"/>
			<point x="70" y="-10"/>
		</contour>
	</outline>
</glyph>
<glyph name="slash" format="2">
	<unicode hex="002F"/>
	<advance width="327"/>
	<outline>
		<contour>
			<point x="-107" y="-160" type="line"/>
			<point x="-45" y="-160" type="line"/>
			<point x="400" y="710" type="line"/>
			<point x="338" y="710" type="line"/>
		</contour>
	</outline>
</glyph>
<glyph name="one" format="2">
	<unicode hex="0031"/>
	<advance width="510"/>
	<outline>
		<contour>
			<point x="173" y="0" type="line"/>
			<point x="246" y="0" type="line"/>
			<point x="259" y="70"/>
			<point x="273" y="141"/>
			<point x="287" y="211" type="curve" smooth="yes"/>
			<point x="346" y="503" type="line"/>
			<point x="379" y="646" type="line"/>
			<point x="368" y="656" type="line"/>
			<point x="158" y="603" type="line"/>
			<point x="150" y="563" type="line"/>
			<point x="319" y="577" type="line"/>
			<point x="295" y="603" type="line"/>
		</contour>
		<contour>
			<point x="35" y="0" type="line"/>
			<point x="396" y="0" type="line"/>
			<point x="404" y="35" type="line"/>
			<point x="251" y="50" type="line"/>
			<point x="194" y="50" type="line"/>
			<point x="42" y="35" type="line"/>
		</contour>
	</outline>
</glyph>
<glyph name="less" format="2">
	<unicode hex="003C"/>
	<advance width="530"/>
	<outline>
		<contour>
			<point x="68" y="308" type="line"/>
			<point x="430" y="97" type="line"/>
			<point x="458" y="146" type="line"/>
			<point x="123" y="335" type="line"/>
			<point x="123" y="325" type="line"/>
			<point x="458" y="514" type="line"/>
			<point x="430" y="563" type="line"/>
			<point x="68" y="352" type="line"/>
		</contour>
	</outline>
</glyph>
<glyph name="question" format="2">
	<unicode hex="003F"/>
	<advance width="444"/>
	<outline>
		<contour>
			<point x="133" y="184" type="curve"/>
			<point x="168" y="180" type="line"/>
			<point x="179" y="255"/>
			<point x="188" y="281"/>
			<point x="210" y="304" type="curve" smooth="yes"/>
			<point x="222" y="316"/>
			<point x="242" y="332"/>
			<point x="329" y="386" type="curve" smooth="yes"/>
			<point x="438" y="454"/>
			<point x="475" y="492"/>
			<point x="475" y="571" type="curve" smooth="yes"/>
			<point x="475" y="645"/>
			<point x="410" y="685"/>
			<point x="318" y="685" type="curve" smooth="yes"/>
			<point x="214" y="685"/>
			<point x="158" y="628"/>
			<point x="140" y="574" type="curve"/>
			<point x="139" y="550"/>
			<point x="156" y="532"/>
			<point x="178" y="532" type="curve" smooth="yes"/>
			<point x="204" y="532"/>
			<point x="215" y="543"/>
			<point x="229" y="569" type="curve" smooth="yes"/>
			<point x="275" y="659" type="line"/>
			<point x="213" y="629" type="line"/>
			<point x="235" y="636"/>
			<point x="263" y="645"/>
			<point x="310" y="645" type="curve" smooth="yes"/>
			<point x="368" y="645"/>
			<point x="402" y="618"/>
			<point x="402" y="570" type="curve" smooth="yes"/>
			<point x="402" y="528"/>
			<point x="377" y="486"/>
			<point x="301" y="440" type="curve" smooth="yes"/>
			<point x="207" y="383"/>
			<point x="192" y="365"/>
			<point x="173" y="346" type="curve" smooth="yes"/>
			<point x="147" y="318"/>
			<point x="138" y="279"/>
		</contour>
		<contour>
			<point x="70" y="45" type="curve" smooth="yes"/>
			<point x="70" y="11"/>
			<point x="95" y="-13"/>
			<point x="130" y="-13" type="curve" smooth="yes"/>
			<point x="163" y="-13"/>
			<point x="196" y="18"/>
			<point x="196" y="55" type="curve" smooth="yes"/>
			<point x="196" y="87"/>
			<point x="174" y="114"/>
			<point x="138" y="114" type="curve" smooth="yes"/>
			<point x="103" y="114"/>
			<point x="70" y="83"/>
		</contour>
	</outline>
</glyph>
<glyph name="at" format="2">
	<unicode hex="0040"/>
	<advance width="872"/>
	<outline>
		<contour>
			<point x="333" y="43" type="curve" smooth="yes"/>
			<point x="396" y="43"/>
			<point x="475" y="114"/>
			<point x="538" y="207" type="curve"/>
			<point x="548" y="207" type="line"/>
			<point x="530" y="226" type="line"/>
			<point x="451" y="133"/>
			<point x="407" y="103"/>
			<point x="369" y="103" type="curve" smooth="yes"/>
			<point x="337" y="103"/>
			<point x="316" y="129"/>
			<point x="316" y="184" type="curve" smooth="yes"/>
			<point x="316" y="327"/>
			<point x="424" y="429"/>
			<point x="491" y="429" type="curve" smooth="yes"/>
			<point x="522" y="429"/>
			<point x="553" y="411"/>
			<point x="575" y="392" type="curve"/>
			<point x="607" y="414" type="line"/>
			<point x="584" y="455"/>
			<point x="561" y="488"/>
			<point x="522" y="488" type="curve" smooth="yes"/>
			<point x="409" y="488"/>
			<point x="248" y="302"/>
			<point x="248" y="147" type="curve" smooth="yes"/>
			<point x="248" y="74"/>
			<point x="290" y="43"/>
		</contour>
		<contour>
			<point x="562" y="43" type="curve" smooth="yes"/>
			<point x="654" y="43"/>
			<point x="827" y="140"/>
			<point x="827" y="353" type="curve" smooth="yes"/>
			<point x="827" y="520"/>
			<point x="736" y="660"/>
			<point x="524" y="660" type="curve" smooth="yes"/>
			<point x="268" y="660"/>
			<point x="48" y="454"/>
			<point x="48" y="160" type="curve" smooth="yes"/>
			<point x="48" y="-33"/>
			<point x="180" y="-155"/>
			<point x="375" y="-155" type="curve" smooth="yes"/>
			<point x="433" y="-155"/>
			<point x="506" y="-143"/>
			<point x="566" y="-113" type="curve"/>
			<point x="555" y="-82" type="line"/>
			<point x="509" y="-100"/>
			<point x="459" y="-110"/>
			<point x="398" y="-110" type="curve" smooth="yes"/>
			<point x="215" y="-110"/>
			<point x="108" y="-9"/>
			<point x="108" y="174" type="curve" smooth="yes"/>
			<point x="108" y="426"/>
			<point x="297" y="620"/>
			<point x="519" y="620" type="curve" smooth="yes"/>
			<point x="675" y="620"/>
			<point x="773" y="513"/>
			<point x="773" y="355" type="curve" smooth="yes"/>
			<point x="773" y="166"/>
			<point x="647" y="94"/>
			<point x="588" y="94" type="curve" smooth="yes"/>
			<point x="554" y="94"/>
			<point x="544" y="109"/>
			<point x="556" y="162" type="curve" smooth="yes"/>
			<point x="629" y="489" type="line"/>
			<point x="613" y="497" type="line"/>
			<point x="555" y="448" type="line"/>
			<point x="494" y="168" type="line" smooth="yes"/>
			<point x="478" y="96"/>
			<point x="489" y="43"/>
		</contour>
	</outline>
</glyph>
<glyph name="A" format="2">
	<unicode hex="0041"/>
	<advance width="676"/>
	<outline>
		<contour>
			<point x="-47" y="0" type="line"/>
			<point x="177" y="0" type="line"/>
			<point x="185" y="40" type="line"/>
			<point x="86" y="55" type="line"/>
			<point x="68" y="55" type="line"/>
			<point x="-39" y="40" type="line"/>
		</contour>
		<contour>
			<point x="15" y="0" type="line"/>
			<point x="70" y="0" type="line"/>
			<point x="379" y="583" type="line"/>
			<point x="385" y="595" type="line"/>
			<point x="370" y="595" type="line"/>
			<point x="450" y="0" type="line"/>
			<point x="540" y="0" type="line"/>
			<point x="445" y="670" type="line"/>
			<point x="387" y="670" type="line"/>
		</contour>
		<contour>
			<point x="177" y="243" type="line"/>
			<point x="463" y="243" type="line"/>
			<point x="475" y="289" type="line"/>
			<point x="191" y="289" type="line"/>
		</contour>
		<contour>
			<point x="348" y="0" type="line"/>
			<point x="613" y="0" type="line"/>
			<point x="621" y="40" type="line"/>
			<point x="502" y="55" type="line"/>
			<point x="484" y="55" type="line"/>
			<point x="356" y="40" type="line"/>
		</contour>
	</outline>
	<anchor name="aboveUC" x="415" y="690"/>
	<anchor name="belowLC" x="265" y="-20"/>
	<anchor name="ogonek" x="518" y="0"/>
</glyph>
<glyph name="B" format="2">
	<unicode hex="0042"/>
	<advance width="624"/>
	<outline>
		<contour>
			<point x="-2" y="0" type="line"/>
			<point x="124" y="0" type="line"/>
			<point x="134" y="55" type="line"/>
			<point x="128" y="55" type="line"/>
			<point x="6" y="40" type="line"/>
		</contour>
		<contour>
			<point x="83" y="0" type="line"/>
			<point x="171" y="0" type="line"/>
			<point x="187" y="103"/>
			<point x="205" y="207"/>
			<point x="224" y="310" type="curve" smooth="yes"/>
			<point x="292" y="670" type="line"/>
			<point x="204" y="670" type="line"/>
			<point x="188" y="567"/>
			<point x="170" y="463"/>
			<point x="151" y="360" type="curve" smooth="yes"/>
		</contour>
		<contour>
			<point x="104" y="630" type="line"/>
			<point x="225" y="615" type="line"/>
			<point x="237" y="615" type="line"/>
			<point x="248" y="670" type="line"/>
			<point x="112" y="670" type="line"/>
		</contour>
		<contour>
			<point x="124" y="0" type="line"/>
			<point x="275" y="0" type="line" smooth="yes"/>
			<point x="436" y="0"/>
			<point x="551" y="71"/>
			<point x="551" y="186" type="curve" smooth="yes"/>
			<point x="551" y="280"/>
			<point x="472" y="360"/>
			<point x="330" y="360" type="curve"/>
			<point x="311" y="341" type="line"/>
			<point x="445" y="341"/>
			<point x="560" y="415"/>
			<point x="560" y="524" type="curve" smooth="yes"/>
			<point x="560" y="606"/>
			<point x="499" y="670"/>
			<point x="367" y="670" type="curve" smooth="yes"/>
			<point x="248" y="670" type="line"/>
			<point x="240" y="624" type="line"/>
			<point x="354" y="624" type="line" smooth="yes"/>
			<point x="436" y="624"/>
			<point x="475" y="576"/>
			<point x="475" y="510" type="curve" smooth="yes"/>
			<point x="475" y="433"/>
			<point x="420" y="373"/>
			<point x="292" y="373" type="curve" smooth="yes"/>
			<point x="192" y="373" type="line"/>
			<point x="184" y="327" type="line"/>
			<point x="302" y="327" type="line" smooth="yes"/>
			<point x="393" y="327"/>
			<point x="460" y="281"/>
			<point x="460" y="199" type="curve" smooth="yes"/>
			<point x="460" y="114"/>
			<point x="407" y="46"/>
			<point x="265" y="46" type="curve" smooth="yes"/>
			<point x="133" y="46" type="line"/>
		</contour>
	</outline>
	<anchor name="aboveUC" x="354" y="690"/>
	<anchor name="belowLC" x="267" y="-20"/>
</glyph>
<glyph name="C" format="2">
	<unicode hex="0043"/>
	<advance width="593"/>
	<outline>
		<contour>
			<point x="312" y="-15" type="curve" smooth="yes"/>
			<point x="397" y="-15"/>
			<point x="453" y="7"/>
			<point x="506" y="30" type="curve"/>
			<point x="534" y="175" type="line"/>
			<point x="475" y="175" type="line"/>
			<point x="427" y="30" type="line"/>
			<point x="483" y="71" type="line"/>
			<point x="441" y="50"/>
			<point x="394" y="35"/>
			<point x="345" y="35" type="curve" smooth="yes"/>
			<point x="229" y="35"/>
			<point x="130" y="116"/>
			<point x="130" y="285" type="curve" smooth="yes"/>
			<point x="130" y="475"/>
			<point x="251" y="635"/>
			<point x="412" y="635" type="curve" smooth="yes"/>
			<point x="461" y="635"/>
			<point x="517" y="620"/>
			<point x="552" y="592" type="curve"/>
			<point x="511" y="632" type="line"/>
			<point x="511" y="493" type="line"/>
			<point x="567" y="493" type="line"/>
			<point x="590" y="632" type="line"/>
			<point x="528" y="672"/>
			<point x="475" y="685"/>
			<point x="422" y="685" type="curve" smooth="yes"/>
			<point x="214" y="685"/>
			<point x="40" y="502"/>
			<point x="40" y="281" type="curve" smooth="yes"/>
			<point x="40" y="104"/>
			<point x="145" y="-15"/>
		</contour>
	</outline>
	<anchor name="aboveUC" x="421" y="690"/>
	<anchor name="belowLC" x="301" y="-20"/>
	<anchor name="baseLC" x="324" y="0"/>
</glyph>
<glyph name="D" format="2">
	<unicode hex="0044"/>
	<advance width="701"/>
	<outline>
		<contour>
			<point x="-2" y="0" type="line"/>
			<point x="124" y="0" type="line"/>
			<point x="134" y="55" type="line"/>
			<point x="128" y="55" type="line"/>
			<point x="6" y="40" type="line"/>
		</contour>
		<contour>
			<point x="83" y="0" type="line"/>
			<point x="171" y="0" type="line"/>
			<point x="187" y="103"/>
			<point x="205" y="207"/>
			<point x="224" y="310" type="curve" smooth="yes"/>
			<point x="292" y="670" type="line"/>
			<point x="204" y="670" type="line"/>
			<point x="188" y="567"/>
			<point x="170" y="463"/>
			<point x="151" y="360" type="curve" smooth="yes"/>
		</contour>
		<contour>
			<point x="104" y="630" type="line"/>
			<point x="225" y="615" type="line"/>
			<point x="240" y="615" type="line"/>
			<point x="251" y="670" type="line"/>
			<point x="112" y="670" type="line"/>
		</contour>
		<contour>
			<point x="124" y="0" type="line"/>
			<point x="272" y="0" type="line" smooth="yes"/>
			<point x="475" y="0"/>
			<point x="666" y="129"/>
			<point x="667" y="394" type="curve" smooth="yes"/>
			<point x="667" y="566"/>
			<point x="557" y="670"/>
			<point x="386" y="670" type="curve" smooth="yes"/>
			<point x="251" y="670" type="line"/>
			<point x="242" y="624" type="line"/>
			<point x="346" y="624" type="line" smooth="yes"/>
			<point x="488" y="624"/>
			<point x="575" y="544"/>
			<point x="574" y="394" type="curve" smooth="yes"/>
			<point x="573" y="229"/>
			<point x="479" y="46"/>
			<point x="287" y="46" type="curve" smooth="yes"/>
			<point x="133" y="46" type="line"/>
		</contour>
	</outline>
	<anchor name="aboveUC" x="387" y="690"/>
	<anchor name="belowLC" x="279" y="-20"/>
</glyph>
<glyph name="E" format="2">
	<unicode hex="0045"/>
	<advance width="587"/>
	<outline>
		<contour>
			<point x="-2" y="0" type="line"/>
			<point x="124" y="0" type="line"/>
			<point x="134" y="55" type="line"/>
			<point x="128" y="55" type="line"/>
			<point x="6" y="40" type="line"/>
		</contour>
		<contour>
			<point x="83" y="0" type="line"/>
			<point x="171" y="0" type="line"/>
			<point x="187" y="103"/>
			<point x="205" y="207"/>
			<point x="224" y="310" type="curve" smooth="yes"/>
			<point x="292" y="670" type="line"/>
			<point x="204" y="670" type="line"/>
			<point x="188" y="567"/>
			<point x="170" y="463"/>
			<point x="151" y="360" type="curve" smooth="yes"/>
		</contour>
		<contour>
			<point x="104" y="630" type="line"/>
			<point x="225" y="615" type="line"/>
			<point x="237" y="615" type="line"/>
			<point x="248" y="670" type="line"/>
			<point x="112" y="670" type="line"/>
		</contour>
		<contour>
			<point x="124" y="0" type="line"/>
			<point x="497" y="0" type="line"/>
			<point x="536" y="178" type="line"/>
			<point x="486" y="178" type="line"/>
			<point x="423" y="0" type="line"/>
			<point x="478" y="50" type="line"/>
			<point x="134" y="50" type="line"/>
		</contour>
		<contour>
			<point x="186" y="319" type="line"/>
			<point x="411" y="319" type="line"/>
			<point x="419" y="365" type="line"/>
			<point x="195" y="365" type="line"/>
		</contour>
		<contour>
			<point x="238" y="620" type="line"/>
			<point x="532" y="620" type="line"/>
			<point x="500" y="670" type="line"/>
			<point x="500" y="492" type="line"/>
			<point x="550" y="492" type="line"/>
			<point x="574" y="670" type="line"/>
			<point x="248" y="670" type="line"/>
		</contour>
		<contour>
			<point x="379" y="224" type="line"/>
			<point x="421" y="224" type="line"/>
			<point x="466" y="461" type="line"/>
			<point x="424" y="461" type="line"/>
			<point x="386" y="355" type="line"/>
			<point x="383" y="335" type="line"/>
		</contour>
	</outline>
	<anchor name="aboveUC" x="379" y="690"/>
	<anchor name="belowLC" x="290" y="-20"/>
	<anchor name="ogonek" x="407" y="0"/>
</glyph>
<glyph name="F" format="2">
	<unicode hex="0046"/>
	<advance width="550"/>
	<outline>
		<contour>
			<point x="-2" y="0" type="line"/>
			<point x="267" y="0" type="line"/>
			<point x="275" y="40" type="line"/>
			<point x="151" y="55" type="line"/>
			<point x="133" y="55" type="line"/>
			<point x="6" y="40" type="line"/>
		</contour>
		<contour>
			<point x="83" y="0" type="line"/>
			<point x="171" y="0" type="line"/>
			<point x="187" y="103"/>
			<point x="205" y="207"/>
			<point x="224" y="310" type="curve" smooth="yes"/>
			<point x="292" y="670" type="line"/>
			<point x="204" y="670" type="line"/>
			<point x="188" y="567"/>
			<point x="170" y="463"/>
			<point x="151" y="360" type="curve" smooth="yes"/>
		</contour>
		<contour>
			<point x="104" y="630" type="line"/>
			<point x="225" y="615" type="line"/>
			<point x="237" y="615" type="line"/>
			<point x="248" y="670" type="line"/>
			<point x="112" y="670" type="line"/>
		</contour>
		<contour>
			<point x="186" y="319" type="line"/>
			<point x="411" y="319" type="line"/>
			<point x="419" y="365" type="line"/>
			<point x="195" y="365" type="line"/>
		</contour>
		<contour>
			<point x="238" y="620" type="line"/>
			<point x="544" y="620" type="line"/>
			<point x="508" y="670" type="line"/>
			<point x="508" y="492" type="line"/>
			<point x="558" y="492" type="line"/>
			<point x="587" y="670" type="line"/>
			<point x="248" y="670" type="line"/>
		</contour>
		<contour>
			<point x="379" y="214" type="line"/>
			<point x="421" y="214" type="line"/>
			<point x="465" y="461" type="line"/>
			<point x="423" y="461" type="line"/>
			<point x="386" y="355" type="line"/>
			<point x="383" y="335" type="line"/>
		</contour>
	</outline>
	<anchor name="aboveUC" x="375" y="690"/>
	<anchor name="belowLC" x="129" y="-20"/>
</glyph>
<glyph name="G" format="2">
	<unicode hex="0047"/>
	<advance width="655"/>
	<outline>
		<contour>
			<point x="40" y="277" type="curve" smooth="yes"/>
			<point x="40" y="104"/>
			<point x="149" y="-15"/>
			<point x="329" y="-15" type="curve" smooth="yes"/>
			<point x="404" y="-15"/>
			<point x="465" y="2"/>
			<point x="527" y="30" type="curve"/>
			<point x="580" y="318" type="line"/>
			<point x="492" y="318" type="line"/>
			<point x="480" y="243"/>
			<point x="468" y="166"/>
			<point x="454" y="90" type="curve" smooth="yes"/>
			<point x="443" y="31" type="line"/>
			<point x="496" y="65" type="line"/>
			<point x="450" y="46"/>
			<point x="404" y="35"/>
			<point x="355" y="35" type="curve" smooth="yes"/>
			<point x="240" y="35"/>
			<point x="130" y="121"/>
			<point x="130" y="283" type="curve" smooth="yes"/>
			<point x="130" y="475"/>
			<point x="246" y="635"/>
			<point x="422" y="635" type="curve" smooth="yes"/>
			<point x="475" y="635"/>
			<point x="535" y="621"/>
			<point x="572" y="592" type="curve"/>
			<point x="531" y="632" type="line"/>
			<point x="531" y="493" type="line"/>
			<point x="587" y="493" type="line"/>
			<point x="610" y="632" type="line"/>
			<point x="546" y="674"/>
			<point x="496" y="685"/>
			<point x="422" y="685" type="curve" smooth="yes"/>
			<point x="218" y="685"/>
			<point x="40" y="513"/>
		</contour>
		<contour>
			<point x="384" y="278" type="line"/>
			<point x="505" y="263" type="line"/>
			<point x="524" y="263" type="line"/>
			<point x="643" y="278" type="line"/>
			<point x="650" y="318" type="line"/>
			<point x="391" y="318" type="line"/>
		</contour>
	</outline>
	<anchor name="aboveUC" x="415" y="690"/>
	<anchor name="belowLC" x="335" y="-20"/>
</glyph>
<glyph name="H" format="2">
	<unicode hex="0048"/>
	<advance width="764"/>
	<outline>
		<contour>
			<point x="-1" y="0" type="line"/>
			<point x="263" y="0" type="line"/>
			<point x="271" y="40" type="line"/>
			<point x="152" y="55" type="line"/>
			<point x="134" y="55" type="line"/>
			<point x="7" y="40" type="line"/>
		</contour>
		<contour>
			<point x="83" y="0" type="line"/>
			<point x="171" y="0" type="line"/>
			<point x="187" y="103"/>
			<point x="205" y="207"/>
			<point x="224" y="310" type="curve" smooth="yes"/>
			<point x="292" y="670" type="line"/>
			<point x="205" y="670" type="line"/>
			<point x="189" y="567"/>
			<point x="170" y="463"/>
			<point x="151" y="360" type="curve" smooth="yes"/>
		</contour>
		<contour>
			<point x="104" y="630" type="line"/>
			<point x="225" y="615" type="line"/>
			<point x="244" y="615" type="line"/>
			<point x="368" y="630" type="line"/>
			<point x="376" y="670" type="line"/>
			<point x="112" y="670" type="line"/>
		</contour>
		<contour>
			<point x="189" y="320" type="line"/>
			<point x="594" y="320" type="line"/>
			<point x="594" y="366" type="line"/>
			<point x="189" y="366" type="line"/>
		</contour>
		<contour>
			<point x="405" y="0" type="line"/>
			<point x="669" y="0" type="line"/>
			<point x="677" y="40" type="line"/>
			<point x="558" y="55" type="line"/>
			<point x="540" y="55" type="line"/>
			<point x="413" y="40" type="line"/>
		</contour>
		<contour>
			<point x="489" y="0" type="line"/>
			<point x="577" y="0" type="line"/>
			<point x="593" y="103"/>
			<point x="611" y="207"/>
			<point x="630" y="310" type="curve" smooth="yes"/>
			<point x="698" y="670" type="line"/>
			<point x="610" y="670" type="line"/>
			<point x="594" y="567"/>
			<point x="576" y="463"/>
			<point x="557" y="360" type="curve" smooth="yes"/>
		</contour>
		<contour>
			<point x="510" y="630" type="line"/>
			<point x="631" y="615" type="line"/>
			<point x="650" y="615" type="line"/>
			<point x="774" y="630" type="line"/>
			<point x="782" y="670" type="line"/>
			<point x="518" y="670" type="line"/>
		</contour>
	</outline>
	<anchor name="aboveUC" x="446" y="690"/>
	<anchor name="belowLC" x="332" y="-20"/>
	<note>
		skew 10 scale 120
	</note>
</glyph>
<glyph name="I" format="2">
	<unicode hex="0049"/>
	<advance width="357"/>
	<outline>
		<contour>
			<point x="16" y="0" type="line"/>
			<point x="280" y="0" type="line"/>
			<point x="288" y="40" type="line"/>
			<point x="169" y="55" type="line"/>
			<point x="151" y="55" type="line"/>
			<point x="24" y="40" type="line"/>
		</contour>
		<contour>
			<point x="101" y="0" type="line"/>
			<point x="189" y="0" type="line"/>
			<point x="205" y="103"/>
			<point x="223" y="207"/>
			<point x="242" y="310" type="curve" smooth="yes"/>
			<point x="310" y="670" type="line"/>
			<point x="222" y="670" type="line"/>
			<point x="206" y="567"/>
			<point x="188" y="463"/>
			<point x="169" y="360" type="curve" smooth="yes"/>
		</contour>
		<contour>
			<point x="122" y="630" type="line"/>
			<point x="243" y="615" type="line"/>
			<point x="262" y="615" type="line"/>
			<point x="386" y="630" type="line"/>
			<point x="394" y="670" type="line"/>
			<point x="130" y="670" type="line"/>
		</contour>
	</outline>
	<anchor name="aboveUC" x="266" y="691"/>
	<anchor name="belowLC" x="141" y="-22"/>
	<anchor name="ogonek" x="177" y="0"/>
</glyph>
<glyph name="J" format="2">
	<unicode hex="004A"/>
	<advance width="404"/>
	<outline>
		<contour>
			<point x="-46" y="7" type="curve"/>
			<point x="-40" y="-28"/>
			<point x="0" y="-44"/>
			<point x="46" y="-44" type="curve" smooth="yes"/>
			<point x="114" y="-44"/>
			<point x="199" y="5"/>
			<point x="240" y="100" type="curve" smooth="yes"/>
			<point x="258" y="139"/>
			<point x="271" y="188"/>
			<point x="283" y="263" type="curve" smooth="yes"/>
			<point x="351" y="670" type="line"/>
			<point x="261" y="670" type="line"/>
			<point x="247" y="566"/>
			<point x="231" y="462"/>
			<point x="215" y="360" type="curve" smooth="yes"/>
			<point x="195" y="235"/>
			<point x="190" y="188"/>
			<point x="180" y="140" type="curve" smooth="yes"/>
			<point x="166" y="73"/>
			<point x="134" y="27"/>
			<point x="89" y="0" type="curve"/>
			<point x="89" y="-12" type="line"/>
			<point x="120" y="-12" type="line"/>
			<point x="120" y="-1" type="line"/>
			<point x="66" y="40"/>
			<point x="45" y="53"/>
			<point x="22" y="53" type="curve" smooth="yes"/>
			<point x="-11" y="53"/>
			<point x="-38" y="37"/>
		</contour>
		<contour>
			<point x="158" y="629" type="line"/>
			<point x="284" y="614" type="line"/>
			<point x="304" y="614" type="line"/>
			<point x="433" y="629" type="line"/>
			<point x="441" y="670" type="line"/>
			<point x="166" y="670" type="line"/>
		</contour>
	</outline>
	<anchor name="aboveUC" x="300" y="690"/>
	<anchor name="belowLC" x="102" y="-64"/>
</glyph>
<glyph name="K" format="2">
	<unicode hex="004B"/>
	<advance width="663"/>
	<outline>
		<contour>
			<point x="-2" y="0" type="line"/>
			<point x="262" y="0" type="line"/>
			<point x="270" y="40" type="line"/>
			<point x="151" y="55" type="line"/>
			<point x="133" y="55" type="line"/>
			<point x="6" y="40" type="line"/>
		</contour>
		<contour>
			<point x="83" y="0" type="line"/>
			<point x="171" y="0" type="line"/>
			<point x="187" y="103"/>
			<point x="205" y="207"/>
			<point x="224" y="310" type="curve" smooth="yes"/>
			<point x="292" y="670" type="line"/>
			<point x="204" y="670" type="line"/>
			<point x="188" y="567"/>
			<point x="170" y="463"/>
			<point x="151" y="360" type="curve" smooth="yes"/>
		</contour>
		<contour>
			<point x="104" y="630" type="line"/>
			<point x="225" y="615" type="line"/>
			<point x="244" y="615" type="line"/>
			<point x="368" y="630" type="line"/>
			<point x="376" y="670" type="line"/>
			<point x="112" y="670" type="line"/>
		</contour>
		<contour>
			<point x="161" y="226" type="line"/>
			<point x="646" y="670" type="line"/>
			<point x="586" y="670" type="line"/>
			<point x="169" y="285" type="line"/>
			<point x="159" y="285" type="line"/>
		</contour>
		<contour>
			<point x="487" y="0" type="line"/>
			<point x="578" y="0" type="line"/>
			<point x="351" y="423" type="line"/>
			<point x="293" y="365" type="line"/>
		</contour>
		<contour>
			<point x="378" y="0" type="line"/>
			<point x="628" y="0" type="line"/>
			<point x="633" y="40" type="line"/>
			<point x="521" y="55" type="line"/>
			<point x="502" y="55" type="line"/>
			<point x="383" y="40" type="line"/>
		</contour>
		<contour>
			<point x="466" y="630" type="line"/>
			<point x="554" y="615" type="line"/>
			<point x="573" y="615" type="line"/>
			<point x="686" y="630" type="line"/>
			<point x="694" y="670" type="line"/>
			<point x="474" y="670" type="line"/>
		</contour>
	</outline>
	<anchor name="aboveUC" x="415" y="690"/>
	<anchor name="belowLC" x="314" y="-20"/>
</glyph>
<glyph name="L" format="2">
	<unicode hex="004C"/>
	<advance width="568"/>
	<outline>
		<contour>
			<point x="-2" y="0" type="line"/>
			<point x="124" y="0" type="line"/>
			<point x="134" y="55" type="line"/>
			<point x="126" y="55" type="line"/>
			<point x="6" y="40" type="line"/>
		</contour>
		<contour>
			<point x="83" y="0" type="line"/>
			<point x="171" y="0" type="line"/>
			<point x="187" y="103"/>
			<point x="205" y="207"/>
			<point x="224" y="310" type="curve" smooth="yes"/>
			<point x="292" y="670" type="line"/>
			<point x="204" y="670" type="line"/>
			<point x="188" y="567"/>
			<point x="170" y="463"/>
			<point x="151" y="360" type="curve" smooth="yes"/>
		</contour>
		<contour>
			<point x="104" y="630" type="line"/>
			<point x="225" y="615" type="line"/>
			<point x="254" y="615" type="line"/>
			<point x="378" y="630" type="line"/>
			<point x="386" y="670" type="line"/>
			<point x="112" y="670" type="line"/>
		</contour>
		<contour>
			<point x="124" y="0" type="line"/>
			<point x="503" y="0" type="line"/>
			<point x="539" y="188" type="line"/>
			<point x="484" y="188" type="line"/>
			<point x="418" y="0" type="line"/>
			<point x="480" y="50" type="line"/>
			<point x="133" y="50" type="line"/>
		</contour>
	</outline>
	<anchor name="aboveUC" x="241" y="690"/>
	<anchor name="belowLC" x="278" y="-20"/>
</glyph>
<glyph name="M" format="2">
	<unicode hex="004D"/>
	<advance width="928"/>
	<outline>
		<contour>
			<point x="-25" y="0" type="line"/>
			<point x="205" y="0" type="line"/>
			<point x="213" y="40" type="line"/>
			<point x="105" y="55" type="line"/>
			<point x="85" y="55" type="line"/>
			<point x="-17" y="40" type="line"/>
		</contour>
		<contour>
			<point x="62" y="0" type="line"/>
			<point x="109" y="0" type="line"/>
			<point x="261" y="644" type="line"/>
			<point x="214" y="644" type="line"/>
		</contour>
		<contour>
			<point x="374" y="1" type="line"/>
			<point x="403" y="1" type="line"/>
			<point x="762" y="615" type="line"/>
			<point x="785" y="615" type="line"/>
			<point x="785" y="670" type="line"/>
			<point x="750" y="670" type="line"/>
			<point x="407" y="89" type="line"/>
			<point x="435" y="103" type="line"/>
			<point x="314" y="670" type="line"/>
			<point x="130" y="670" type="line"/>
			<point x="122" y="630" type="line"/>
			<point x="258" y="614" type="line"/>
			<point x="223" y="657" type="line"/>
		</contour>
		<contour>
			<point x="575" y="0" type="line"/>
			<point x="833" y="0" type="line"/>
			<point x="838" y="42" type="line"/>
			<point x="720" y="57" type="line"/>
			<point x="702" y="57" type="line"/>
			<point x="580" y="42" type="line"/>
		</contour>
		<contour>
			<point x="654" y="0" type="line"/>
			<point x="742" y="0" type="line"/>
			<point x="754" y="103"/>
			<point x="768" y="209"/>
			<point x="782" y="312" type="curve" smooth="yes"/>
			<point x="834" y="670" type="line"/>
			<point x="768" y="670" type="line"/>
			<point x="748" y="639" type="line"/>
		</contour>
		<contour>
			<point x="783" y="615" type="line"/>
			<point x="801" y="615" type="line"/>
			<point x="921" y="630" type="line"/>
			<point x="925" y="670" type="line"/>
			<point x="783" y="670" type="line"/>
		</contour>
	</outline>
	<anchor name="aboveUC" x="528" y="690"/>
	<anchor name="belowLC" x="387" y="-20"/>
</glyph>
<glyph name="N" format="2">
	<unicode hex="004E"/>
	<advance width="728"/>
	<outline>
		<contour>
			<point x="-8" y="0" type="line"/>
			<point x="224" y="0" type="line"/>
			<point x="230" y="40" type="line"/>
			<point x="118" y="55" type="line"/>
			<point x="99" y="55" type="line"/>
			<point x="0" y="40" type="line"/>
		</contour>
		<contour>
			<point x="72" y="0" type="line"/>
			<point x="120" y="0" type="line"/>
			<point x="247" y="670" type="line"/>
			<point x="199" y="670" type="line"/>
		</contour>
		<contour>
			<point x="531" y="630" type="line"/>
			<point x="653" y="615" type="line"/>
			<point x="672" y="615" type="line"/>
			<point x="767" y="630" type="line"/>
			<point x="775" y="670" type="line"/>
			<point x="539" y="670" type="line"/>
		</contour>
		<contour>
			<point x="586" y="120" type="line"/>
			<point x="566" y="120" type="line"/>
			<point x="269" y="670" type="line"/>
			<point x="107" y="670" type="line"/>
			<point x="99" y="630" type="line"/>
			<point x="236" y="615" type="line"/>
			<point x="183" y="639" type="line"/>
			<point x="541" y="-10" type="line"/>
			<point x="571" y="-10" type="line"/>
			<point x="697" y="670" type="line"/>
			<point x="648" y="670" type="line"/>
			<point x="537" y="67" type="line"/>
		</contour>
	</outline>
	<anchor name="aboveUC" x="413" y="690"/>
	<anchor name="belowLC" x="347" y="-20"/>
</glyph>
<glyph name="O" format="2">
	<unicode hex="004F"/>
	<advance width="660"/>
	<outline>
		<contour>
			<point x="287" y="-14" type="curve" smooth="yes"/>
			<point x="496" y="-14"/>
			<point x="635" y="179"/>
			<point x="635" y="409" type="curve" smooth="yes"/>
			<point x="635" y="577"/>
			<point x="542" y="684"/>
			<point x="394" y="684" type="curve" smooth="yes"/>
			<point x="190" y="684"/>
			<point x="49" y="491"/>
			<point x="49" y="259" type="curve" smooth="yes"/>
			<point x="49" y="90"/>
			<point x="143" y="-14"/>
		</contour>
		<contour>
			<point x="301" y="36" type="curve" smooth="yes"/>
			<point x="187" y="36"/>
			<point x="136" y="126"/>
			<point x="136" y="258" type="curve" smooth="yes"/>
			<point x="136" y="472"/>
			<point x="235" y="634"/>
			<point x="382" y="634" type="curve" smooth="yes"/>
			<point x="498" y="634"/>
			<point x="548" y="547"/>
			<point x="548" y="410" type="curve" smooth="yes"/>
			<point x="548" y="197"/>
			<point x="449" y="36"/>
		</contour>
	</outline>
	<anchor name="aboveUC" x="399" y="690"/>
	<anchor name="belowLC" x="286" y="-20"/>
	<anchor name="ogonek" x="374" y="-1"/>
	<anchor name="hornLC" x="538" y="576"/>
</glyph>
<glyph name="P" format="2">
	<unicode hex="0050"/>
	<advance width="562"/>
	<outline>
		<contour>
			<point x="-2" y="0" type="line"/>
			<point x="267" y="0" type="line"/>
			<point x="275" y="40" type="line"/>
			<point x="151" y="55" type="line"/>
			<point x="133" y="55" type="line"/>
			<point x="6" y="40" type="line"/>
		</contour>
		<contour>
			<point x="83" y="0" type="line"/>
			<point x="171" y="0" type="line"/>
			<point x="187" y="103"/>
			<point x="205" y="207"/>
			<point x="224" y="310" type="curve" smooth="yes"/>
			<point x="292" y="670" type="line"/>
			<point x="204" y="670" type="line"/>
			<point x="188" y="567"/>
			<point x="170" y="463"/>
			<point x="151" y="360" type="curve" smooth="yes"/>
		</contour>
		<contour>
			<point x="104" y="630" type="line"/>
			<point x="225" y="615" type="line"/>
			<point x="240" y="615" type="line"/>
			<point x="251" y="670" type="line"/>
			<point x="112" y="670" type="line"/>
		</contour>
		<contour>
			<point x="170" y="260" type="line"/>
			<point x="285" y="260" type="line" smooth="yes"/>
			<point x="465" y="260"/>
			<point x="566" y="359"/>
			<point x="566" y="495" type="curve" smooth="yes"/>
			<point x="566" y="598"/>
			<point x="491" y="670"/>
			<point x="340" y="670" type="curve" smooth="yes"/>
			<point x="251" y="670" type="line"/>
			<point x="242" y="624" type="line"/>
			<point x="325" y="624" type="line" smooth="yes"/>
			<point x="422" y="624"/>
			<point x="475" y="575"/>
			<point x="475" y="483" type="curve" smooth="yes"/>
			<point x="475" y="379"/>
			<point x="412" y="306"/>
			<point x="283" y="306" type="curve" smooth="yes"/>
			<point x="179" y="306" type="line"/>
		</contour>
	</outline>
	<anchor name="aboveUC" x="353" y="690"/>
	<anchor name="belowLC" x="132" y="-20"/>
</glyph>
<glyph name="Q" format="2">
	<unicode hex="0051"/>
	<advance width="660"/>
	<outline>
		<contour>
			<point x="479" y="-250" type="curve" smooth="yes"/>
			<point x="544" y="-250"/>
			<point x="594" y="-223"/>
			<point x="636" y="-186" type="curve"/>
			<point x="621" y="-158" type="line"/>
			<point x="582" y="-178"/>
			<point x="548" y="-187"/>
			<point x="495" y="-187" type="curve" smooth="yes"/>
			<point x="384" y="-187"/>
			<point x="324" y="-110"/>
			<point x="324" y="20" type="curve"/>
			<point x="242" y="20" type="line"/>
			<point x="242" y="-137"/>
			<point x="329" y="-250"/>
		</contour>
		<component base="O"/>
	</outline>
	<anchor name="aboveUC" x="395" y="690"/>
</glyph>
<glyph name="R" format="2">
	<unicode hex="0052"/>
	<advance width="645"/>
	<outline>
		<contour>
			<point x="-2" y="0" type="line"/>
			<point x="267" y="0" type="line"/>
			<point x="275" y="40" type="line"/>
			<point x="151" y="55" type="line"/>
			<point x="133" y="55" type="line"/>
			<point x="6" y="40" type="line"/>
		</contour>
		<contour>
			<point x="83" y="0" type="line"/>
			<point x="171" y="0" type="line"/>
			<point x="187" y="103"/>
			<point x="205" y="207"/>
			<point x="224" y="310" type="curve" smooth="yes"/>
			<point x="292" y="670" type="line"/>
			<point x="204" y="670" type="line"/>
			<point x="188" y="567"/>
			<point x="170" y="463"/>
			<point x="151" y="360" type="curve" smooth="yes"/>
		</contour>
		<contour>
			<point x="104" y="630" type="line"/>
			<point x="225" y="615" type="line"/>
			<point x="238" y="615" type="line"/>
			<point x="249" y="670" type="line"/>
			<point x="112" y="670" type="line"/>
		</contour>
		<contour>
			<point x="527" y="-10" type="curve" smooth="yes"/>
			<point x="567" y="-10"/>
			<point x="588" y="-5"/>
			<point x="610" y="0" type="curve"/>
			<point x="618" y="40" type="line"/>
			<point x="444" y="62" type="line"/>
			<point x="519" y="33" type="line"/>
			<point x="460" y="199" type="line" smooth="yes"/>
			<point x="428" y="290"/>
			<point x="398" y="318"/>
			<point x="328" y="330" type="curve"/>
			<point x="338" y="311" type="line"/>
			<point x="503" y="323"/>
			<point x="580" y="404"/>
			<point x="580" y="511" type="curve" smooth="yes"/>
			<point x="580" y="614"/>
			<point x="499" y="670"/>
			<point x="376" y="670" type="curve" smooth="yes"/>
			<point x="250" y="670" type="line"/>
			<point x="241" y="624" type="line"/>
			<point x="368" y="624" type="line" smooth="yes"/>
			<point x="446" y="624"/>
			<point x="490" y="584"/>
			<point x="490" y="513" type="curve" smooth="yes"/>
			<point x="490" y="420"/>
			<point x="438" y="355"/>
			<point x="305" y="355" type="curve" smooth="yes"/>
			<point x="191" y="355" type="line"/>
			<point x="183" y="310" type="line"/>
			<point x="267" y="310" type="line" smooth="yes"/>
			<point x="323" y="310"/>
			<point x="342" y="295"/>
			<point x="369" y="215" type="curve" smooth="yes"/>
			<point x="421" y="59" type="line" smooth="yes"/>
			<point x="438" y="9"/>
			<point x="470" y="-10"/>
		</contour>
	</outline>
	<anchor name="aboveUC" x="360" y="690"/>
	<anchor name="belowLC" x="347" y="-20"/>
</glyph>
<glyph name="S" format="2">
	<unicode hex="0053"/>
	<advance width="494"/>
	<outline>
		<contour>
			<point x="16" y="30" type="line"/>
			<point x="58" y="2"/>
			<point x="133" y="-15"/>
			<point x="193" y="-15" type="curve" smooth="yes"/>
			<point x="326" y="-15"/>
			<point x="415" y="61"/>
			<point x="415" y="177" type="curve" smooth="yes"/>
			<point x="415" y="237"/>
			<point x="390" y="289"/>
			<point x="277" y="377" type="curve" smooth="yes"/>
			<point x="206" y="432"/>
			<point x="179" y="471"/>
			<point x="179" y="524" type="curve" smooth="yes"/>
			<point x="179" y="599"/>
			<point x="235" y="635"/>
			<point x="334" y="635" type="curve" smooth="yes"/>
			<point x="363" y="635"/>
			<point x="392" y="631"/>
			<point x="442" y="606" type="curve"/>
			<point x="399" y="640" type="line"/>
			<point x="406" y="500" type="line"/>
			<point x="464" y="500" type="line"/>
			<point x="488" y="640" type="line"/>
			<point x="431" y="673"/>
			<point x="376" y="685"/>
			<point x="322" y="685" type="curve" smooth="yes"/>
			<point x="195" y="685"/>
			<point x="105" y="608"/>
			<point x="105" y="503" type="curve" smooth="yes"/>
			<point x="105" y="441"/>
			<point x="131" y="384"/>
			<point x="233" y="306" type="curve" smooth="yes"/>
			<point x="323" y="237"/>
			<point x="337" y="201"/>
			<point x="337" y="156" type="curve" smooth="yes"/>
			<point x="337" y="86"/>
			<point x="290" y="35"/>
			<point x="189" y="35" type="curve" smooth="yes"/>
			<point x="142" y="35"/>
			<point x="95" y="45"/>
			<point x="57" y="67" type="curve"/>
			<point x="105" y="32" type="line"/>
			<point x="92" y="172" type="line"/>
			<point x="35" y="172" type="line"/>
		</contour>
	</outline>
	<anchor name="aboveUC" x="336" y="690"/>
	<anchor name="belowLC" x="192" y="-20"/>
	<anchor name="baseLC" x="187" y="0"/>
</glyph>
<glyph name="T" format="2">
	<unicode hex="0054"/>
	<advance width="568"/>
	<outline>
		<contour>
			<point x="58" y="492" type="line"/>
			<point x="108" y="492" type="line"/>
			<point x="173" y="670" type="line"/>
			<point x="119" y="620" type="line"/>
			<point x="572" y="620" type="line"/>
			<point x="536" y="670" type="line"/>
			<point x="536" y="492" type="line"/>
			<point x="586" y="492" type="line"/>
			<point x="615" y="670" type="line"/>
			<point x="94" y="670" type="line"/>
		</contour>
		<contour>
			<point x="97" y="0" type="line"/>
			<point x="381" y="0" type="line"/>
			<point x="389" y="40" type="line"/>
			<point x="260" y="55" type="line"/>
			<point x="242" y="55" type="line"/>
			<point x="105" y="40" type="line"/>
		</contour>
		<contour>
			<point x="192" y="0" type="line"/>
			<point x="280" y="0" type="line"/>
			<point x="296" y="103"/>
			<point x="314" y="207"/>
			<point x="333" y="310" type="curve" smooth="yes"/>
			<point x="401" y="670" type="line"/>
			<point x="313" y="670" type="line"/>
			<point x="297" y="567"/>
			<point x="279" y="463"/>
			<point x="260" y="360" type="curve" smooth="yes"/>
		</contour>
	</outline>
	<anchor name="aboveUC" x="363" y="690"/>
	<anchor name="belowLC" x="240" y="-20"/>
	<anchor name="baseLC" x="239" y="0"/>
</glyph>
<glyph name="U" format="2">
	<unicode hex="0055"/>
	<advance width="713"/>
	<outline>
		<contour>
			<point x="103" y="179" type="curve" smooth="yes"/>
			<point x="103" y="54"/>
			<point x="175" y="-15"/>
			<point x="310" y="-15" type="curve" smooth="yes"/>
			<point x="456" y="-15"/>
			<point x="561" y="62"/>
			<point x="601" y="274" type="curve" smooth="yes"/>
			<point x="676" y="670" type="line"/>
			<point x="624" y="670" type="line"/>
			<point x="553" y="299" type="line" smooth="yes"/>
			<point x="516" y="108"/>
			<point x="460" y="55"/>
			<point x="320" y="55" type="curve" smooth="yes"/>
			<point x="247" y="55"/>
			<point x="186" y="101"/>
			<point x="186" y="185" type="curve" smooth="yes"/>
			<point x="186" y="232"/>
			<point x="192" y="256"/>
			<point x="197" y="282" type="curve" smooth="yes"/>
			<point x="268" y="670" type="line"/>
			<point x="183" y="670" type="line"/>
			<point x="167" y="567"/>
			<point x="149" y="463"/>
			<point x="130" y="360" type="curve" smooth="yes"/>
			<point x="116" y="286" type="line" smooth="yes"/>
			<point x="109" y="249"/>
			<point x="103" y="212"/>
		</contour>
		<contour>
			<point x="82" y="630" type="line"/>
			<point x="203" y="615" type="line"/>
			<point x="222" y="615" type="line"/>
			<point x="346" y="630" type="line"/>
			<point x="354" y="670" type="line"/>
			<point x="90" y="670" type="line"/>
		</contour>
		<contour>
			<point x="510" y="630" type="line"/>
			<point x="627" y="615" type="line"/>
			<point x="646" y="615" type="line"/>
			<point x="752" y="630" type="line"/>
			<point x="760" y="670" type="line"/>
			<point x="518" y="670" type="line"/>
		</contour>
	</outline>
	<anchor name="aboveUC" x="436" y="690"/>
	<anchor name="belowLC" x="318" y="-20"/>
	<anchor name="ogonek" x="404" y="0"/>
	<anchor name="hornLC" x="637" y="586"/>
</glyph>
<glyph name="V" format="2">
	<unicode hex="0056"/>
	<advance width="605"/>
	<outline>
		<contour>
			<point x="44" y="630" type="line"/>
			<point x="165" y="615" type="line"/>
			<point x="184" y="615" type="line"/>
			<point x="308" y="630" type="line"/>
			<point x="316" y="670" type="line"/>
			<point x="52" y="670" type="line"/>
		</contour>
		<contour>
			<point x="224" y="-10" type="line"/>
			<point x="265" y="-10" type="line"/>
			<point x="630" y="670" type="line"/>
			<point x="576" y="670" type="line"/>
			<point x="262" y="82" type="line"/>
			<point x="288" y="82" type="line"/>
			<point x="205" y="670" type="line"/>
			<point x="115" y="670" type="line"/>
		</contour>
		<contour>
			<point x="465" y="630" type="line"/>
			<point x="566" y="615" type="line"/>
			<point x="585" y="615" type="line"/>
			<point x="689" y="630" type="line"/>
			<point x="697" y="670" type="line"/>
			<point x="473" y="670" type="line"/>
		</contour>
	</outline>
	<anchor name="aboveUC" x="392" y="690"/>
	<anchor name="belowLC" x="238" y="-20"/>
</glyph>
<glyph name="W" format="2">
	<unicode hex="0057"/>
	<advance width="872"/>
	<outline>
		<contour>
			<point x="44" y="630" type="line"/>
			<point x="165" y="615" type="line"/>
			<point x="184" y="615" type="line"/>
			<point x="304" y="630" type="line"/>
			<point x="312" y="670" type="line"/>
			<point x="52" y="670" type="line"/>
		</contour>
		<contour>
			<point x="179" y="-10" type="line"/>
			<point x="218" y="-10" type="line"/>
			<point x="508" y="587" type="line"/>
			<point x="473" y="564" type="line"/>
			<point x="548" y="-10" type="line"/>
			<point x="586" y="-10" type="line"/>
			<point x="897" y="670" type="line"/>
			<point x="845" y="670" type="line"/>
			<point x="585" y="96" type="line"/>
			<point x="601" y="106" type="line"/>
			<point x="539" y="670" type="line"/>
			<point x="497" y="670" type="line"/>
			<point x="221" y="96" type="line"/>
			<point x="240" y="106" type="line"/>
			<point x="207" y="670" type="line"/>
			<point x="118" y="670" type="line"/>
		</contour>
		<contour>
			<point x="375" y="630" type="line"/>
			<point x="495" y="615" type="line"/>
			<point x="514" y="615" type="line"/>
			<point x="638" y="630" type="line"/>
			<point x="646" y="670" type="line"/>
			<point x="383" y="670" type="line"/>
		</contour>
		<contour>
			<point x="732" y="630" type="line"/>
			<point x="833" y="615" type="line"/>
			<point x="852" y="615" type="line"/>
			<point x="956" y="630" type="line"/>
			<point x="964" y="670" type="line"/>
			<point x="740" y="670" type="line"/>
		</contour>
	</outline>
	<anchor name="aboveUC" x="502" y="690"/>
	<anchor name="belowLC" x="387" y="-20"/>
</glyph>
<glyph name="X" format="2">
	<unicode hex="0058"/>
	<advance width="661"/>
	<outline>
		<contour>
			<point x="-20" y="0" type="line"/>
			<point x="224" y="0" type="line"/>
			<point x="231" y="40" type="line"/>
			<point x="123" y="55" type="line"/>
			<point x="105" y="55" type="line"/>
			<point x="-13" y="40" type="line"/>
		</contour>
		<contour>
			<point x="34" y="0" type="line"/>
			<point x="94" y="0" type="line"/>
			<point x="330" y="297" type="line"/>
			<point x="337" y="306" type="line"/>
			<point x="362" y="306" type="line"/>
			<point x="324" y="350" type="line"/>
		</contour>
		<contour>
			<point x="98" y="629" type="line"/>
			<point x="220" y="614" type="line"/>
			<point x="239" y="614" type="line"/>
			<point x="363" y="629" type="line"/>
			<point x="372" y="670" type="line"/>
			<point x="106" y="670" type="line"/>
		</contour>
		<contour>
			<point x="335" y="0" type="line"/>
			<point x="605" y="0" type="line"/>
			<point x="614" y="40" type="line"/>
			<point x="494" y="55" type="line"/>
			<point x="476" y="55" type="line"/>
			<point x="343" y="40" type="line"/>
		</contour>
		<contour>
			<point x="354" y="320" type="line"/>
			<point x="647" y="670" type="line"/>
			<point x="589" y="670" type="line"/>
			<point x="357" y="384" type="line"/>
			<point x="346" y="370" type="line"/>
			<point x="321" y="370" type="line"/>
		</contour>
		<contour>
			<point x="453" y="629" type="line"/>
			<point x="560" y="614" type="line"/>
			<point x="579" y="614" type="line"/>
			<point x="695" y="629" type="line"/>
			<point x="702" y="670" type="line"/>
			<point x="460" y="670" type="line"/>
		</contour>
		<contour>
			<point x="447" y="0" type="line"/>
			<point x="540" y="0" type="line"/>
			<point x="248" y="670" type="line"/>
			<point x="156" y="670" type="line"/>
		</contour>
	</outline>
	<anchor name="aboveUC" x="413" y="690"/>
	<anchor name="belowLC" x="283" y="-20"/>
</glyph>
<glyph name="Y" format="2">
	<unicode hex="0059"/>
	<advance width="554"/>
	<outline>
		<contour>
			<point x="44" y="629" type="line"/>
			<point x="165" y="614" type="line"/>
			<point x="185" y="614" type="line"/>
			<point x="309" y="629" type="line"/>
			<point x="317" y="670" type="line"/>
			<point x="52" y="670" type="line"/>
		</contour>
		<contour>
			<point x="94" y="0" type="line"/>
			<point x="379" y="0" type="line"/>
			<point x="387" y="40" type="line"/>
			<point x="257" y="55" type="line"/>
			<point x="239" y="55" type="line"/>
			<point x="102" y="40" type="line"/>
		</contour>
		<contour>
			<point x="252" y="249" type="line"/>
			<point x="306" y="249" type="line"/>
			<point x="583" y="670" type="line"/>
			<point x="533" y="670" type="line"/>
			<point x="307" y="321" type="line"/>
			<point x="303" y="314" type="line"/>
			<point x="317" y="314" type="line"/>
			<point x="205" y="670" type="line"/>
			<point x="105" y="670" type="line"/>
		</contour>
		<contour>
			<point x="188" y="0" type="line"/>
			<point x="278" y="0" type="line"/>
			<point x="294" y="103"/>
			<point x="312" y="207"/>
			<point x="331" y="310" type="curve"/>
			<point x="247" y="310" type="line"/>
		</contour>
		<contour>
			<point x="414" y="629" type="line"/>
			<point x="515" y="614" type="line"/>
			<point x="534" y="614" type="line"/>
			<point x="637" y="629" type="line"/>
			<point x="645" y="670" type="line"/>
			<point x="422" y="670" type="line"/>
		</contour>
	</outline>
	<anchor name="aboveUC" x="366" y="690"/>
	<anchor name="belowLC" x="235" y="-20"/>
</glyph>
<glyph name="Z" format="2">
	<unicode hex="005A"/>
	<advance width="537"/>
	<outline>
		<contour>
			<point x="-17" y="0" type="line"/>
			<point x="70" y="0" type="line"/>
			<point x="70" y="20" type="line"/>
			<point x="564" y="635" type="line"/>
			<point x="571" y="670" type="line"/>
			<point x="482" y="670" type="line"/>
			<point x="482" y="650" type="line"/>
			<point x="-10" y="35" type="line"/>
		</contour>
		<contour>
			<point x="71" y="492" type="line"/>
			<point x="129" y="492" type="line"/>
			<point x="192" y="670" type="line"/>
			<point x="130" y="620" type="line"/>
			<point x="525" y="620" type="line"/>
			<point x="535" y="670" type="line"/>
			<point x="105" y="670" type="line"/>
		</contour>
		<contour>
			<point x="30" y="0" type="line"/>
			<point x="466" y="0" type="line"/>
			<point x="501" y="178" type="line"/>
			<point x="442" y="178" type="line"/>
			<point x="380" y="0" type="line"/>
			<point x="441" y="50" type="line"/>
			<point x="39" y="50" type="line"/>
		</contour>
	</outline>
	<anchor name="aboveUC" x="335" y="690"/>
	<anchor name="belowLC" x="241" y="-20"/>
</glyph>
<glyph name="bracketleft" format="2">
	<unicode hex="005B"/>
	<advance width="324"/>
	<outline>
		<contour>
			<point x="21" y="-159" type="line"/>
			<point x="93" y="-159" type="line"/>
			<point x="110" y="-54"/>
			<point x="131" y="53"/>
			<point x="152" y="158" type="curve" smooth="yes"/>
			<point x="259" y="715" type="line"/>
			<point x="187" y="715" type="line"/>
			<point x="169" y="610"/>
			<point x="149" y="503"/>
			<point x="128" y="398" type="curve" smooth="yes"/>
		</contour>
		<contour>
			<point x="65" y="-159" type="line"/>
			<point x="205" y="-159" type="line"/>
			<point x="213" y="-119" type="line"/>
			<point x="86" y="-104" type="line"/>
			<point x="76" y="-104" type="line"/>
		</contour>
		<contour>
			<point x="224" y="660" type="line"/>
			<point x="234" y="660" type="line"/>
			<point x="367" y="675" type="line"/>
			<point x="375" y="715" type="line"/>
			<point x="235" y="715" type="line"/>
		</contour>
	</outline>
</glyph>
<glyph name="backslash" format="2">
	<unicode hex="005C"/>
	<advance width="311"/>
	<outline>
		<contour>
			<point x="239" y="-160" type="line"/>
			<point x="150" y="710" type="line"/>
			<point x="94" y="710" type="line"/>
			<point x="183" y="-160" type="line"/>
		</contour>
	</outline>
</glyph>
<glyph name="asciicircum" format="2">
	<unicode hex="005E"/>
	<advance width="530"/>
	<outline>
		<contour>
			<point x="95" y="243" type="line"/>
			<point x="139" y="211" type="line"/>
			<point x="289" y="448" type="line"/>
			<point x="256" y="448" type="line"/>
			<point x="406" y="211" type="line"/>
			<point x="450" y="243" type="line"/>
			<point x="304" y="480" type="line"/>
			<point x="241" y="480" type="line"/>
		</contour>
	</outline>
</glyph>
<glyph name="a" format="2">
	<unicode hex="0061"/>
	<advance width="521"/>
	<outline>
		<contour>
			<point x="122" y="-13" type="curve" smooth="yes"/>
			<point x="193" y="-13"/>
			<point x="282" y="67"/>
			<point x="352" y="171" type="curve"/>
			<point x="355" y="171" type="line"/>
			<point x="343" y="193" type="line"/>
			<point x="255" y="88"/>
			<point x="205" y="55"/>
			<point x="163" y="55" type="curve" smooth="yes"/>
			<point x="127" y="55"/>
			<point x="103" y="84"/>
			<point x="103" y="145" type="curve" smooth="yes"/>
			<point x="103" y="234"/>
			<point x="141" y="312"/>
			<point x="189" y="362" type="curve" smooth="yes"/>
			<point x="226" y="400"/>
			<point x="268" y="421"/>
			<point x="300" y="421" type="curve" smooth="yes"/>
			<point x="335" y="421"/>
			<point x="369" y="400"/>
			<point x="394" y="379" type="curve"/>
			<point x="430" y="404" type="line"/>
			<point x="404" y="450"/>
			<point x="378" y="487"/>
			<point x="335" y="487" type="curve" smooth="yes"/>
			<point x="207" y="487"/>
			<point x="27" y="278"/>
			<point x="27" y="104" type="curve" smooth="yes"/>
			<point x="27" y="22"/>
			<point x="74" y="-13"/>
		</contour>
		<contour>
			<point x="344" y="-13" type="curve" smooth="yes"/>
			<point x="411" y="-13"/>
			<point x="473" y="51"/>
			<point x="513" y="109" type="curve"/>
			<point x="489" y="128" type="line"/>
			<point x="454" y="85"/>
			<point x="415" y="55"/>
			<point x="390" y="55" type="curve" smooth="yes"/>
			<point x="377" y="55"/>
			<point x="366" y="63"/>
			<point x="366" y="77" type="curve" smooth="yes"/>
			<point x="366" y="89"/>
			<point x="369" y="110"/>
			<point x="375" y="135" type="curve" smooth="yes"/>
			<point x="455" y="488" type="line"/>
			<point x="437" y="497" type="line"/>
			<point x="378" y="448" type="line"/>
			<point x="371" y="442" type="line"/>
			<point x="304" y="132" type="line"/>
			<point x="303" y="127" type="line" smooth="yes"/>
			<point x="296" y="94"/>
			<point x="293" y="73"/>
			<point x="293" y="44" type="curve" smooth="yes"/>
			<point x="293" y="5"/>
			<point x="317" y="-13"/>
		</contour>
	</outline>
	<anchor name="aboveLC" x="331" y="494"/>
	<anchor name="belowLC" x="199" y="-20"/>
	<anchor name="ogonek" x="382" y="0"/>
</glyph>
<glyph name="b" format="2">
	<unicode hex="0062"/>
	<advance width="493"/>
	<outline>
		<contour>
			<point x="150" y="-13" type="curve" smooth="yes"/>
			<point x="312" y="-13"/>
			<point x="477" y="196"/>
			<point x="477" y="364" type="curve" smooth="yes"/>
			<point x="477" y="454"/>
			<point x="435" y="487"/>
			<point x="386" y="487" type="curve" smooth="yes"/>
			<point x="313" y="487"/>
			<point x="209" y="412"/>
			<point x="146" y="293" type="curve"/>
			<point x="141" y="293" type="line"/>
			<point x="158" y="288" type="line"/>
			<point x="231" y="373"/>
			<point x="294" y="421"/>
			<point x="342" y="421" type="curve" smooth="yes"/>
			<point x="379" y="421"/>
			<point x="403" y="389"/>
			<point x="403" y="324" type="curve" smooth="yes"/>
			<point x="403" y="242"/>
			<point x="367" y="156"/>
			<point x="313" y="104" type="curve" smooth="yes"/>
			<point x="276" y="69"/>
			<point x="235" y="50"/>
			<point x="194" y="50" type="curve" smooth="yes"/>
			<point x="162" y="50"/>
			<point x="144" y="70"/>
			<point x="144" y="104" type="curve" smooth="yes"/>
			<point x="144" y="142"/>
			<point x="148" y="167"/>
			<point x="164" y="243" type="curve" smooth="yes"/>
			<point x="182" y="328" type="line"/>
			<point x="185" y="343" type="line"/>
			<point x="265" y="733" type="line"/>
			<point x="254" y="741" type="line"/>
			<point x="82" y="691" type="line"/>
			<point x="77" y="662" type="line"/>
			<point x="194" y="654" type="line"/>
			<point x="180" y="671" type="line"/>
			<point x="91" y="226" type="line" smooth="yes"/>
			<point x="78" y="159"/>
			<point x="68" y="111"/>
			<point x="68" y="69" type="curve" smooth="yes"/>
			<point x="68" y="18"/>
			<point x="106" y="-13"/>
		</contour>
	</outline>
	<anchor name="aboveLC" x="213" y="740"/>
	<anchor name="belowLC" x="165" y="-20"/>
</glyph>
<glyph name="c" format="2">
	<unicode hex="0063"/>
	<advance width="407"/>
	<outline>
		<contour>
			<point x="185" y="-13" type="curve" smooth="yes"/>
			<point x="254" y="-13"/>
			<point x="327" y="41"/>
			<point x="367" y="111" type="curve"/>
			<point x="344" y="129" type="line"/>
			<point x="316" y="95"/>
			<point x="275" y="56"/>
			<point x="222" y="56" type="curve" smooth="yes"/>
			<point x="156" y="56"/>
			<point x="111" y="98"/>
			<point x="111" y="185" type="curve" smooth="yes"/>
			<point x="111" y="321"/>
			<point x="200" y="442"/>
			<point x="297" y="457" type="curve"/>
			<point x="312" y="457" type="line"/>
			<point x="312" y="468" type="line"/>
			<point x="255" y="468" type="line"/>
			<point x="300" y="416" type="line" smooth="yes"/>
			<point x="318" y="396"/>
			<point x="337" y="380"/>
			<point x="359" y="380" type="curve" smooth="yes"/>
			<point x="377" y="380"/>
			<point x="397" y="390"/>
			<point x="401" y="415" type="curve"/>
			<point x="390" y="458"/>
			<point x="354" y="488"/>
			<point x="293" y="488" type="curve" smooth="yes"/>
			<point x="167" y="488"/>
			<point x="36" y="343"/>
			<point x="36" y="174" type="curve" smooth="yes"/>
			<point x="36" y="49"/>
			<point x="98" y="-13"/>
		</contour>
	</outline>
	<anchor name="aboveLC" x="294" y="495"/>
	<anchor name="baseLC" x="195" y="0"/>
	<anchor name="belowLC" x="180" y="-20"/>
</glyph>
<glyph name="d" format="2">
	<unicode hex="0064"/>
	<advance width="523"/>
	<outline>
		<contour>
			<point x="119" y="-13" type="curve" smooth="yes"/>
			<point x="190" y="-13"/>
			<point x="286" y="67"/>
			<point x="352" y="171" type="curve"/>
			<point x="362" y="171" type="line"/>
			<point x="343" y="193" type="line"/>
			<point x="258" y="88"/>
			<point x="209" y="55"/>
			<point x="167" y="55" type="curve" smooth="yes"/>
			<point x="131" y="55"/>
			<point x="104" y="84"/>
			<point x="104" y="150" type="curve" smooth="yes"/>
			<point x="104" y="232"/>
			<point x="135" y="308"/>
			<point x="180" y="358" type="curve" smooth="yes"/>
			<point x="215" y="397"/>
			<point x="258" y="421"/>
			<point x="302" y="421" type="curve" smooth="yes"/>
			<point x="328" y="421"/>
			<point x="357" y="409"/>
			<point x="382" y="377" type="curve"/>
			<point x="423" y="428" type="line"/>
			<point x="390" y="470"/>
			<point x="367" y="487"/>
			<point x="331" y="487" type="curve" smooth="yes"/>
			<point x="196" y="487"/>
			<point x="29" y="278"/>
			<point x="29" y="113" type="curve" smooth="yes"/>
			<point x="29" y="22"/>
			<point x="71" y="-13"/>
		</contour>
		<contour>
			<point x="352" y="-13" type="curve" smooth="yes"/>
			<point x="419" y="-13"/>
			<point x="481" y="51"/>
			<point x="520" y="109" type="curve"/>
			<point x="496" y="128" type="line"/>
			<point x="462" y="85"/>
			<point x="423" y="55"/>
			<point x="397" y="55" type="curve" smooth="yes"/>
			<point x="385" y="55"/>
			<point x="374" y="63"/>
			<point x="374" y="77" type="curve" smooth="yes"/>
			<point x="374" y="89"/>
			<point x="377" y="110"/>
			<point x="382" y="135" type="curve" smooth="yes"/>
			<point x="503" y="733" type="line"/>
			<point x="491" y="741" type="line"/>
			<point x="321" y="691" type="line"/>
			<point x="317" y="662" type="line"/>
			<point x="434" y="654" type="line"/>
			<point x="423" y="677" type="line"/>
			<point x="378" y="455" type="line"/>
			<point x="368" y="422" type="line"/>
			<point x="307" y="120" type="line"/>
			<point x="305" y="110" type="line" smooth="yes"/>
			<point x="297" y="69"/>
			<point x="296" y="52"/>
			<point x="297" y="38" type="curve" smooth="yes"/>
			<point x="297" y="4"/>
			<point x="322" y="-13"/>
		</contour>
	</outline>
	<anchor name="aboveLC" x="444" y="740"/>
	<anchor name="belowLC" x="223" y="-20"/>
</glyph>
<glyph name="e" format="2">
	<unicode hex="0065"/>
	<advance width="405"/>
	<outline>
		<contour>
			<point x="186" y="-13" type="curve" smooth="yes"/>
			<point x="259" y="-13"/>
			<point x="323" y="42"/>
			<point x="365" y="110" type="curve"/>
			<point x="342" y="128" type="line"/>
			<point x="315" y="94"/>
			<point x="270" y="55"/>
			<point x="207" y="55" type="curve" smooth="yes"/>
			<point x="142" y="55"/>
			<point x="103" y="94"/>
			<point x="103" y="194" type="curve" smooth="yes"/>
			<point x="103" y="327"/>
			<point x="209" y="444"/>
			<point x="274" y="444" type="curve" smooth="yes"/>
			<point x="307" y="444"/>
			<point x="330" y="422"/>
			<point x="330" y="385" type="curve" smooth="yes"/>
			<point x="330" y="328"/>
			<point x="265" y="255"/>
			<point x="78" y="207" type="curve"/>
			<point x="82" y="169" type="line"/>
			<point x="329" y="235"/>
			<point x="395" y="330"/>
			<point x="395" y="395" type="curve" smooth="yes"/>
			<point x="395" y="454"/>
			<point x="360" y="487"/>
			<point x="296" y="487" type="curve" smooth="yes"/>
			<point x="157" y="487"/>
			<point x="36" y="334"/>
			<point x="36" y="173" type="curve" smooth="yes"/>
			<point x="36" y="45"/>
			<point x="99" y="-13"/>
		</contour>
	</outline>
	<anchor name="aboveLC" x="297" y="494"/>
	<anchor name="belowLC" x="173" y="-20"/>
	<anchor name="ogonek" x="222" y="0"/>
</glyph>
<glyph name="f" format="2">
	<unicode hex="0066"/>
	<advance width="293"/>
	<outline>
		<contour>
			<point x="-77" y="-250" type="curve" smooth="yes"/>
			<point x="-45" y="-250"/>
			<point x="-13" y="-239"/>
			<point x="28" y="-202" type="curve" smooth="yes"/>
			<point x="84" y="-152"/>
			<point x="110" y="-73"/>
			<point x="131" y="35" type="curve" smooth="yes"/>
			<point x="160" y="181"/>
			<point x="184" y="341"/>
			<point x="208" y="484" type="curve" smooth="yes"/>
			<point x="241" y="684"/>
			<point x="309" y="719"/>
			<point x="377" y="731" type="curve"/>
			<point x="377" y="739" type="line"/>
			<point x="316" y="739" type="line"/>
			<point x="347" y="699" type="line" smooth="yes"/>
			<point x="378" y="659"/>
			<point x="396" y="644"/>
			<point x="426" y="644" type="curve" smooth="yes"/>
			<point x="443" y="644"/>
			<point x="457" y="654"/>
			<point x="464" y="677" type="curve"/>
			<point x="456" y="714"/>
			<point x="410" y="750"/>
			<point x="352" y="750" type="curve" smooth="yes"/>
			<point x="288" y="750"/>
			<point x="173" y="706"/>
			<point x="138" y="484" type="curve" smooth="yes"/>
			<point x="113" y="326"/>
			<point x="91" y="187"/>
			<point x="64" y="35" type="curve" smooth="yes"/>
			<point x="45" y="-70"/>
			<point x="28" y="-126"/>
			<point x="2" y="-163" type="curve" smooth="yes"/>
			<point x="-20" y="-194"/>
			<point x="-42" y="-210"/>
			<point x="-63" y="-220" type="curve"/>
			<point x="-27" y="-220" type="line"/>
			<point x="-27" y="-217" type="line"/>
			<point x="-51" y="-194" type="line" smooth="yes"/>
			<point x="-73" y="-172"/>
			<point x="-94" y="-153"/>
			<point x="-123" y="-153" type="curve" smooth="yes"/>
			<point x="-145" y="-153"/>
			<point x="-165" y="-168"/>
			<point x="-169" y="-189" type="curve"/>
			<point x="-160" y="-226"/>
			<point x="-122" y="-250"/>
		</contour>
		<contour>
			<point x="25" y="427" type="line"/>
			<point x="156" y="427" type="line"/>
			<point x="328" y="421" type="line"/>
			<point x="336" y="474" type="line"/>
			<point x="165" y="474" type="line"/>
			<point x="165" y="477" type="line"/>
			<point x="33" y="465" type="line"/>
		</contour>
	</outline>
	<anchor name="aboveLC" x="350" y="740"/>
	<anchor name="belowLC" x="-62" y="-260"/>
</glyph>
<glyph name="g" format="2">
	<unicode hex="0067"/>
	<advance width="485"/>
	<outline>
		<contour>
			<point x="39" y="83" type="curve" smooth="yes"/>
			<point x="39" y="54"/>
			<point x="56" y="12"/>
			<point x="134" y="3" type="curve" smooth="yes"/>
			<point x="143" y="2" type="line"/>
			<point x="212" y="-6" type="line" smooth="yes"/>
			<point x="316" y="-18"/>
			<point x="340" y="-51"/>
			<point x="340" y="-88" type="curve" smooth="yes"/>
			<point x="340" y="-152"/>
			<point x="270" y="-194"/>
			<point x="163" y="-194" type="curve" smooth="yes"/>
			<point x="82" y="-194"/>
			<point x="34" y="-160"/>
			<point x="34" y="-102" type="curve" smooth="yes"/>
			<point x="34" y="-56"/>
			<point x="67" y="-24"/>
			<point x="134" y="17" type="curve"/>
			<point x="114" y="29" type="line"/>
			<point x="32" y="1"/>
			<point x="-43" y="-66"/>
			<point x="-43" y="-135" type="curve" smooth="yes"/>
			<point x="-43" y="-207"/>
			<point x="27" y="-241"/>
			<point x="119" y="-241" type="curve" smooth="yes"/>
			<point x="285" y="-241"/>
			<point x="407" y="-155"/>
			<point x="407" y="-50" type="curve" smooth="yes"/>
			<point x="407" y="7"/>
			<point x="367" y="44"/>
			<point x="260" y="58" type="curve" smooth="yes"/>
			<point x="163" y="71" type="line" smooth="yes"/>
			<point x="122" y="76"/>
			<point x="110" y="99"/>
			<point x="110" y="116" type="curve" smooth="yes"/>
			<point x="110" y="134"/>
			<point x="114" y="150"/>
			<point x="156" y="193" type="curve"/>
			<point x="144" y="208" type="line"/>
			<point x="144" y="203" type="line"/>
			<point x="79" y="164"/>
			<point x="39" y="127"/>
		</contour>
		<contour>
			<point x="220" y="187" type="curve" smooth="yes"/>
			<point x="168" y="186"/>
			<point x="141" y="223"/>
			<point x="141" y="295" type="curve" smooth="yes"/>
			<point x="141" y="388"/>
			<point x="175" y="453"/>
			<point x="246" y="455" type="curve" smooth="yes"/>
			<point x="288" y="456"/>
			<point x="323" y="417"/>
			<point x="323" y="353" type="curve" smooth="yes"/>
			<point x="323" y="248"/>
			<point x="284" y="188"/>
		</contour>
		<contour>
			<point x="65" y="290" type="curve" smooth="yes"/>
			<point x="65" y="208"/>
			<point x="119" y="155"/>
			<point x="213" y="155" type="curve" smooth="yes"/>
			<point x="291" y="155"/>
			<point x="363" y="213"/>
			<point x="393" y="342" type="curve" smooth="yes"/>
			<point x="401" y="376"/>
			<point x="408" y="400"/>
			<point x="419" y="424" type="curve"/>
			<point x="396" y="397" type="line"/>
			<point x="468" y="418"/>
			<point x="508" y="428"/>
			<point x="508" y="471" type="curve" smooth="yes"/>
			<point x="508" y="479"/>
			<point x="504" y="485"/>
			<point x="499" y="491" type="curve"/>
			<point x="492" y="495"/>
			<point x="482" y="497"/>
			<point x="470" y="497" type="curve" smooth="yes"/>
			<point x="430" y="497"/>
			<point x="390" y="467"/>
			<point x="373" y="374" type="curve"/>
			<point x="380" y="375" type="line"/>
			<point x="373" y="446"/>
			<point x="323" y="487"/>
			<point x="253" y="487" type="curve" smooth="yes"/>
			<point x="150" y="487"/>
			<point x="65" y="399"/>
		</contour>
	</outline>
	<anchor name="aboveLC" x="278" y="494"/>
	<anchor name="belowLC" x="117" y="-260"/>
</glyph>
<glyph name="h" format="2">
	<unicode hex="0068"/>
	<advance width="543"/>
	<outline>
		<contour>
			<point x="55" y="-8" type="line"/>
			<point x="120" y="0" type="line"/>
			<point x="131" y="70"/>
			<point x="144" y="140"/>
			<point x="158" y="210" type="curve" smooth="yes"/>
			<point x="187" y="347" type="line"/>
			<point x="190" y="364" type="line"/>
			<point x="265" y="733" type="line"/>
			<point x="255" y="741" type="line"/>
			<point x="83" y="691" type="line"/>
			<point x="79" y="662" type="line"/>
			<point x="196" y="654" type="line"/>
			<point x="179" y="685" type="line"/>
			<point x="169" y="616"/>
			<point x="156" y="547"/>
			<point x="142" y="478" type="curve" smooth="yes"/>
			<point x="45" y="0" type="line"/>
		</contour>
		<contour>
			<point x="359" y="-13" type="curve" smooth="yes"/>
			<point x="427" y="-13"/>
			<point x="492" y="50"/>
			<point x="531" y="109" type="curve"/>
			<point x="507" y="128" type="line"/>
			<point x="471" y="83"/>
			<point x="433" y="55"/>
			<point x="408" y="55" type="curve" smooth="yes"/>
			<point x="396" y="55"/>
			<point x="388" y="62"/>
			<point x="388" y="76" type="curve" smooth="yes"/>
			<point x="388" y="86"/>
			<point x="394" y="107"/>
			<point x="401" y="135" type="curve" smooth="yes"/>
			<point x="446" y="320" type="line" smooth="yes"/>
			<point x="454" y="353"/>
			<point x="463" y="386"/>
			<point x="463" y="418" type="curve" smooth="yes"/>
			<point x="463" y="464"/>
			<point x="441" y="487"/>
			<point x="399" y="487" type="curve" smooth="yes"/>
			<point x="333" y="487"/>
			<point x="242" y="427"/>
			<point x="175" y="359" type="curve"/>
			<point x="170" y="359" type="line"/>
			<point x="170" y="322" type="line"/>
			<point x="250" y="388"/>
			<point x="311" y="421"/>
			<point x="349" y="421" type="curve" smooth="yes"/>
			<point x="371" y="421"/>
			<point x="384" y="410"/>
			<point x="384" y="374" type="curve" smooth="yes"/>
			<point x="384" y="354"/>
			<point x="376" y="321"/>
			<point x="368" y="287" type="curve" smooth="yes"/>
			<point x="325" y="110" type="line" smooth="yes"/>
			<point x="315" y="69"/>
			<point x="309" y="52"/>
			<point x="309" y="29" type="curve" smooth="yes"/>
			<point x="309" y="4"/>
			<point x="328" y="-13"/>
		</contour>
	</outline>
	<anchor name="aboveLC" x="232" y="740"/>
	<anchor name="belowLC" x="196" y="-20"/>
</glyph>
<glyph name="i" format="2">
	<unicode hex="0069"/>
	<advance width="305"/>
	<outline>
		<contour>
			<point x="91" y="38" type="curve" smooth="yes"/>
			<point x="91" y="4"/>
			<point x="117" y="-13"/>
			<point x="144" y="-13" type="curve" smooth="yes"/>
			<point x="215" y="-13"/>
			<point x="266" y="49"/>
			<point x="311" y="109" type="curve"/>
			<point x="287" y="128" type="line"/>
			<point x="246" y="80"/>
			<point x="214" y="55"/>
			<point x="190" y="55" type="curve" smooth="yes"/>
			<point x="179" y="55"/>
			<point x="168" y="63"/>
			<point x="168" y="77" type="curve" smooth="yes"/>
			<point x="168" y="89"/>
			<point x="172" y="110"/>
			<point x="177" y="135" type="curve" smooth="yes"/>
			<point x="248" y="477" type="line"/>
			<point x="235" y="487" type="line"/>
			<point x="66" y="436" type="line"/>
			<point x="62" y="407" type="line"/>
			<point x="182" y="400" type="line"/>
			<point x="165" y="414" type="line"/>
			<point x="101" y="110" type="line" smooth="yes"/>
			<point x="92" y="69"/>
			<point x="91" y="52"/>
		</contour>
		<contour>
			<point x="246" y="627" type="curve" smooth="yes"/>
			<point x="275" y="627"/>
			<point x="301" y="656"/>
			<point x="301" y="688" type="curve" smooth="yes"/>
			<point x="301" y="720"/>
			<point x="280" y="741"/>
			<point x="250" y="741" type="curve" smooth="yes"/>
			<point x="221" y="741"/>
			<point x="195" y="713"/>
			<point x="195" y="680" type="curve" smooth="yes"/>
			<point x="195" y="648"/>
			<point x="216" y="627"/>
		</contour>
	</outline>
	<anchor name="aboveLC" x="250" y="741"/>
	<anchor name="belowLC" x="138" y="-20"/>
	<anchor name="ogonek" x="181" y="0"/>
	<guideline name="248.0" x="248" y="684" angle="78" identifier="8LTv2XtNDX"/>
</glyph>
<glyph name="j" format="2">
	<unicode hex="006A"/>
	<advance width="249"/>
	<outline>
		<contour>
			<point x="-62" y="-248" type="line"/>
			<point x="-28" y="-242"/>
			<point x="5" y="-227"/>
			<point x="37" y="-200" type="curve" smooth="yes"/>
			<point x="100" y="-147"/>
			<point x="140" y="-71"/>
			<point x="159" y="22" type="curve" smooth="yes"/>
			<point x="247" y="477" type="line"/>
			<point x="234" y="487" type="line"/>
			<point x="66" y="436" type="line"/>
			<point x="63" y="407" type="line"/>
			<point x="183" y="400" type="line"/>
			<point x="165" y="415" type="line"/>
			<point x="94" y="48" type="line" smooth="yes"/>
			<point x="72" y="-73"/>
			<point x="45" y="-123"/>
			<point x="11" y="-167" type="curve" smooth="yes"/>
			<point x="-9" y="-191"/>
			<point x="-34" y="-205"/>
			<point x="-70" y="-220" type="curve"/>
		</contour>
		<contour>
			<point x="246" y="627" type="curve" smooth="yes"/>
			<point x="275" y="627"/>
			<point x="301" y="656"/>
			<point x="301" y="688" type="curve" smooth="yes"/>
			<point x="301" y="720"/>
			<point x="280" y="741"/>
			<point x="250" y="741" type="curve" smooth="yes"/>
			<point x="221" y="741"/>
			<point x="195" y="713"/>
			<point x="195" y="680" type="curve" smooth="yes"/>
			<point x="195" y="648"/>
			<point x="216" y="627"/>
		</contour>
	</outline>
	<anchor name="aboveLC" x="251" y="741"/>
	<anchor name="belowLC" x="7" y="-260"/>
</glyph>
<glyph name="k" format="2">
	<unicode hex="006B"/>
	<advance width="471"/>
	<outline>
		<contour>
			<point x="45" y="0" type="line"/>
			<point x="54" y="-8" type="line"/>
			<point x="119" y="0" type="line"/>
			<point x="131" y="70"/>
			<point x="143" y="140"/>
			<point x="157" y="210" type="curve" smooth="yes"/>
			<point x="260" y="733" type="line"/>
			<point x="250" y="741" type="line"/>
			<point x="82" y="691" type="line"/>
			<point x="78" y="662" type="line"/>
			<point x="195" y="654" type="line"/>
			<point x="178" y="685" type="line"/>
			<point x="168" y="616"/>
			<point x="155" y="547"/>
			<point x="141" y="478" type="curve" smooth="yes"/>
		</contour>
		<contour>
			<point x="456" y="0" type="curve"/>
			<point x="461" y="30" type="line"/>
			<point x="409" y="34" type="line" smooth="yes"/>
			<point x="378" y="36"/>
			<point x="363" y="44"/>
			<point x="341" y="92" type="curve" smooth="yes"/>
			<point x="312" y="155" type="line" smooth="yes"/>
			<point x="289" y="205"/>
			<point x="258" y="238"/>
			<point x="200" y="250" type="curve" smooth="yes"/>
			<point x="171" y="256" type="line"/>
			<point x="168" y="249" type="line"/>
			<point x="422" y="390" type="line" smooth="yes"/>
			<point x="458" y="410"/>
			<point x="472" y="424"/>
			<point x="472" y="442" type="curve" smooth="yes"/>
			<point x="472" y="462"/>
			<point x="457" y="481"/>
			<point x="436" y="482" type="curve"/>
			<point x="147" y="257" type="line"/>
			<point x="150" y="235" type="line"/>
			<point x="170" y="229" type="line" smooth="yes"/>
			<point x="205" y="219"/>
			<point x="221" y="200"/>
			<point x="245" y="144" type="curve" smooth="yes"/>
			<point x="277" y="67" type="line" smooth="yes"/>
			<point x="306" y="-3"/>
			<point x="339" y="-13"/>
			<point x="385" y="-13" type="curve" smooth="yes"/>
			<point x="407" y="-13"/>
			<point x="426" y="-10"/>
		</contour>
	</outline>
	<anchor name="aboveLC" x="224" y="740"/>
	<anchor name="belowLC" x="213" y="-20"/>
</glyph>
<glyph name="l" format="2">
	<unicode hex="006C"/>
	<advance width="278"/>
	<outline>
		<contour>
			<point x="112" y="-13" type="curve" smooth="yes"/>
			<point x="182" y="-13"/>
			<point x="232" y="50"/>
			<point x="275" y="109" type="curve"/>
			<point x="252" y="128" type="line"/>
			<point x="212" y="82"/>
			<point x="178" y="55"/>
			<point x="157" y="55" type="curve" smooth="yes"/>
			<point x="144" y="55"/>
			<point x="132" y="63"/>
			<point x="132" y="79" type="curve" smooth="yes"/>
			<point x="132" y="89"/>
			<point x="135" y="110"/>
			<point x="141" y="137" type="curve" smooth="yes"/>
			<point x="261" y="733" type="line"/>
			<point x="250" y="741" type="line"/>
			<point x="79" y="691" type="line"/>
			<point x="75" y="662" type="line"/>
			<point x="192" y="654" type="line"/>
			<point x="174" y="685" type="line"/>
			<point x="165" y="616"/>
			<point x="152" y="547"/>
			<point x="138" y="478" type="curve" smooth="yes"/>
			<point x="65" y="110" type="line" smooth="yes"/>
			<point x="59" y="76"/>
			<point x="56" y="58"/>
			<point x="56" y="45" type="curve" smooth="yes"/>
			<point x="56" y="6"/>
			<point x="81" y="-13"/>
		</contour>
	</outline>
	<anchor name="aboveLC" x="220" y="740"/>
	<anchor name="belowLC" x="112" y="-20"/>
</glyph>
<glyph name="m" format="2">
	<unicode hex="006D"/>
	<advance width="818"/>
	<outline>
		<contour>
			<point x="634" y="-13" type="curve" smooth="yes"/>
			<point x="705" y="-13"/>
			<point x="762" y="48"/>
			<point x="806" y="109" type="curve"/>
			<point x="782" y="128" type="line"/>
			<point x="742" y="80"/>
			<point x="711" y="56"/>
			<point x="684" y="56" type="curve" smooth="yes"/>
			<point x="673" y="56"/>
			<point x="664" y="63"/>
			<point x="664" y="77" type="curve" smooth="yes"/>
			<point x="664" y="87"/>
			<point x="670" y="107"/>
			<point x="677" y="135" type="curve" smooth="yes"/>
			<point x="722" y="321" type="line" smooth="yes"/>
			<point x="730" y="354"/>
			<point x="739" y="387"/>
			<point x="739" y="419" type="curve" smooth="yes"/>
			<point x="739" y="465"/>
			<point x="717" y="488"/>
			<point x="675" y="488" type="curve" smooth="yes"/>
			<point x="611" y="488"/>
			<point x="527" y="429"/>
			<point x="461" y="361" type="curve"/>
			<point x="456" y="361" type="line"/>
			<point x="456" y="323" type="line"/>
			<point x="533" y="388"/>
			<point x="587" y="421"/>
			<point x="623" y="421" type="curve" smooth="yes"/>
			<point x="646" y="421"/>
			<point x="658" y="410"/>
			<point x="658" y="375" type="curve" smooth="yes"/>
			<point x="658" y="355"/>
			<point x="650" y="322"/>
			<point x="642" y="288" type="curve" smooth="yes"/>
			<point x="599" y="111" type="line" smooth="yes"/>
			<point x="589" y="70"/>
			<point x="583" y="53"/>
			<point x="583" y="30" type="curve" smooth="yes"/>
			<point x="583" y="4"/>
			<point x="602" y="-13"/>
		</contour>
		<contour>
			<point x="135" y="0" type="line"/>
			<point x="148" y="71"/>
			<point x="160" y="140"/>
			<point x="175" y="210" type="curve" smooth="yes"/>
			<point x="206" y="353" type="line"/>
			<point x="206" y="355" type="line"/>
			<point x="231" y="478" type="line"/>
			<point x="218" y="488" type="line"/>
			<point x="48" y="437" type="line"/>
			<point x="44" y="408" type="line"/>
			<point x="164" y="401" type="line"/>
			<point x="146" y="415" type="line"/>
			<point x="58" y="0" type="line"/>
			<point x="68" y="-8" type="line"/>
		</contour>
		<contour>
			<point x="400" y="0" type="line"/>
			<point x="413" y="71"/>
			<point x="426" y="140"/>
			<point x="441" y="210" type="curve" smooth="yes"/>
			<point x="471" y="350" type="line"/>
			<point x="473" y="358" type="line" smooth="yes"/>
			<point x="477" y="379"/>
			<point x="482" y="400"/>
			<point x="482" y="419" type="curve" smooth="yes"/>
			<point x="482" y="465"/>
			<point x="460" y="488"/>
			<point x="419" y="488" type="curve" smooth="yes"/>
			<point x="352" y="488"/>
			<point x="262" y="429"/>
			<point x="195" y="360" type="curve"/>
			<point x="190" y="360" type="line"/>
			<point x="190" y="323" type="line"/>
			<point x="269" y="389"/>
			<point x="329" y="421"/>
			<point x="367" y="421" type="curve" smooth="yes"/>
			<point x="389" y="421"/>
			<point x="401" y="410"/>
			<point x="401" y="378" type="curve" smooth="yes"/>
			<point x="401" y="362"/>
			<point x="397" y="344"/>
			<point x="394" y="327" type="curve" smooth="yes"/>
			<point x="325" y="0" type="line"/>
			<point x="335" y="-8" type="line"/>
		</contour>
	</outline>
	<anchor name="aboveLC" x="439" y="495"/>
	<anchor name="belowLC" x="365" y="-20"/>
</glyph>
<glyph name="n" format="2">
	<unicode hex="006E"/>
	<advance width="563"/>
	<outline>
		<contour>
			<point x="328" y="30" type="curve" smooth="yes"/>
			<point x="328" y="4"/>
			<point x="347" y="-13"/>
			<point x="378" y="-13" type="curve" smooth="yes"/>
			<point x="447" y="-13"/>
			<point x="512" y="50"/>
			<point x="551" y="109" type="curve"/>
			<point x="527" y="128" type="line"/>
			<point x="491" y="83"/>
			<point x="453" y="56"/>
			<point x="428" y="56" type="curve" smooth="yes"/>
			<point x="416" y="56"/>
			<point x="409" y="63"/>
			<point x="409" y="77" type="curve" smooth="yes"/>
			<point x="409" y="87"/>
			<point x="414" y="107"/>
			<point x="421" y="135" type="curve" smooth="yes"/>
			<point x="466" y="320" type="line" smooth="yes"/>
			<point x="474" y="353"/>
			<point x="483" y="386"/>
			<point x="483" y="418" type="curve" smooth="yes"/>
			<point x="483" y="464"/>
			<point x="461" y="487"/>
			<point x="419" y="487" type="curve" smooth="yes"/>
			<point x="353" y="487"/>
			<point x="262" y="428"/>
			<point x="195" y="359" type="curve"/>
			<point x="189" y="359" type="line"/>
			<point x="190" y="322" type="line"/>
			<point x="269" y="388"/>
			<point x="330" y="420"/>
			<point x="368" y="420" type="curve" smooth="yes"/>
			<point x="390" y="420"/>
			<point x="403" y="409"/>
			<point x="403" y="374" type="curve" smooth="yes"/>
			<point x="403" y="354"/>
			<point x="395" y="321"/>
			<point x="387" y="287" type="curve" smooth="yes"/>
			<point x="344" y="111" type="line" smooth="yes"/>
			<point x="334" y="70"/>
			<point x="328" y="53"/>
		</contour>
		<contour>
			<point x="135" y="0" type="line"/>
			<point x="148" y="71"/>
			<point x="160" y="140"/>
			<point x="175" y="210" type="curve" smooth="yes"/>
			<point x="204" y="343" type="line"/>
			<point x="206" y="352" type="line"/>
			<point x="231" y="477" type="line"/>
			<point x="218" y="487" type="line"/>
			<point x="48" y="436" type="line"/>
			<point x="44" y="407" type="line"/>
			<point x="164" y="400" type="line"/>
			<point x="146" y="414" type="line"/>
			<point x="58" y="0" type="line"/>
			<point x="68" y="-8" type="line"/>
		</contour>
	</outline>
	<anchor name="aboveLC" x="317" y="494"/>
	<anchor name="belowLC" x="224" y="-20"/>
</glyph>
<glyph name="o" format="2">
	<unicode hex="006F"/>
	<advance width="487"/>
	<outline>
		<contour>
			<point x="202" y="-13" type="curve" smooth="yes"/>
			<point x="342" y="-13"/>
			<point x="458" y="138"/>
			<point x="458" y="312" type="curve" smooth="yes"/>
			<point x="458" y="425"/>
			<point x="390" y="487"/>
			<point x="296" y="487" type="curve" smooth="yes"/>
			<point x="155" y="487"/>
			<point x="36" y="343"/>
			<point x="36" y="163" type="curve" smooth="yes"/>
			<point x="36" y="49"/>
			<point x="110" y="-13"/>
		</contour>
		<contour>
			<point x="213" y="27" type="curve" smooth="yes"/>
			<point x="157" y="27"/>
			<point x="116" y="70"/>
			<point x="116" y="176" type="curve" smooth="yes"/>
			<point x="116" y="325"/>
			<point x="190" y="447"/>
			<point x="285" y="447" type="curve" smooth="yes"/>
			<point x="340" y="447"/>
			<point x="378" y="405"/>
			<point x="378" y="296" type="curve" smooth="yes"/>
			<point x="378" y="162"/>
			<point x="312" y="27"/>
		</contour>
	</outline>
	<anchor name="aboveLC" x="296" y="494"/>
	<anchor name="belowLC" x="184" y="-20"/>
	<anchor name="hornLC" x="387" y="388"/>
	<anchor name="ogonek" x="258" y="0"/>
</glyph>
<glyph name="p" format="2">
	<unicode hex="0070"/>
	<advance width="511"/>
	<outline>
		<contour>
			<point x="186" y="-13" type="curve" smooth="yes"/>
			<point x="330" y="-13"/>
			<point x="495" y="196"/>
			<point x="495" y="364" type="curve" smooth="yes"/>
			<point x="495" y="454"/>
			<point x="453" y="487"/>
			<point x="404" y="487" type="curve" smooth="yes"/>
			<point x="331" y="487"/>
			<point x="222" y="412"/>
			<point x="159" y="293" type="curve"/>
			<point x="154" y="293" type="line"/>
			<point x="170" y="288" type="line"/>
			<point x="244" y="373"/>
			<point x="312" y="421"/>
			<point x="359" y="421" type="curve" smooth="yes"/>
			<point x="397" y="421"/>
			<point x="420" y="389"/>
			<point x="420" y="324" type="curve" smooth="yes"/>
			<point x="420" y="255"/>
			<point x="395" y="184"/>
			<point x="354" y="131" type="curve" smooth="yes"/>
			<point x="319" y="86"/>
			<point x="273" y="55"/>
			<point x="222" y="55" type="curve" smooth="yes"/>
			<point x="194" y="55"/>
			<point x="160" y="66"/>
			<point x="126" y="100" type="curve"/>
			<point x="84" y="45" type="line"/>
			<point x="117" y="3"/>
			<point x="145" y="-13"/>
		</contour>
		<contour>
			<point x="8" y="-240" type="line"/>
			<point x="84" y="-240" type="line"/>
			<point x="94" y="-172"/>
			<point x="106" y="-107"/>
			<point x="133" y="22" type="curve"/>
			<point x="137" y="40" type="line"/>
			<point x="199" y="332" type="line"/>
			<point x="200" y="337" type="line"/>
			<point x="230" y="477" type="line"/>
			<point x="217" y="487" type="line"/>
			<point x="48" y="436" type="line"/>
			<point x="44" y="407" type="line"/>
			<point x="163" y="400" type="line"/>
			<point x="147" y="414" type="line"/>
		</contour>
		<contour>
			<point x="-76" y="-240" type="line"/>
			<point x="176" y="-240" type="line"/>
			<point x="184" y="-206" type="line"/>
			<point x="65" y="-188" type="line"/>
			<point x="46" y="-188" type="line"/>
			<point x="-69" y="-206" type="line"/>
		</contour>
	</outline>
	<anchor name="aboveLC" x="302" y="494"/>
	<anchor name="belowLC" x="46" y="-260"/>
</glyph>
<glyph name="q" format="2">
	<unicode hex="0071"/>
	<advance width="486"/>
	<outline>
		<contour>
			<point x="148" y="-240" type="line"/>
			<point x="400" y="-240" type="line"/>
			<point x="408" y="-206" type="line"/>
			<point x="291" y="-188" type="line"/>
			<point x="272" y="-188" type="line"/>
			<point x="155" y="-206" type="line"/>
		</contour>
		<contour>
			<point x="119" y="-13" type="curve" smooth="yes"/>
			<point x="190" y="-13"/>
			<point x="300" y="67"/>
			<point x="365" y="171" type="curve"/>
			<point x="377" y="171" type="line"/>
			<point x="357" y="193" type="line"/>
			<point x="271" y="88"/>
			<point x="208" y="55"/>
			<point x="166" y="55" type="curve" smooth="yes"/>
			<point x="123" y="55"/>
			<point x="103" y="90"/>
			<point x="103" y="146" type="curve" smooth="yes"/>
			<point x="103" y="231"/>
			<point x="138" y="310"/>
			<point x="187" y="361" type="curve" smooth="yes"/>
			<point x="223" y="398"/>
			<point x="267" y="421"/>
			<point x="309" y="421" type="curve" smooth="yes"/>
			<point x="336" y="421"/>
			<point x="364" y="412"/>
			<point x="398" y="382" type="curve"/>
			<point x="437" y="428" type="line"/>
			<point x="404" y="470"/>
			<point x="381" y="487"/>
			<point x="341" y="487" type="curve" smooth="yes"/>
			<point x="201" y="487"/>
			<point x="29" y="278"/>
			<point x="29" y="113" type="curve" smooth="yes"/>
			<point x="29" y="22"/>
			<point x="70" y="-13"/>
		</contour>
		<contour>
			<point x="236" y="-240" type="line"/>
			<point x="311" y="-240" type="line"/>
			<point x="322" y="-172"/>
			<point x="334" y="-107"/>
			<point x="348" y="-40" type="curve" smooth="yes"/>
			<point x="457" y="478" type="line"/>
			<point x="439" y="487" type="line"/>
			<point x="383" y="445" type="line"/>
			<point x="379" y="442" type="line"/>
			<point x="314" y="130" type="line"/>
			<point x="311" y="115" type="line"/>
		</contour>
	</outline>
	<anchor name="aboveLC" x="346" y="494"/>
	<anchor name="belowLC" x="270" y="-260"/>
</glyph>
<glyph name="r" format="2">
	<unicode hex="0072"/>
	<advance width="400"/>
	<outline>
		<contour>
			<point x="183" y="255" type="line"/>
			<point x="227" y="340"/>
			<point x="273" y="405"/>
			<point x="336" y="447" type="curve"/>
			<point x="336" y="453" type="line"/>
			<point x="286" y="450" type="line"/>
			<point x="298" y="438" type="line" smooth="yes"/>
			<point x="320" y="417"/>
			<point x="348" y="401"/>
			<point x="369" y="401" type="curve" smooth="yes"/>
			<point x="402" y="401"/>
			<point x="421" y="424"/>
			<point x="422" y="457" type="curve"/>
			<point x="408" y="479"/>
			<point x="383" y="487"/>
			<point x="355" y="487" type="curve" smooth="yes"/>
			<point x="292" y="487"/>
			<point x="227" y="391"/>
			<point x="183" y="303" type="curve"/>
			<point x="170" y="303" type="line"/>
		</contour>
		<contour>
			<point x="58" y="0" type="line"/>
			<point x="68" y="-8" type="line"/>
			<point x="135" y="0" type="line"/>
			<point x="148" y="71"/>
			<point x="160" y="140"/>
			<point x="175" y="210" type="curve" smooth="yes"/>
			<point x="197" y="308" type="line"/>
			<point x="202" y="328" type="line"/>
			<point x="226" y="477" type="line"/>
			<point x="213" y="487" type="line"/>
			<point x="48" y="436" type="line"/>
			<point x="44" y="407" type="line"/>
			<point x="164" y="400" type="line"/>
			<point x="146" y="414" type="line"/>
		</contour>
	</outline>
	<anchor name="aboveLC" x="269" y="494"/>
	<anchor name="belowLC" x="96" y="-20"/>
</glyph>
<glyph name="s" format="2">
	<unicode hex="0073"/>
	<advance width="360"/>
	<outline>
		<contour>
			<point x="142" y="-13" type="curve" smooth="yes"/>
			<point x="243" y="-13"/>
			<point x="311" y="46"/>
			<point x="311" y="129" type="curve" smooth="yes"/>
			<point x="311" y="187"/>
			<point x="290" y="217"/>
			<point x="230" y="262" type="curve" smooth="yes"/>
			<point x="173" y="304"/>
			<point x="156" y="325"/>
			<point x="156" y="367" type="curve" smooth="yes"/>
			<point x="156" y="412"/>
			<point x="182" y="449"/>
			<point x="251" y="449" type="curve" smooth="yes"/>
			<point x="267" y="449"/>
			<point x="277" y="447"/>
			<point x="287" y="444" type="curve"/>
			<point x="256" y="475" type="line"/>
			<point x="274" y="419" type="line" smooth="yes"/>
			<point x="284" y="389"/>
			<point x="302" y="372"/>
			<point x="325" y="372" type="curve" smooth="yes"/>
			<point x="343" y="372"/>
			<point x="357" y="381"/>
			<point x="363" y="400" type="curve"/>
			<point x="348" y="465"/>
			<point x="303" y="488"/>
			<point x="244" y="488" type="curve" smooth="yes"/>
			<point x="148" y="488"/>
			<point x="85" y="426"/>
			<point x="85" y="348" type="curve" smooth="yes"/>
			<point x="85" y="285"/>
			<point x="123" y="248"/>
			<point x="173" y="210" type="curve" smooth="yes"/>
			<point x="230" y="169"/>
			<point x="238" y="143"/>
			<point x="238" y="111" type="curve" smooth="yes"/>
			<point x="238" y="59"/>
			<point x="197" y="26"/>
			<point x="128" y="26" type="curve" smooth="yes"/>
			<point x="111" y="26"/>
			<point x="102" y="28"/>
			<point x="81" y="35" type="curve"/>
			<point x="120" y="1" type="line"/>
			<point x="103" y="70" type="line" smooth="yes"/>
			<point x="96" y="98"/>
			<point x="84" y="114"/>
			<point x="55" y="114" type="curve" smooth="yes"/>
			<point x="39" y="114"/>
			<point x="23" y="103"/>
			<point x="18" y="86" type="curve"/>
			<point x="25" y="26"/>
			<point x="64" y="-13"/>
		</contour>
	</outline>
	<anchor name="aboveLC" x="248" y="495"/>
	<anchor name="belowLC" x="141" y="-20"/>
	<anchor name="baseLC" x="146" y="0"/>
</glyph>
<glyph name="t" format="2">
	<unicode hex="0074"/>
	<advance width="329"/>
	<outline>
		<contour>
			<point x="82" y="110" type="line" smooth="yes"/>
			<point x="74" y="69"/>
			<point x="73" y="52"/>
			<point x="73" y="38" type="curve" smooth="yes"/>
			<point x="73" y="4"/>
			<point x="99" y="-13"/>
			<point x="127" y="-13" type="curve" smooth="yes"/>
			<point x="195" y="-13"/>
			<point x="255" y="49"/>
			<point x="297" y="109" type="curve"/>
			<point x="273" y="128" type="line"/>
			<point x="232" y="80"/>
			<point x="201" y="55"/>
			<point x="174" y="55" type="curve" smooth="yes"/>
			<point x="162" y="55"/>
			<point x="150" y="63"/>
			<point x="150" y="79" type="curve" smooth="yes"/>
			<point x="150" y="89"/>
			<point x="153" y="110"/>
			<point x="159" y="137" type="curve" smooth="yes"/>
			<point x="259" y="609" type="line"/>
			<point x="209" y="609" type="line"/>
			<point x="156" y="454" type="line"/>
		</contour>
		<contour>
			<point x="47" y="425" type="line"/>
			<point x="186" y="425" type="line"/>
			<point x="350" y="420" type="line"/>
			<point x="357" y="474" type="line"/>
			<point x="190" y="474" type="line"/>
			<point x="190" y="477" type="line"/>
			<point x="54" y="465" type="line"/>
		</contour>
	</outline>
	<anchor name="aboveLC" x="224" y="589"/>
	<anchor name="belowLC" x="116" y="-20"/>
	<anchor name="baseLC" x="124" y="0"/>
</glyph>
<glyph name="u" format="2">
	<unicode hex="0075"/>
	<advance width="572"/>
	<outline>
		<contour>
			<point x="149" y="-13" type="curve" smooth="yes"/>
			<point x="221" y="-13"/>
			<point x="296" y="48"/>
			<point x="394" y="144" type="curve"/>
			<point x="401" y="144" type="line"/>
			<point x="394" y="172" type="line"/>
			<point x="295" y="91"/>
			<point x="247" y="56"/>
			<point x="199" y="56" type="curve" smooth="yes"/>
			<point x="175" y="56"/>
			<point x="161" y="70"/>
			<point x="161" y="99" type="curve" smooth="yes"/>
			<point x="161" y="121"/>
			<point x="167" y="153"/>
			<point x="176" y="194" type="curve" smooth="yes"/>
			<point x="239" y="477" type="line"/>
			<point x="226" y="487" type="line"/>
			<point x="52" y="437" type="line"/>
			<point x="48" y="407" type="line"/>
			<point x="159" y="401" type="line"/>
			<point x="152" y="423" type="line"/>
			<point x="101" y="186" type="line" smooth="yes"/>
			<point x="93" y="147"/>
			<point x="80" y="97"/>
			<point x="80" y="60" type="curve" smooth="yes"/>
			<point x="80" y="5"/>
			<point x="111" y="-13"/>
		</contour>
		<contour>
			<point x="394" y="-13" type="curve" smooth="yes"/>
			<point x="466" y="-13"/>
			<point x="519" y="49"/>
			<point x="565" y="109" type="curve"/>
			<point x="540" y="128" type="line"/>
			<point x="499" y="80"/>
			<point x="469" y="56"/>
			<point x="442" y="56" type="curve" smooth="yes"/>
			<point x="430" y="56"/>
			<point x="419" y="64"/>
			<point x="419" y="78" type="curve" smooth="yes"/>
			<point x="419" y="89"/>
			<point x="423" y="110"/>
			<point x="428" y="135" type="curve" smooth="yes"/>
			<point x="499" y="477" type="line"/>
			<point x="486" y="487" type="line"/>
			<point x="421" y="467" type="line"/>
			<point x="410" y="403"/>
			<point x="398" y="339"/>
			<point x="385" y="275" type="curve" smooth="yes"/>
			<point x="352" y="120" type="line"/>
			<point x="356" y="120" type="line"/>
			<point x="342" y="70"/>
			<point x="341" y="53"/>
			<point x="341" y="39" type="curve" smooth="yes"/>
			<point x="341" y="4"/>
			<point x="367" y="-13"/>
		</contour>
	</outline>
	<anchor name="aboveLC" x="326" y="494"/>
	<anchor name="belowLC" x="255" y="-20"/>
	<anchor name="hornLC" x="463" y="398"/>
	<anchor name="ogonek" x="413" y="0"/>
</glyph>
<glyph name="v" format="2">
	<unicode hex="0076"/>
	<advance width="478"/>
	<outline>
		<contour>
			<point x="160" y="-2" type="curve"/>
			<point x="167" y="-7" type="line"/>
			<point x="196" y="-4" type="line"/>
			<point x="298" y="100"/>
			<point x="390" y="222"/>
			<point x="437" y="311" type="curve" smooth="yes"/>
			<point x="485" y="400"/>
			<point x="487" y="426"/>
			<point x="487" y="447" type="curve" smooth="yes"/>
			<point x="487" y="463"/>
			<point x="486" y="469"/>
			<point x="482" y="475" type="curve"/>
			<point x="476" y="482"/>
			<point x="462" y="488"/>
			<point x="443" y="488" type="curve" smooth="yes"/>
			<point x="411" y="488"/>
			<point x="390" y="467"/>
			<point x="390" y="417" type="curve" smooth="yes"/>
			<point x="390" y="407"/>
			<point x="392" y="391"/>
			<point x="394" y="378" type="curve"/>
			<point x="407" y="308" type="line"/>
			<point x="415" y="369" type="line"/>
			<point x="409" y="357"/>
			<point x="404" y="345"/>
			<point x="398" y="333" type="curve" smooth="yes"/>
			<point x="346" y="236"/>
			<point x="293" y="155"/>
			<point x="216" y="66" type="curve"/>
			<point x="227" y="65" type="line"/>
			<point x="227" y="186"/>
			<point x="223" y="315"/>
			<point x="208" y="409" type="curve" smooth="yes"/>
			<point x="199" y="464"/>
			<point x="182" y="488"/>
			<point x="141" y="488" type="curve" smooth="yes"/>
			<point x="94" y="488"/>
			<point x="50" y="447"/>
			<point x="15" y="369" type="curve"/>
			<point x="38" y="353" type="line"/>
			<point x="73" y="405"/>
			<point x="88" y="419"/>
			<point x="106" y="419" type="curve" smooth="yes"/>
			<point x="120" y="419"/>
			<point x="129" y="412"/>
			<point x="134" y="372" type="curve" smooth="yes"/>
			<point x="148" y="266"/>
			<point x="156" y="155"/>
		</contour>
	</outline>
	<anchor name="aboveLC" x="294" y="495"/>
	<anchor name="belowLC" x="179" y="-20"/>
</glyph>
<glyph name="w" format="2">
	<unicode hex="0077"/>
	<advance width="727"/>
	<outline>
		<contour>
			<point x="157" y="-2" type="curve"/>
			<point x="164" y="-7" type="line"/>
			<point x="192" y="-4" type="line"/>
			<point x="296" y="113"/>
			<point x="393" y="298"/>
			<point x="439" y="390" type="curve"/>
			<point x="399" y="351" type="line"/>
			<point x="405" y="233"/>
			<point x="410" y="116"/>
			<point x="416" y="-2" type="curve"/>
			<point x="423" y="-7" type="line"/>
			<point x="451" y="-4" type="line"/>
			<point x="554" y="103"/>
			<point x="638" y="219"/>
			<point x="685" y="310" type="curve" smooth="yes"/>
			<point x="731" y="397"/>
			<point x="736" y="424"/>
			<point x="736" y="444" type="curve" smooth="yes"/>
			<point x="736" y="460"/>
			<point x="734" y="468"/>
			<point x="731" y="474" type="curve"/>
			<point x="725" y="481"/>
			<point x="714" y="486"/>
			<point x="698" y="487" type="curve" smooth="yes"/>
			<point x="667" y="487"/>
			<point x="639" y="466"/>
			<point x="639" y="416" type="curve" smooth="yes"/>
			<point x="639" y="407"/>
			<point x="640" y="388"/>
			<point x="643" y="376" type="curve" smooth="yes"/>
			<point x="659" y="305" type="line"/>
			<point x="662" y="365" type="line"/>
			<point x="656" y="353"/>
			<point x="652" y="344"/>
			<point x="645" y="331" type="curve" smooth="yes"/>
			<point x="592" y="234"/>
			<point x="544" y="164"/>
			<point x="471" y="73" type="curve"/>
			<point x="482" y="68" type="line"/>
			<point x="477" y="204"/>
			<point x="472" y="339"/>
			<point x="467" y="475" type="curve"/>
			<point x="428" y="475" type="line"/>
			<point x="361" y="317"/>
			<point x="286" y="184"/>
			<point x="206" y="72" type="curve"/>
			<point x="222" y="68" type="line"/>
			<point x="223" y="186"/>
			<point x="219" y="331"/>
			<point x="204" y="420" type="curve" smooth="yes"/>
			<point x="196" y="468"/>
			<point x="179" y="487"/>
			<point x="137" y="487" type="curve" smooth="yes"/>
			<point x="92" y="487"/>
			<point x="49" y="446"/>
			<point x="15" y="368" type="curve"/>
			<point x="38" y="352" type="line"/>
			<point x="70" y="401"/>
			<point x="87" y="419"/>
			<point x="106" y="419" type="curve" smooth="yes"/>
			<point x="121" y="419"/>
			<point x="130" y="414"/>
			<point x="135" y="374" type="curve" smooth="yes"/>
			<point x="148" y="274"/>
			<point x="156" y="160"/>
		</contour>
	</outline>
	<anchor name="aboveLC" x="444" y="494"/>
	<anchor name="belowLC" x="307" y="-20"/>
</glyph>
<glyph name="x" format="2">
	<unicode hex="0078"/>
	<advance width="517"/>
	<outline>
		<contour>
			<point x="347" y="-13" type="curve" smooth="yes"/>
			<point x="400" y="-13"/>
			<point x="459" y="38"/>
			<point x="507" y="109" type="curve"/>
			<point x="482" y="128" type="line"/>
			<point x="446" y="83"/>
			<point x="411" y="55"/>
			<point x="385" y="55" type="curve" smooth="yes"/>
			<point x="357" y="55"/>
			<point x="343" y="67"/>
			<point x="328" y="122" type="curve" smooth="yes"/>
			<point x="287" y="267" type="line"/>
			<point x="287" y="268" type="line"/>
			<point x="250" y="401" type="line" smooth="yes"/>
			<point x="232" y="465"/>
			<point x="212" y="487"/>
			<point x="174" y="487" type="curve" smooth="yes"/>
			<point x="132" y="487"/>
			<point x="86" y="451"/>
			<point x="50" y="369" type="curve"/>
			<point x="73" y="352" type="line"/>
			<point x="107" y="411"/>
			<point x="134" y="421"/>
			<point x="148" y="421" type="curve" smooth="yes"/>
			<point x="169" y="421"/>
			<point x="176" y="408"/>
			<point x="188" y="366" type="curve" smooth="yes"/>
			<point x="237" y="201" type="line"/>
			<point x="237" y="200" type="line"/>
			<point x="279" y="59" type="line" smooth="yes"/>
			<point x="296" y="1"/>
			<point x="317" y="-13"/>
		</contour>
		<contour>
			<point x="-23" y="58" type="curve"/>
			<point x="-19" y="10"/>
			<point x="18" y="-13"/>
			<point x="58" y="-13" type="curve" smooth="yes"/>
			<point x="85" y="-13"/>
			<point x="106" y="-5"/>
			<point x="128" y="21" type="curve" smooth="yes"/>
			<point x="171" y="71"/>
			<point x="216" y="140"/>
			<point x="269" y="228" type="curve"/>
			<point x="255" y="261" type="line"/>
			<point x="203" y="184"/>
			<point x="158" y="119"/>
			<point x="100" y="56" type="curve" smooth="yes"/>
			<point x="89" y="44"/>
			<point x="79" y="35"/>
			<point x="66" y="25" type="curve"/>
			<point x="66" y="11" type="line"/>
			<point x="96" y="11" type="line"/>
			<point x="69" y="58" type="line" smooth="yes"/>
			<point x="52" y="88"/>
			<point x="40" y="93"/>
			<point x="19" y="93" type="curve" smooth="yes"/>
			<point x="3" y="93"/>
			<point x="-19" y="81"/>
		</contour>
		<contour>
			<point x="274" y="220" type="line"/>
			<point x="320" y="288"/>
			<point x="368" y="352"/>
			<point x="423" y="413" type="curve" smooth="yes"/>
			<point x="435" y="427"/>
			<point x="448" y="439"/>
			<point x="461" y="449" type="curve"/>
			<point x="461" y="455" type="line"/>
			<point x="419" y="455" type="line"/>
			<point x="443" y="420" type="line" smooth="yes"/>
			<point x="462" y="392"/>
			<point x="478" y="387"/>
			<point x="498" y="387" type="curve" smooth="yes"/>
			<point x="520" y="387"/>
			<point x="538" y="406"/>
			<point x="538" y="434" type="curve"/>
			<point x="530" y="470"/>
			<point x="497" y="487"/>
			<point x="472" y="487" type="curve" smooth="yes"/>
			<point x="440" y="487"/>
			<point x="419" y="476"/>
			<point x="390" y="442" type="curve" smooth="yes"/>
			<point x="361" y="406"/>
			<point x="311" y="339"/>
			<point x="259" y="252" type="curve"/>
		</contour>
	</outline>
	<anchor name="aboveLC" x="315" y="494"/>
	<anchor name="belowLC" x="206" y="-20"/>
</glyph>
<glyph name="y" format="2">
	<unicode hex="0079"/>
	<advance width="476"/>
	<outline>
		<contour>
			<point x="-100" y="-182" type="curve"/>
			<point x="-97" y="-216"/>
			<point x="-73" y="-240"/>
			<point x="-29" y="-240" type="curve" smooth="yes"/>
			<point x="29" y="-240"/>
			<point x="87" y="-197"/>
			<point x="152" y="-126" type="curve" smooth="yes"/>
			<point x="194" y="-81"/>
			<point x="221" y="-39"/>
			<point x="247" y="0" type="curve" smooth="yes"/>
			<point x="302" y="83"/>
			<point x="344" y="160"/>
			<point x="381" y="226" type="curve" smooth="yes"/>
			<point x="419" y="294"/>
			<point x="440" y="335"/>
			<point x="461" y="378" type="curve" smooth="yes"/>
			<point x="481" y="418"/>
			<point x="486" y="433"/>
			<point x="486" y="459" type="curve" smooth="yes"/>
			<point x="486" y="479"/>
			<point x="472" y="493"/>
			<point x="449" y="493" type="curve" smooth="yes"/>
			<point x="421" y="493"/>
			<point x="406" y="472"/>
			<point x="373" y="357" type="curve" smooth="yes"/>
			<point x="339" y="239"/>
			<point x="303" y="164"/>
			<point x="228" y="28" type="curve"/>
			<point x="199" y="-20"/>
			<point x="166" y="-63"/>
			<point x="128" y="-101" type="curve" smooth="yes"/>
			<point x="86" y="-144"/>
			<point x="38" y="-177"/>
			<point x="-12" y="-202" type="curve"/>
			<point x="-12" y="-212" type="line"/>
			<point x="64" y="-192" type="line"/>
			<point x="35" y="-172" type="line" smooth="yes"/>
			<point x="6" y="-151"/>
			<point x="-17" y="-137"/>
			<point x="-46" y="-137" type="curve" smooth="yes"/>
			<point x="-74" y="-137"/>
			<point x="-95" y="-153"/>
		</contour>
		<contour>
			<point x="251" y="22" type="line"/>
			<point x="237" y="22" type="line"/>
			<point x="233" y="121"/>
			<point x="226" y="229"/>
			<point x="213" y="354" type="curve" smooth="yes"/>
			<point x="201" y="466"/>
			<point x="180" y="487"/>
			<point x="142" y="487" type="curve" smooth="yes"/>
			<point x="100" y="487"/>
			<point x="55" y="453"/>
			<point x="15" y="368" type="curve"/>
			<point x="38" y="352" type="line"/>
			<point x="74" y="406"/>
			<point x="88" y="418"/>
			<point x="105" y="418" type="curve" smooth="yes"/>
			<point x="123" y="418"/>
			<point x="128" y="404"/>
			<point x="144" y="277" type="curve" smooth="yes"/>
			<point x="161" y="142"/>
			<point x="173" y="74"/>
			<point x="181" y="-45" type="curve"/>
		</contour>
	</outline>
	<anchor name="aboveLC" x="291" y="494"/>
	<anchor name="belowLC" x="-15" y="-260"/>
</glyph>
<glyph name="z" format="2">
	<unicode hex="007A"/>
	<advance width="461"/>
	<outline>
		<contour>
			<point x="267" y="-23" type="curve" smooth="yes"/>
			<point x="343" y="-23"/>
			<point x="426" y="48"/>
			<point x="426" y="120" type="curve" smooth="yes"/>
			<point x="426" y="144"/>
			<point x="414" y="171"/>
			<point x="393" y="179" type="curve"/>
			<point x="365" y="176"/>
			<point x="344" y="157"/>
			<point x="344" y="126" type="curve" smooth="yes"/>
			<point x="344" y="104"/>
			<point x="356" y="87"/>
			<point x="384" y="53" type="curve"/>
			<point x="399" y="53" type="line"/>
			<point x="399" y="86" type="line"/>
			<point x="369" y="61"/>
			<point x="339" y="45"/>
			<point x="299" y="45" type="curve" smooth="yes"/>
			<point x="255" y="45"/>
			<point x="196" y="62"/>
			<point x="107" y="133" type="curve"/>
			<point x="81" y="100" type="line"/>
			<point x="155" y="3"/>
			<point x="205" y="-23"/>
		</contour>
		<contour>
			<point x="54" y="0" type="line"/>
			<point x="97" y="88" type="line"/>
			<point x="189" y="178"/>
			<point x="290" y="256"/>
			<point x="385" y="354" type="curve" smooth="yes"/>
			<point x="436" y="407"/>
			<point x="469" y="452"/>
			<point x="479" y="476" type="curve"/>
			<point x="467" y="486" type="line"/>
			<point x="412" y="474" type="line"/>
			<point x="369" y="390" type="line"/>
			<point x="274" y="287"/>
			<point x="167" y="201"/>
			<point x="71" y="107" type="curve" smooth="yes"/>
			<point x="29" y="66"/>
			<point x="9" y="35"/>
			<point x="-11" y="0" type="curve"/>
			<point x="-3" y="-6" type="line"/>
		</contour>
		<contour>
			<point x="50" y="284" type="line"/>
			<point x="91" y="278" type="line"/>
			<point x="146" y="457" type="line"/>
			<point x="92" y="424" type="line"/>
			<point x="205" y="399"/>
			<point x="270" y="382"/>
			<point x="363" y="351" type="curve"/>
			<point x="399" y="399" type="line"/>
			<point x="308" y="439"/>
			<point x="232" y="463"/>
			<point x="142" y="487" type="curve"/>
			<point x="73" y="432" type="line"/>
		</contour>
	</outline>
	<anchor name="aboveLC" x="282" y="494"/>
	<anchor name="belowLC" x="151" y="-20"/>
</glyph>
<glyph name="braceleft" format="2">
	<unicode hex="007B"/>
	<advance width="380"/>
	<outline>
		<contour>
			<point x="50" y="258" type="line"/>
			<point x="120" y="249"/>
			<point x="150" y="224"/>
			<point x="150" y="184" type="curve" smooth="yes"/>
			<point x="150" y="119"/>
			<point x="84" y="20"/>
			<point x="84" y="-68" type="curve" smooth="yes"/>
			<point x="84" y="-128"/>
			<point x="128" y="-159"/>
			<point x="209" y="-159" type="curve" smooth="yes"/>
			<point x="261" y="-159" type="line"/>
			<point x="269" y="-120" type="line"/>
			<point x="236" y="-117" type="line" smooth="yes"/>
			<point x="178" y="-112"/>
			<point x="152" y="-98"/>
			<point x="152" y="-60" type="curve" smooth="yes"/>
			<point x="152" y="0"/>
			<point x="199" y="138"/>
			<point x="199" y="193" type="curve" smooth="yes"/>
			<point x="199" y="247"/>
			<point x="166" y="281"/>
			<point x="89" y="283" type="curve"/>
			<point x="87" y="273" type="line"/>
			<point x="178" y="275"/>
			<point x="245" y="327"/>
			<point x="245" y="411" type="curve" smooth="yes"/>
			<point x="245" y="442"/>
			<point x="242" y="507"/>
			<point x="242" y="547" type="curve" smooth="yes"/>
			<point x="242" y="638"/>
			<point x="266" y="670"/>
			<point x="376" y="675" type="curve" smooth="yes"/>
			<point x="399" y="676" type="line"/>
			<point x="406" y="715" type="line"/>
			<point x="367" y="715" type="line" smooth="yes"/>
			<point x="230" y="715"/>
			<point x="175" y="659"/>
			<point x="175" y="552" type="curve" smooth="yes"/>
			<point x="175" y="503"/>
			<point x="190" y="453"/>
			<point x="190" y="420" type="curve" smooth="yes"/>
			<point x="190" y="352"/>
			<point x="154" y="310"/>
			<point x="58" y="298" type="curve"/>
		</contour>
	</outline>
</glyph>
<glyph name="asciitilde" format="2">
	<unicode hex="007E"/>
	<advance width="530"/>
	<outline>
		<contour>
			<point x="281" y="365" type="curve" smooth="yes"/>
			<point x="244" y="398"/>
			<point x="212" y="416"/>
			<point x="173" y="416" type="curve" smooth="yes"/>
			<point x="103" y="416"/>
			<point x="67" y="370"/>
			<point x="61" y="286" type="curve"/>
			<point x="107" y="278" type="line"/>
			<point x="115" y="344"/>
			<point x="141" y="364"/>
			<point x="167" y="364" type="curve" smooth="yes"/>
			<point x="193" y="364"/>
			<point x="216" y="353"/>
			<point x="246" y="325" type="curve" smooth="yes"/>
			<point x="283" y="292"/>
			<point x="315" y="274"/>
			<point x="354" y="274" type="curve" smooth="yes"/>
			<point x="424" y="274"/>
			<point x="460" y="320"/>
			<point x="466" y="404" type="curve"/>
			<point x="420" y="412" type="line"/>
			<point x="412" y="346"/>
			<point x="386" y="326"/>
			<point x="360" y="326" type="curve" smooth="yes"/>
			<point x="334" y="326"/>
			<point x="311" y="337"/>
		</contour>
	</outline>
</glyph>
<glyph name="cent" format="2">
	<unicode hex="00A2"/>
	<advance width="510"/>
	<outline>
		<contour>
			<point x="67" y="244" type="curve" smooth="yes"/>
			<point x="67" y="119"/>
			<point x="129" y="57"/>
			<point x="216" y="57" type="curve" smooth="yes"/>
			<point x="284" y="57"/>
			<point x="356" y="110"/>
			<point x="396" y="180" type="curve"/>
			<point x="373" y="198" type="line"/>
			<point x="346" y="164"/>
			<point x="305" y="125"/>
			<point x="243" y="125" type="curve" smooth="yes"/>
			<point x="185" y="125"/>
			<point x="140" y="167"/>
			<point x="140" y="254" type="curve" smooth="yes"/>
			<point x="140" y="391"/>
			<point x="221" y="512"/>
			<point x="303" y="512" type="curve" smooth="yes"/>
			<point x="344" y="512"/>
			<point x="372" y="501"/>
			<point x="407" y="483" type="curve"/>
			<point x="366" y="516" type="line"/>
			<point x="372" y="440" type="line" smooth="yes"/>
			<point x="375" y="399"/>
			<point x="389" y="379"/>
			<point x="419" y="379" type="curve" smooth="yes"/>
			<point x="438" y="379"/>
			<point x="458" y="392"/>
			<point x="458" y="428" type="curve" smooth="yes"/>
			<point x="458" y="511"/>
			<point x="390" y="557"/>
			<point x="313" y="557" type="curve" smooth="yes"/>
			<point x="195" y="557"/>
			<point x="67" y="413"/>
		</contour>
		<contour>
			<point x="215" y="-45" type="line"/>
			<point x="359" y="660" type="line"/>
			<point x="323" y="660" type="line"/>
			<point x="179" y="-45" type="line"/>
		</contour>
	</outline>
</glyph>
<glyph name="sterling" format="2">
	<unicode hex="00A3"/>
	<advance width="510"/>
	<outline>
		<contour>
			<point x="-15" y="0" type="line"/>
			<point x="394" y="0" type="line"/>
			<point x="410" y="80" type="line"/>
			<point x="57" y="80" type="line"/>
			<point x="57" y="64" type="line"/>
			<point x="156" y="126"/>
			<point x="224" y="216"/>
			<point x="224" y="309" type="curve" smooth="yes"/>
			<point x="224" y="361"/>
			<point x="198" y="392"/>
			<point x="198" y="474" type="curve" smooth="yes"/>
			<point x="198" y="546"/>
			<point x="246" y="615"/>
			<point x="333" y="615" type="curve" smooth="yes"/>
			<point x="365" y="615"/>
			<point x="399" y="611"/>
			<point x="439" y="593" type="curve"/>
			<point x="379" y="624" type="line"/>
			<point x="386" y="536" type="line" smooth="yes"/>
			<point x="390" y="486"/>
			<point x="405" y="470"/>
			<point x="436" y="470" type="curve" smooth="yes"/>
			<point x="453" y="470"/>
			<point x="468" y="479"/>
			<point x="480" y="500" type="curve"/>
			<point x="480" y="607"/>
			<point x="421" y="660"/>
			<point x="317" y="660" type="curve" smooth="yes"/>
			<point x="197" y="660"/>
			<point x="113" y="575"/>
			<point x="113" y="478" type="curve" smooth="yes"/>
			<point x="113" y="406"/>
			<point x="161" y="362"/>
			<point x="161" y="307" type="curve" smooth="yes"/>
			<point x="161" y="205"/>
			<point x="95" y="120"/>
			<point x="-3" y="57" type="curve"/>
		</contour>
		<contour>
			<point x="49" y="285" type="line"/>
			<point x="355" y="285" type="line"/>
			<point x="365" y="335" type="line"/>
			<point x="59" y="335" type="line"/>
		</contour>
	</outline>
</glyph>
<glyph name="currency" format="2">
	<unicode hex="00A4"/>
	<advance width="511"/>
	<outline>
		<contour>
			<point x="387" y="428" type="line"/>
			<point x="435" y="456" type="line" smooth="yes"/>
			<point x="480" y="483"/>
			<point x="492" y="497"/>
			<point x="492" y="514" type="curve" smooth="yes"/>
			<point x="492" y="534"/>
			<point x="476" y="551"/>
			<point x="456" y="551" type="curve" smooth="yes"/>
			<point x="438" y="551"/>
			<point x="424" y="538"/>
			<point x="397" y="493" type="curve" smooth="yes"/>
			<point x="369" y="446" type="line"/>
		</contour>
		<contour>
			<point x="162" y="329" type="curve" smooth="yes"/>
			<point x="162" y="395"/>
			<point x="211" y="441"/>
			<point x="270" y="441" type="curve" smooth="yes"/>
			<point x="329" y="441"/>
			<point x="378" y="395"/>
			<point x="378" y="329" type="curve" smooth="yes"/>
			<point x="378" y="263"/>
			<point x="329" y="217"/>
			<point x="270" y="217" type="curve" smooth="yes"/>
			<point x="211" y="217"/>
			<point x="162" y="263"/>
		</contour>
		<contour>
			<point x="105" y="329" type="curve" smooth="yes"/>
			<point x="105" y="232"/>
			<point x="181" y="166"/>
			<point x="270" y="166" type="curve" smooth="yes"/>
			<point x="359" y="166"/>
			<point x="435" y="232"/>
			<point x="435" y="329" type="curve" smooth="yes"/>
			<point x="435" y="426"/>
			<point x="359" y="491"/>
			<point x="270" y="491" type="curve" smooth="yes"/>
			<point x="181" y="491"/>
			<point x="105" y="426"/>
		</contour>
		<contour>
			<point x="171" y="446" type="line"/>
			<point x="143" y="493" type="line" smooth="yes"/>
			<point x="117" y="538"/>
			<point x="102" y="551"/>
			<point x="85" y="551" type="curve" smooth="yes"/>
			<point x="65" y="551"/>
			<point x="49" y="534"/>
			<point x="49" y="514" type="curve" smooth="yes"/>
			<point x="49" y="497"/>
			<point x="61" y="483"/>
			<point x="106" y="456" type="curve" smooth="yes"/>
			<point x="153" y="428" type="line"/>
		</contour>
		<contour>
			<point x="153" y="230" type="line"/>
			<point x="106" y="202" type="line" smooth="yes"/>
			<point x="61" y="175"/>
			<point x="49" y="161"/>
			<point x="49" y="143" type="curve" smooth="yes"/>
			<point x="49" y="123"/>
			<point x="65" y="107"/>
			<point x="85" y="107" type="curve" smooth="yes"/>
			<point x="102" y="107"/>
			<point x="117" y="120"/>
			<point x="143" y="165" type="curve" smooth="yes"/>
			<point x="171" y="212" type="line"/>
		</contour>
		<contour>
			<point x="369" y="212" type="line"/>
			<point x="397" y="165" type="line" smooth="yes"/>
			<point x="424" y="120"/>
			<point x="438" y="107"/>
			<point x="456" y="107" type="curve" smooth="yes"/>
			<point x="476" y="107"/>
			<point x="492" y="123"/>
			<point x="492" y="143" type="curve" smooth="yes"/>
			<point x="492" y="161"/>
			<point x="480" y="175"/>
			<point x="435" y="202" type="curve" smooth="yes"/>
			<point x="387" y="230" type="line"/>
		</contour>
	</outline>
</glyph>
<glyph name="yen" format="2">
	<unicode hex="00A5"/>
	<advance width="511"/>
	<outline>
		<contour>
			<point x="23" y="143" type="line"/>
			<point x="420" y="143" type="line"/>
			<point x="430" y="193" type="line"/>
			<point x="34" y="193" type="line"/>
		</contour>
		<contour>
			<point x="48" y="0" type="line"/>
			<point x="332" y="0" type="line"/>
			<point x="340" y="39" type="line"/>
			<point x="211" y="53" type="line"/>
			<point x="191" y="53" type="line"/>
			<point x="56" y="39" type="line"/>
		</contour>
		<contour>
			<point x="49" y="270" type="line"/>
			<point x="446" y="270" type="line"/>
			<point x="456" y="320" type="line"/>
			<point x="60" y="320" type="line"/>
		</contour>
		<contour>
			<point x="155" y="0" type="line"/>
			<point x="233" y="0" type="line"/>
			<point x="246" y="72"/>
			<point x="256" y="128"/>
			<point x="293" y="311" type="curve"/>
			<point x="218" y="311" type="line"/>
		</contour>
		<contour>
			<point x="157" y="593" type="line"/>
			<point x="167" y="593" type="line"/>
			<point x="283" y="608" type="line"/>
			<point x="291" y="647" type="line"/>
			<point x="55" y="647" type="line"/>
			<point x="47" y="608" type="line"/>
		</contour>
		<contour>
			<point x="226" y="239" type="line"/>
			<point x="264" y="239" type="line"/>
			<point x="523" y="647" type="line"/>
			<point x="471" y="647" type="line"/>
			<point x="271" y="325" type="line"/>
			<point x="269" y="322" type="line"/>
			<point x="275" y="322" type="line"/>
			<point x="188" y="647" type="line"/>
			<point x="105" y="647" type="line"/>
		</contour>
		<contour>
			<point x="469" y="593" type="line"/>
			<point x="474" y="593" type="line"/>
			<point x="562" y="608" type="line"/>
			<point x="570" y="647" type="line"/>
			<point x="382" y="647" type="line"/>
			<point x="374" y="608" type="line"/>
		</contour>
	</outline>
</glyph>
<glyph name="brokenbar" format="2">
	<unicode hex="00A6"/>
	<advance width="291"/>
	<outline>
		<contour>
			<point x="115" y="-250" type="line"/>
			<point x="172" y="-250" type="line"/>
			<point x="172" y="200" type="line"/>
			<point x="115" y="200" type="line"/>
		</contour>
		<contour>
			<point x="172" y="320" type="line"/>
			<point x="172" y="750" type="line"/>
			<point x="115" y="750" type="line"/>
			<point x="115" y="320" type="line"/>
		</contour>
	</outline>
</glyph>
<glyph name="section" format="2">
	<unicode hex="00A7"/>
	<advance width="465"/>
	<outline>
		<contour>
			<point x="159" y="-111" type="curve" smooth="yes"/>
			<point x="259" y="-111"/>
			<point x="327" y="-51"/>
			<point x="327" y="30" type="curve" smooth="yes"/>
			<point x="327" y="88"/>
			<point x="307" y="114"/>
			<point x="245" y="160" type="curve" smooth="yes"/>
			<point x="195" y="197" type="line" smooth="yes"/>
			<point x="141" y="237"/>
			<point x="122" y="260"/>
			<point x="122" y="300" type="curve" smooth="yes"/>
			<point x="122" y="358"/>
			<point x="159" y="409"/>
			<point x="274" y="414" type="curve"/>
			<point x="265" y="453" type="line"/>
			<point x="265" y="443" type="line"/>
			<point x="125" y="440"/>
			<point x="59" y="365"/>
			<point x="59" y="285" type="curve" smooth="yes"/>
			<point x="59" y="220"/>
			<point x="94" y="185"/>
			<point x="146" y="147" type="curve" smooth="yes"/>
			<point x="194" y="111" type="line" smooth="yes"/>
			<point x="248" y="72"/>
			<point x="258" y="48"/>
			<point x="258" y="16" type="curve" smooth="yes"/>
			<point x="258" y="-39"/>
			<point x="215" y="-75"/>
			<point x="144" y="-75" type="curve" smooth="yes"/>
			<point x="127" y="-75"/>
			<point x="119" y="-73"/>
			<point x="98" y="-67" type="curve"/>
			<point x="135" y="-101" type="line"/>
			<point x="119" y="-32" type="line" smooth="yes"/>
			<point x="113" y="-5"/>
			<point x="99" y="11"/>
			<point x="71" y="11" type="curve" smooth="yes"/>
			<point x="55" y="11"/>
			<point x="39" y="0"/>
			<point x="34" y="-16" type="curve"/>
			<point x="42" y="-74"/>
			<point x="85" y="-111"/>
		</contour>
		<contour>
			<point x="323" y="686" type="curve" smooth="yes"/>
			<point x="230" y="686"/>
			<point x="171" y="623"/>
			<point x="171" y="546" type="curve" smooth="yes"/>
			<point x="171" y="487"/>
			<point x="210" y="454"/>
			<point x="249" y="424" type="curve" smooth="yes"/>
			<point x="311" y="377" type="line" smooth="yes"/>
			<point x="362" y="339"/>
			<point x="371" y="315"/>
			<point x="371" y="278" type="curve" smooth="yes"/>
			<point x="371" y="222"/>
			<point x="323" y="179"/>
			<point x="213" y="174" type="curve"/>
			<point x="222" y="133" type="line"/>
			<point x="222" y="145" type="line"/>
			<point x="364" y="148"/>
			<point x="437" y="213"/>
			<point x="437" y="298" type="curve" smooth="yes"/>
			<point x="437" y="357"/>
			<point x="414" y="387"/>
			<point x="363" y="425" type="curve" smooth="yes"/>
			<point x="315" y="461" type="line" smooth="yes"/>
			<point x="258" y="503"/>
			<point x="238" y="520"/>
			<point x="238" y="564" type="curve" smooth="yes"/>
			<point x="238" y="610"/>
			<point x="268" y="651"/>
			<point x="337" y="651" type="curve" smooth="yes"/>
			<point x="353" y="651"/>
			<point x="363" y="649"/>
			<point x="374" y="646" type="curve"/>
			<point x="343" y="673" type="line"/>
			<point x="361" y="616" type="line" smooth="yes"/>
			<point x="371" y="586"/>
			<point x="388" y="570"/>
			<point x="411" y="570" type="curve" smooth="yes"/>
			<point x="430" y="570"/>
			<point x="444" y="578"/>
			<point x="450" y="597" type="curve"/>
			<point x="435" y="662"/>
			<point x="390" y="686"/>
		</contour>
	</outline>
</glyph>
<glyph name="copyright" format="2">
	<unicode hex="00A9"/>
	<advance width="776"/>
	<outline>
		<contour>
			<point x="378" y="-15" type="curve" smooth="yes"/>
			<point x="575" y="-15"/>
			<point x="757" y="130"/>
			<point x="757" y="375" type="curve" smooth="yes"/>
			<point x="757" y="570"/>
			<point x="623" y="685"/>
			<point x="436" y="685" type="curve" smooth="yes"/>
			<point x="239" y="685"/>
			<point x="57" y="539"/>
			<point x="57" y="294" type="curve" smooth="yes"/>
			<point x="57" y="99"/>
			<point x="191" y="-15"/>
		</contour>
		<contour>
			<point x="374" y="24" type="curve" smooth="yes"/>
			<point x="219" y="24"/>
			<point x="107" y="125"/>
			<point x="107" y="299" type="curve" smooth="yes"/>
			<point x="107" y="515"/>
			<point x="265" y="646"/>
			<point x="440" y="646" type="curve" smooth="yes"/>
			<point x="595" y="646"/>
			<point x="707" y="544"/>
			<point x="707" y="371" type="curve" smooth="yes"/>
			<point x="707" y="153"/>
			<point x="550" y="24"/>
		</contour>
		<contour>
			<point x="402" y="135" type="curve" smooth="yes"/>
			<point x="443" y="135"/>
			<point x="475" y="147"/>
			<point x="506" y="161" type="curve"/>
			<point x="522" y="254" type="line"/>
			<point x="478" y="254" type="line"/>
			<point x="450" y="161" type="line"/>
			<point x="493" y="193" type="line"/>
			<point x="468" y="180"/>
			<point x="441" y="172"/>
			<point x="413" y="172" type="curve" smooth="yes"/>
			<point x="350" y="172"/>
			<point x="292" y="219"/>
			<point x="292" y="320" type="curve" smooth="yes"/>
			<point x="292" y="422"/>
			<point x="349" y="504"/>
			<point x="446" y="504" type="curve" smooth="yes"/>
			<point x="480" y="504"/>
			<point x="512" y="495"/>
			<point x="532" y="479" type="curve"/>
			<point x="499" y="510" type="line"/>
			<point x="499" y="420" type="line"/>
			<point x="541" y="420" type="line"/>
			<point x="554" y="510" type="line"/>
			<point x="518" y="534"/>
			<point x="488" y="541"/>
			<point x="451" y="541" type="curve" smooth="yes"/>
			<point x="325" y="541"/>
			<point x="232" y="443"/>
			<point x="232" y="314" type="curve" smooth="yes"/>
			<point x="232" y="206"/>
			<point x="303" y="135"/>
		</contour>
	</outline>
</glyph>
<glyph name="registered" format="2">
	<unicode hex="00AE"/>
	<advance width="463"/>
	<outline>
		<contour>
			<point x="380" y="419" type="curve"/>
			<point x="383" y="434" type="line"/>
			<point x="341" y="439" type="line"/>
			<point x="360" y="427" type="line"/>
			<point x="341" y="480" type="line" smooth="yes"/>
			<point x="332" y="505"/>
			<point x="319" y="517"/>
			<point x="296" y="517" type="curve"/>
			<point x="286" y="511" type="line"/>
			<point x="346" y="511"/>
			<point x="373" y="534"/>
			<point x="373" y="569" type="curve" smooth="yes"/>
			<point x="373" y="603"/>
			<point x="349" y="620"/>
			<point x="311" y="620" type="curve" smooth="yes"/>
			<point x="278" y="620" type="line"/>
			<point x="275" y="603" type="line"/>
			<point x="310" y="603" type="line" smooth="yes"/>
			<point x="327" y="603"/>
			<point x="335" y="594"/>
			<point x="335" y="571" type="curve" smooth="yes"/>
			<point x="335" y="543"/>
			<point x="320" y="525"/>
			<point x="289" y="525" type="curve" smooth="yes"/>
			<point x="259" y="525" type="line"/>
			<point x="257" y="508" type="line"/>
			<point x="277" y="508" type="line" smooth="yes"/>
			<point x="291" y="508"/>
			<point x="294" y="502"/>
			<point x="300" y="482" type="curve" smooth="yes"/>
			<point x="313" y="442" type="line" smooth="yes"/>
			<point x="319" y="421"/>
			<point x="327" y="416"/>
			<point x="349" y="416" type="curve" smooth="yes"/>
			<point x="359" y="416"/>
			<point x="367" y="416"/>
		</contour>
		<contour>
			<point x="183" y="419" type="line"/>
			<point x="275" y="419" type="line"/>
			<point x="278" y="434" type="line"/>
			<point x="237" y="439" type="line"/>
			<point x="229" y="439" type="line"/>
			<point x="186" y="434" type="line"/>
		</contour>
		<contour>
			<point x="221" y="605" type="line"/>
			<point x="262" y="600" type="line"/>
			<point x="266" y="600" type="line"/>
			<point x="270" y="620" type="line"/>
			<point x="224" y="620" type="line"/>
		</contour>
		<contour>
			<point x="270" y="317" type="curve" smooth="yes"/>
			<point x="381" y="317"/>
			<point x="484" y="399"/>
			<point x="484" y="538" type="curve" smooth="yes"/>
			<point x="484" y="647"/>
			<point x="408" y="712"/>
			<point x="303" y="712" type="curve" smooth="yes"/>
			<point x="192" y="712"/>
			<point x="89" y="629"/>
			<point x="89" y="492" type="curve" smooth="yes"/>
			<point x="89" y="381"/>
			<point x="165" y="317"/>
		</contour>
		<contour>
			<point x="268" y="347" type="curve" smooth="yes"/>
			<point x="186" y="347"/>
			<point x="127" y="401"/>
			<point x="127" y="494" type="curve" smooth="yes"/>
			<point x="127" y="611"/>
			<point x="211" y="682"/>
			<point x="306" y="682" type="curve" smooth="yes"/>
			<point x="386" y="682"/>
			<point x="446" y="627"/>
			<point x="446" y="535" type="curve" smooth="yes"/>
			<point x="446" y="417"/>
			<point x="362" y="347"/>
		</contour>
		<contour>
			<point x="209" y="419" type="line"/>
			<point x="250" y="419" type="line"/>
			<point x="291" y="620" type="line"/>
			<point x="250" y="620" type="line"/>
		</contour>
	</outline>
</glyph>
<glyph name="degree" format="2">
	<unicode hex="00B0"/>
	<advance width="328"/>
	<outline>
		<contour>
			<point x="227" y="464" type="curve" smooth="yes"/>
			<point x="179" y="464"/>
			<point x="142" y="504"/>
			<point x="142" y="556" type="curve" smooth="yes"/>
			<point x="142" y="608"/>
			<point x="179" y="650"/>
			<point x="227" y="650" type="curve" smooth="yes"/>
			<point x="275" y="650"/>
			<point x="312" y="608"/>
			<point x="312" y="556" type="curve" smooth="yes"/>
			<point x="312" y="504"/>
			<point x="275" y="464"/>
		</contour>
		<contour>
			<point x="227" y="429" type="curve" smooth="yes"/>
			<point x="296" y="429"/>
			<point x="354" y="478"/>
			<point x="354" y="556" type="curve" smooth="yes"/>
			<point x="354" y="634"/>
			<point x="296" y="685"/>
			<point x="227" y="685" type="curve" smooth="yes"/>
			<point x="158" y="685"/>
			<point x="100" y="634"/>
			<point x="100" y="556" type="curve" smooth="yes"/>
			<point x="100" y="478"/>
			<point x="158" y="429"/>
		</contour>
	</outline>
</glyph>
<glyph name="plusminus" format="2">
	<unicode hex="00B1"/>
	<advance width="530"/>
	<outline>
		<contour>
			<point x="235" y="112" type="line"/>
			<point x="291" y="112" type="line"/>
			<point x="291" y="544" type="line"/>
			<point x="235" y="544" type="line"/>
		</contour>
		<contour>
			<point x="485" y="304" type="line"/>
			<point x="485" y="357" type="line"/>
			<point x="41" y="357" type="line"/>
			<point x="41" y="304" type="line"/>
		</contour>
		<contour>
			<point x="485" y="0" type="line"/>
			<point x="485" y="53" type="line"/>
			<point x="41" y="53" type="line"/>
			<point x="41" y="0" type="line"/>
		</contour>
	</outline>
</glyph>
<glyph name="two.sups" format="2">
	<unicode hex="00B2"/>
	<advance width="346"/>
	<outline>
		<contour>
			<point x="83" y="426" type="line"/>
			<point x="334" y="426" type="line"/>
			<point x="347" y="488" type="line"/>
			<point x="137" y="488" type="line"/>
			<point x="141" y="481" type="line"/>
			<point x="325" y="635"/>
			<point x="382" y="673"/>
			<point x="382" y="738" type="curve" smooth="yes"/>
			<point x="382" y="792"/>
			<point x="348" y="832"/>
			<point x="273" y="832" type="curve" smooth="yes"/>
			<point x="200" y="832"/>
			<point x="149" y="804"/>
			<point x="131" y="727" type="curve"/>
			<point x="133" y="707"/>
			<point x="145" y="695"/>
			<point x="162" y="695" type="curve" smooth="yes"/>
			<point x="184" y="695"/>
			<point x="197" y="707"/>
			<point x="200" y="749" type="curve" smooth="yes"/>
			<point x="205" y="811" type="line"/>
			<point x="176" y="771" type="line"/>
			<point x="196" y="792"/>
			<point x="221" y="800"/>
			<point x="247" y="800" type="curve" smooth="yes"/>
			<point x="288" y="800"/>
			<point x="311" y="778"/>
			<point x="311" y="734" type="curve" smooth="yes"/>
			<point x="311" y="686"/>
			<point x="280" y="643"/>
			<point x="92" y="473" type="curve"/>
		</contour>
	</outline>
</glyph>
<glyph name="three.sups" format="2">
	<unicode hex="00B3"/>
	<advance width="346"/>
	<outline>
		<contour>
			<point x="205" y="417" type="curve" smooth="yes"/>
			<point x="290" y="417"/>
			<point x="358" y="461"/>
			<point x="358" y="533" type="curve" smooth="yes"/>
			<point x="358" y="591"/>
			<point x="323" y="623"/>
			<point x="247" y="631" type="curve"/>
			<point x="245" y="622" type="line"/>
			<point x="327" y="634"/>
			<point x="377" y="679"/>
			<point x="377" y="739" type="curve" smooth="yes"/>
			<point x="377" y="791"/>
			<point x="341" y="832"/>
			<point x="266" y="832" type="curve" smooth="yes"/>
			<point x="195" y="832"/>
			<point x="149" y="797"/>
			<point x="141" y="736" type="curve"/>
			<point x="145" y="724"/>
			<point x="158" y="715"/>
			<point x="171" y="715" type="curve" smooth="yes"/>
			<point x="190" y="715"/>
			<point x="203" y="729"/>
			<point x="206" y="755" type="curve" smooth="yes"/>
			<point x="214" y="813" type="line"/>
			<point x="190" y="787" type="line"/>
			<point x="209" y="797"/>
			<point x="230" y="802"/>
			<point x="250" y="802" type="curve" smooth="yes"/>
			<point x="286" y="802"/>
			<point x="312" y="782"/>
			<point x="312" y="736" type="curve" smooth="yes"/>
			<point x="312" y="672"/>
			<point x="265" y="641"/>
			<point x="195" y="641" type="curve"/>
			<point x="190" y="611" type="line"/>
			<point x="258" y="611"/>
			<point x="287" y="587"/>
			<point x="287" y="538" type="curve" smooth="yes"/>
			<point x="287" y="477"/>
			<point x="244" y="447"/>
			<point x="196" y="447" type="curve" smooth="yes"/>
			<point x="170" y="447"/>
			<point x="150" y="453"/>
			<point x="130" y="466" type="curve"/>
			<point x="155" y="440" type="line"/>
			<point x="154" y="500" type="line" smooth="yes"/>
			<point x="153" y="532"/>
			<point x="142" y="545"/>
			<point x="122" y="545" type="curve" smooth="yes"/>
			<point x="109" y="545"/>
			<point x="98" y="538"/>
			<point x="91" y="522" type="curve"/>
			<point x="91" y="448"/>
			<point x="136" y="417"/>
		</contour>
	</outline>
</glyph>
<glyph name="paragraph" format="2">
	<unicode hex="00B6"/>
	<advance width="597"/>
	<outline>
		<contour>
			<point x="523" y="670" type="line"/>
			<point x="513" y="614" type="line"/>
			<point x="518" y="614" type="line"/>
			<point x="651" y="629" type="line"/>
			<point x="658" y="670" type="line"/>
		</contour>
		<contour>
			<point x="342" y="-130" type="line"/>
			<point x="419" y="-130" type="line"/>
			<point x="435" y="-27"/>
			<point x="454" y="77"/>
			<point x="473" y="180" type="curve" smooth="yes"/>
			<point x="564" y="670" type="line"/>
			<point x="490" y="670" type="line"/>
		</contour>
		<contour>
			<point x="414" y="623" type="line"/>
			<point x="515" y="623" type="line"/>
			<point x="523" y="670" type="line"/>
			<point x="449" y="670" type="line" smooth="yes"/>
			<point x="201" y="670"/>
			<point x="79" y="551"/>
			<point x="79" y="372" type="curve" smooth="yes"/>
			<point x="79" y="242"/>
			<point x="181" y="171"/>
			<point x="326" y="150" type="curve"/>
		</contour>
	</outline>
</glyph>
<glyph name="one.sups" format="2">
	<unicode hex="00B9"/>
	<advance width="346"/>
	<outline>
		<contour>
			<point x="93" y="426" type="line"/>
			<point x="327" y="426" type="line"/>
			<point x="332" y="452" type="line"/>
			<point x="236" y="463" type="line"/>
			<point x="195" y="463" type="line"/>
			<point x="99" y="452" type="line"/>
		</contour>
		<contour>
			<point x="173" y="426" type="line"/>
			<point x="239" y="426" type="line"/>
			<point x="304" y="737" type="line"/>
			<point x="325" y="826" type="line"/>
			<point x="318" y="832" type="line"/>
			<point x="171" y="797" type="line"/>
			<point x="165" y="771" type="line"/>
			<point x="262" y="777" type="line"/>
			<point x="247" y="794" type="line"/>
		</contour>
	</outline>
</glyph>
<glyph name="AE" format="2">
	<unicode hex="00C6"/>
	<advance width="880"/>
	<outline>
		<contour>
			<point x="417" y="0" type="line"/>
			<point x="790" y="0" type="line"/>
			<point x="829" y="178" type="line"/>
			<point x="779" y="178" type="line"/>
			<point x="716" y="0" type="line"/>
			<point x="771" y="50" type="line"/>
			<point x="427" y="50" type="line"/>
		</contour>
		<contour>
			<point x="793" y="492" type="line"/>
			<point x="843" y="492" type="line"/>
			<point x="867" y="670" type="line"/>
			<point x="541" y="670" type="line"/>
			<point x="531" y="620" type="line"/>
			<point x="825" y="620" type="line"/>
			<point x="793" y="670" type="line"/>
		</contour>
		<contour>
			<point x="-56" y="0" type="line"/>
			<point x="168" y="0" type="line"/>
			<point x="176" y="40" type="line"/>
			<point x="77" y="55" type="line"/>
			<point x="59" y="55" type="line"/>
			<point x="-48" y="40" type="line"/>
		</contour>
		<contour>
			<point x="376" y="0" type="line"/>
			<point x="464" y="0" type="line"/>
			<point x="480" y="103"/>
			<point x="498" y="207"/>
			<point x="517" y="310" type="curve" smooth="yes"/>
			<point x="585" y="670" type="line"/>
			<point x="497" y="670" type="line"/>
			<point x="481" y="567"/>
			<point x="463" y="463"/>
			<point x="444" y="360" type="curve" smooth="yes"/>
		</contour>
		<contour>
			<point x="672" y="224" type="line"/>
			<point x="714" y="224" type="line"/>
			<point x="759" y="461" type="line"/>
			<point x="717" y="461" type="line"/>
			<point x="679" y="355" type="line"/>
			<point x="676" y="335" type="line"/>
		</contour>
		<contour>
			<point x="291" y="0" type="line"/>
			<point x="417" y="0" type="line"/>
			<point x="427" y="55" type="line"/>
			<point x="421" y="55" type="line"/>
			<point x="299" y="40" type="line"/>
		</contour>
		<contour>
			<point x="347" y="630" type="line"/>
			<point x="468" y="615" type="line"/>
			<point x="530" y="615" type="line"/>
			<point x="541" y="670" type="line"/>
			<point x="355" y="670" type="line"/>
		</contour>
		<contour>
			<point x="4" y="0" type="line"/>
			<point x="61" y="0" type="line"/>
			<point x="522" y="670" type="line"/>
			<point x="471" y="670" type="line"/>
		</contour>
		<contour>
			<point x="202" y="244" type="line"/>
			<point x="463" y="244" type="line"/>
			<point x="472" y="290" type="line"/>
			<point x="233" y="290" type="line"/>
		</contour>
		<contour>
			<point x="479" y="319" type="line"/>
			<point x="704" y="319" type="line"/>
			<point x="712" y="365" type="line"/>
			<point x="488" y="365" type="line"/>
		</contour>
	</outline>
	<anchor name="aboveUC" x="640" y="690"/>
</glyph>
<glyph name="Idieresis" format="2">
	<unicode hex="00CF"/>
	<advance width="357"/>
	<outline>
		<contour>
			<point x="177" y="749" type="curve" smooth="yes"/>
			<point x="207" y="749"/>
			<point x="232" y="773"/>
			<point x="232" y="807" type="curve" smooth="yes"/>
			<point x="232" y="832"/>
			<point x="213" y="851"/>
			<point x="187" y="851" type="curve" smooth="yes"/>
			<point x="159" y="851"/>
			<point x="132" y="828"/>
			<point x="132" y="794" type="curve" smooth="yes"/>
			<point x="132" y="766"/>
			<point x="153" y="749"/>
		</contour>
		<contour>
			<point x="355" y="749" type="curve" smooth="yes"/>
			<point x="386" y="749"/>
			<point x="411" y="773"/>
			<point x="411" y="807" type="curve" smooth="yes"/>
			<point x="411" y="832"/>
			<point x="392" y="851"/>
			<point x="366" y="851" type="curve" smooth="yes"/>
			<point x="338" y="851"/>
			<point x="312" y="828"/>
			<point x="312" y="794" type="curve" smooth="yes"/>
			<point x="312" y="766"/>
			<point x="333" y="749"/>
		</contour>
		<component base="I"/>
	</outline>
</glyph>
<glyph name="multiply" format="2">
	<unicode hex="00D7"/>
	<advance width="530"/>
	<outline>
		<contour>
			<point x="434" y="121" type="line"/>
			<point x="472" y="159" type="line"/>
			<point x="92" y="539" type="line"/>
			<point x="54" y="501" type="line"/>
		</contour>
		<contour>
			<point x="472" y="501" type="line"/>
			<point x="434" y="539" type="line"/>
			<point x="54" y="159" type="line"/>
			<point x="92" y="121" type="line"/>
		</contour>
	</outline>
</glyph>
<glyph name="Oslash" format="2">
	<unicode hex="00D8"/>
	<advance width="660"/>
	<outline>
		<contour>
			<point x="673" y="657" type="line"/>
			<point x="636" y="690" type="line"/>
			<point x="-11" y="13" type="line"/>
			<point x="26" y="-20" type="line"/>
		</contour>
		<contour>
			<point x="284" y="-14" type="curve" smooth="yes"/>
			<point x="486" y="-14"/>
			<point x="636" y="179"/>
			<point x="636" y="409" type="curve" smooth="yes"/>
			<point x="636" y="571"/>
			<point x="543" y="684"/>
			<point x="397" y="684" type="curve" smooth="yes"/>
			<point x="200" y="684"/>
			<point x="48" y="491"/>
			<point x="48" y="259" type="curve" smooth="yes"/>
			<point x="48" y="90"/>
			<point x="142" y="-14"/>
		</contour>
		<contour>
			<point x="296" y="35" type="curve" smooth="yes"/>
			<point x="189" y="35"/>
			<point x="134" y="106"/>
			<point x="134" y="264" type="curve" smooth="yes"/>
			<point x="134" y="472"/>
			<point x="245" y="635"/>
			<point x="387" y="635" type="curve" smooth="yes"/>
			<point x="496" y="635"/>
			<point x="550" y="567"/>
			<point x="550" y="405" type="curve" smooth="yes"/>
			<point x="550" y="198"/>
			<point x="439" y="35"/>
		</contour>
	</outline>
	<anchor name="aboveUC" x="399" y="690"/>
</glyph>
<glyph name="Thorn" format="2">
	<unicode hex="00DE"/>
	<advance width="562"/>
	<outline>
		<contour>
			<point x="153" y="155" type="line"/>
			<point x="255" y="155" type="line" smooth="yes"/>
			<point x="439" y="155"/>
			<point x="546" y="241"/>
			<point x="546" y="365" type="curve" smooth="yes"/>
			<point x="546" y="469"/>
			<point x="468" y="535"/>
			<point x="311" y="535" type="curve" smooth="yes"/>
			<point x="228" y="535" type="line"/>
			<point x="219" y="489" type="line"/>
			<point x="304" y="489" type="line" smooth="yes"/>
			<point x="408" y="489"/>
			<point x="455" y="447"/>
			<point x="455" y="363" type="curve" smooth="yes"/>
			<point x="455" y="268"/>
			<point x="392" y="201"/>
			<point x="263" y="201" type="curve" smooth="yes"/>
			<point x="162" y="201" type="line"/>
		</contour>
		<contour>
			<point x="-3" y="0" type="line"/>
			<point x="263" y="0" type="line"/>
			<point x="271" y="40" type="line"/>
			<point x="151" y="55" type="line"/>
			<point x="133" y="55" type="line"/>
			<point x="6" y="40" type="line"/>
		</contour>
		<contour>
			<point x="82" y="0" type="line"/>
			<point x="172" y="0" type="line"/>
			<point x="188" y="103"/>
			<point x="206" y="207"/>
			<point x="225" y="310" type="curve" smooth="yes"/>
			<point x="293" y="670" type="line"/>
			<point x="203" y="670" type="line"/>
			<point x="187" y="567"/>
			<point x="169" y="463"/>
			<point x="150" y="360" type="curve" smooth="yes"/>
		</contour>
		<contour>
			<point x="104" y="629" type="line"/>
			<point x="225" y="614" type="line"/>
			<point x="244" y="614" type="line"/>
			<point x="369" y="629" type="line"/>
			<point x="377" y="670" type="line"/>
			<point x="112" y="670" type="line"/>
		</contour>
	</outline>
</glyph>
<glyph name="germandbls" format="2">
	<unicode hex="00DF"/>
	<advance width="503"/>
	<outline>
		<contour>
			<point x="64" y="35" type="curve" smooth="yes"/>
			<point x="45" y="-70"/>
			<point x="28" y="-126"/>
			<point x="2" y="-163" type="curve" smooth="yes"/>
			<point x="-20" y="-194"/>
			<point x="-42" y="-210"/>
			<point x="-63" y="-220" type="curve"/>
			<point x="-63" y="-225" type="line"/>
			<point x="-27" y="-217" type="line"/>
			<point x="-51" y="-194" type="line" smooth="yes"/>
			<point x="-73" y="-172"/>
			<point x="-94" y="-153"/>
			<point x="-123" y="-153" type="curve" smooth="yes"/>
			<point x="-145" y="-153"/>
			<point x="-165" y="-168"/>
			<point x="-169" y="-189" type="curve"/>
			<point x="-160" y="-226"/>
			<point x="-122" y="-250"/>
			<point x="-77" y="-250" type="curve" smooth="yes"/>
			<point x="-45" y="-250"/>
			<point x="-13" y="-239"/>
			<point x="28" y="-202" type="curve" smooth="yes"/>
			<point x="84" y="-152"/>
			<point x="110" y="-73"/>
			<point x="131" y="35" type="curve" smooth="yes"/>
			<point x="160" y="181"/>
			<point x="182" y="341"/>
			<point x="208" y="484" type="curve" smooth="yes"/>
			<point x="235" y="639"/>
			<point x="279" y="717"/>
			<point x="371" y="717" type="curve" smooth="yes"/>
			<point x="413" y="717"/>
			<point x="449" y="687"/>
			<point x="449" y="630" type="curve" smooth="yes"/>
			<point x="449" y="593"/>
			<point x="433" y="555"/>
			<point x="381" y="510" type="curve" smooth="yes"/>
			<point x="313" y="453"/>
			<point x="269" y="407"/>
			<point x="269" y="340" type="curve" smooth="yes"/>
			<point x="269" y="288"/>
			<point x="299" y="244"/>
			<point x="348" y="209" type="curve" smooth="yes"/>
			<point x="402" y="170"/>
			<point x="412" y="146"/>
			<point x="412" y="114" type="curve" smooth="yes"/>
			<point x="412" y="59"/>
			<point x="368" y="22"/>
			<point x="297" y="22" type="curve" smooth="yes"/>
			<point x="280" y="22"/>
			<point x="272" y="24"/>
			<point x="251" y="31" type="curve"/>
			<point x="287" y="-4" type="line"/>
			<point x="271" y="65" type="line" smooth="yes"/>
			<point x="265" y="92"/>
			<point x="252" y="108"/>
			<point x="224" y="108" type="curve" smooth="yes"/>
			<point x="208" y="108"/>
			<point x="193" y="97"/>
			<point x="188" y="81" type="curve"/>
			<point x="195" y="21"/>
			<point x="234" y="-13"/>
			<point x="312" y="-13" type="curve" smooth="yes"/>
			<point x="411" y="-13"/>
			<point x="479" y="46"/>
			<point x="479" y="125" type="curve" smooth="yes"/>
			<point x="479" y="187"/>
			<point x="459" y="216"/>
			<point x="397" y="262" type="curve" smooth="yes"/>
			<point x="352" y="295"/>
			<point x="333" y="323"/>
			<point x="333" y="366" type="curve" smooth="yes"/>
			<point x="333" y="412"/>
			<point x="357" y="445"/>
			<point x="407" y="481" type="curve" smooth="yes"/>
			<point x="469" y="527"/>
			<point x="514" y="572"/>
			<point x="514" y="639" type="curve" smooth="yes"/>
			<point x="514" y="704"/>
			<point x="465" y="751"/>
			<point x="382" y="751" type="curve" smooth="yes"/>
			<point x="261" y="751"/>
			<point x="168" y="668"/>
			<point x="138" y="484" type="curve" smooth="yes"/>
			<point x="112" y="326"/>
			<point x="91" y="187"/>
		</contour>
	</outline>
</glyph>
<glyph name="ae" format="2">
	<unicode hex="00E6"/>
	<advance width="665"/>
	<outline>
		<contour>
			<point x="122" y="-13" type="curve" smooth="yes"/>
			<point x="183" y="-13"/>
			<point x="258" y="46"/>
			<point x="322" y="129" type="curve"/>
			<point x="341" y="129" type="line"/>
			<point x="317" y="163" type="line"/>
			<point x="245" y="82"/>
			<point x="201" y="55"/>
			<point x="163" y="55" type="curve" smooth="yes"/>
			<point x="127" y="55"/>
			<point x="103" y="84"/>
			<point x="103" y="145" type="curve" smooth="yes"/>
			<point x="103" y="234"/>
			<point x="141" y="312"/>
			<point x="189" y="362" type="curve" smooth="yes"/>
			<point x="226" y="400"/>
			<point x="268" y="421"/>
			<point x="300" y="421" type="curve" smooth="yes"/>
			<point x="335" y="421"/>
			<point x="366" y="408"/>
			<point x="394" y="379" type="curve"/>
			<point x="435" y="414" type="line"/>
			<point x="411" y="457"/>
			<point x="380" y="487"/>
			<point x="335" y="487" type="curve" smooth="yes"/>
			<point x="207" y="487"/>
			<point x="27" y="278"/>
			<point x="27" y="104" type="curve" smooth="yes"/>
			<point x="27" y="22"/>
			<point x="74" y="-13"/>
		</contour>
		<component base="e" xOffset="260"/>
	</outline>
	<anchor name="aboveLC" x="430" y="494"/>
	<anchor name="belowLC" x="312" y="-20"/>
</glyph>
<glyph name="idieresis" format="2">
	<unicode hex="00EF"/>
	<advance width="305"/>
	<outline>
		<contour>
			<point x="139" y="628" type="curve" smooth="yes"/>
			<point x="169" y="628"/>
			<point x="194" y="652"/>
			<point x="194" y="686" type="curve" smooth="yes"/>
			<point x="194" y="711"/>
			<point x="175" y="730"/>
			<point x="149" y="730" type="curve" smooth="yes"/>
			<point x="121" y="730"/>
			<point x="94" y="707"/>
			<point x="94" y="673" type="curve" smooth="yes"/>
			<point x="94" y="645"/>
			<point x="115" y="628"/>
		</contour>
		<contour>
			<point x="312" y="628" type="curve" smooth="yes"/>
			<point x="342" y="628"/>
			<point x="367" y="652"/>
			<point x="367" y="686" type="curve" smooth="yes"/>
			<point x="367" y="711"/>
			<point x="348" y="730"/>
			<point x="322" y="730" type="curve" smooth="yes"/>
			<point x="295" y="730"/>
			<point x="268" y="707"/>
			<point x="268" y="673" type="curve" smooth="yes"/>
			<point x="268" y="645"/>
			<point x="289" y="628"/>
		</contour>
		<component base="dotlessi"/>
	</outline>
</glyph>
<glyph name="eth" format="2">
	<unicode hex="00F0"/>
	<advance width="488"/>
	<outline>
		<contour>
			<point x="208" y="-13" type="curve" smooth="yes"/>
			<point x="334" y="-13"/>
			<point x="460" y="115"/>
			<point x="460" y="337" type="curve" smooth="yes"/>
			<point x="460" y="516"/>
			<point x="375" y="670"/>
			<point x="215" y="749" type="curve"/>
			<point x="188" y="716" type="line"/>
			<point x="331" y="629"/>
			<point x="385" y="525"/>
			<point x="391" y="338" type="curve"/>
			<point x="424" y="375" type="line"/>
			<point x="400" y="442"/>
			<point x="361" y="485"/>
			<point x="290" y="485" type="curve" smooth="yes"/>
			<point x="163" y="485"/>
			<point x="36" y="356"/>
			<point x="36" y="174" type="curve" smooth="yes"/>
			<point x="36" y="57"/>
			<point x="105" y="-13"/>
		</contour>
		<contour>
			<point x="214" y="27" type="curve" smooth="yes"/>
			<point x="155" y="27"/>
			<point x="117" y="77"/>
			<point x="117" y="186" type="curve" smooth="yes"/>
			<point x="117" y="329"/>
			<point x="194" y="442"/>
			<point x="290" y="442" type="curve" smooth="yes"/>
			<point x="345" y="442"/>
			<point x="383" y="408"/>
			<point x="383" y="310" type="curve" smooth="yes"/>
			<point x="383" y="144"/>
			<point x="306" y="27"/>
		</contour>
		<contour>
			<point x="175" y="544" type="line"/>
			<point x="457" y="698" type="line"/>
			<point x="440" y="733" type="line"/>
			<point x="157" y="579" type="line"/>
		</contour>
	</outline>
</glyph>
<glyph name="divide" format="2">
	<unicode hex="00F7"/>
	<advance width="530"/>
	<outline>
		<contour>
			<point x="263" y="72" type="curve" smooth="yes"/>
			<point x="298" y="72"/>
			<point x="327" y="97"/>
			<point x="327" y="134" type="curve" smooth="yes"/>
			<point x="327" y="172"/>
			<point x="298" y="196"/>
			<point x="263" y="196" type="curve" smooth="yes"/>
			<point x="228" y="196"/>
			<point x="199" y="172"/>
			<point x="199" y="134" type="curve" smooth="yes"/>
			<point x="199" y="97"/>
			<point x="228" y="72"/>
		</contour>
		<contour>
			<point x="263" y="463" type="curve" smooth="yes"/>
			<point x="298" y="463"/>
			<point x="327" y="489"/>
			<point x="327" y="526" type="curve" smooth="yes"/>
			<point x="327" y="564"/>
			<point x="298" y="588"/>
			<point x="263" y="588" type="curve" smooth="yes"/>
			<point x="228" y="588"/>
			<point x="199" y="564"/>
			<point x="199" y="526" type="curve" smooth="yes"/>
			<point x="199" y="489"/>
			<point x="228" y="463"/>
		</contour>
		<component base="minus"/>
	</outline>
</glyph>
<glyph name="oslash" format="2">
	<unicode hex="00F8"/>
	<advance width="488"/>
	<outline>
		<contour>
			<point x="505" y="476" type="line"/>
			<point x="478" y="502" type="line"/>
			<point x="-25" y="5" type="line"/>
			<point x="4" y="-20" type="line"/>
		</contour>
		<contour>
			<point x="202" y="-13" type="curve" smooth="yes"/>
			<point x="343" y="-13"/>
			<point x="459" y="139"/>
			<point x="459" y="313" type="curve" smooth="yes"/>
			<point x="459" y="426"/>
			<point x="391" y="488"/>
			<point x="297" y="488" type="curve" smooth="yes"/>
			<point x="155" y="488"/>
			<point x="36" y="343"/>
			<point x="36" y="163" type="curve" smooth="yes"/>
			<point x="36" y="49"/>
			<point x="110" y="-13"/>
		</contour>
		<contour>
			<point x="214" y="27" type="curve" smooth="yes"/>
			<point x="156" y="27"/>
			<point x="114" y="60"/>
			<point x="114" y="175" type="curve" smooth="yes"/>
			<point x="114" y="324"/>
			<point x="189" y="448"/>
			<point x="286" y="448" type="curve" smooth="yes"/>
			<point x="342" y="448"/>
			<point x="381" y="416"/>
			<point x="381" y="298" type="curve" smooth="yes"/>
			<point x="381" y="164"/>
			<point x="314" y="27"/>
		</contour>
	</outline>
	<anchor name="aboveLC" x="294" y="495"/>
</glyph>
<glyph name="thorn" format="2">
	<unicode hex="00FE"/>
	<advance width="504"/>
	<outline>
		<contour>
			<point x="-82" y="-240" type="line"/>
			<point x="171" y="-240" type="line"/>
			<point x="178" y="-206" type="line"/>
			<point x="59" y="-188" type="line"/>
			<point x="40" y="-188" type="line"/>
			<point x="-75" y="-206" type="line"/>
		</contour>
		<contour>
			<point x="2" y="-240" type="line"/>
			<point x="76" y="-240" type="line"/>
			<point x="91" y="-149"/>
			<point x="107" y="-63"/>
			<point x="127" y="26" type="curve"/>
			<point x="131" y="39" type="line"/>
			<point x="191" y="328" type="line"/>
			<point x="194" y="343" type="line"/>
			<point x="274" y="733" type="line"/>
			<point x="263" y="741" type="line"/>
			<point x="91" y="691" type="line"/>
			<point x="86" y="662" type="line"/>
			<point x="203" y="654" type="line"/>
			<point x="186" y="673" type="line"/>
			<point x="176" y="608"/>
			<point x="164" y="543"/>
			<point x="151" y="478" type="curve" smooth="yes"/>
		</contour>
		<contour>
			<point x="179" y="-13" type="curve" smooth="yes"/>
			<point x="323" y="-13"/>
			<point x="488" y="196"/>
			<point x="488" y="364" type="curve" smooth="yes"/>
			<point x="488" y="454"/>
			<point x="446" y="487"/>
			<point x="397" y="487" type="curve" smooth="yes"/>
			<point x="324" y="487"/>
			<point x="215" y="412"/>
			<point x="152" y="293" type="curve"/>
			<point x="140" y="293" type="line"/>
			<point x="163" y="288" type="line"/>
			<point x="237" y="373"/>
			<point x="305" y="421"/>
			<point x="352" y="421" type="curve" smooth="yes"/>
			<point x="390" y="421"/>
			<point x="413" y="389"/>
			<point x="413" y="324" type="curve" smooth="yes"/>
			<point x="413" y="255"/>
			<point x="388" y="184"/>
			<point x="347" y="131" type="curve" smooth="yes"/>
			<point x="312" y="86"/>
			<point x="266" y="55"/>
			<point x="215" y="55" type="curve" smooth="yes"/>
			<point x="187" y="55"/>
			<point x="153" y="66"/>
			<point x="119" y="100" type="curve"/>
			<point x="77" y="45" type="line"/>
			<point x="110" y="3"/>
			<point x="138" y="-13"/>
		</contour>
	</outline>
	<anchor name="aboveLC" x="240" y="740"/>
	<anchor name="belowLC" x="321" y="-20"/>
</glyph>
<glyph name="aogonek" format="2">
	<unicode hex="0105"/>
	<advance width="521"/>
	<outline>
		<contour>
			<point x="122" y="-13" type="curve" smooth="yes"/>
			<point x="193" y="-13"/>
			<point x="282" y="67"/>
			<point x="352" y="171" type="curve"/>
			<point x="360" y="171" type="line"/>
			<point x="343" y="193" type="line"/>
			<point x="255" y="88"/>
			<point x="205" y="55"/>
			<point x="163" y="55" type="curve" smooth="yes"/>
			<point x="127" y="55"/>
			<point x="103" y="84"/>
			<point x="103" y="145" type="curve" smooth="yes"/>
			<point x="103" y="234"/>
			<point x="141" y="312"/>
			<point x="189" y="362" type="curve" smooth="yes"/>
			<point x="226" y="400"/>
			<point x="268" y="421"/>
			<point x="300" y="421" type="curve" smooth="yes"/>
			<point x="335" y="421"/>
			<point x="369" y="400"/>
			<point x="394" y="379" type="curve"/>
			<point x="430" y="404" type="line"/>
			<point x="404" y="450"/>
			<point x="378" y="487"/>
			<point x="335" y="487" type="curve" smooth="yes"/>
			<point x="207" y="487"/>
			<point x="27" y="278"/>
			<point x="27" y="104" type="curve" smooth="yes"/>
			<point x="27" y="22"/>
			<point x="74" y="-13"/>
		</contour>
		<contour>
			<point x="273" y="-162" type="curve" smooth="yes"/>
			<point x="273" y="-210"/>
			<point x="305" y="-240"/>
			<point x="362" y="-240" type="curve" smooth="yes"/>
			<point x="406" y="-240"/>
			<point x="451" y="-212"/>
			<point x="477" y="-183" type="curve"/>
			<point x="465" y="-166" type="line"/>
			<point x="442" y="-183"/>
			<point x="410" y="-195"/>
			<point x="385" y="-195" type="curve" smooth="yes"/>
			<point x="356" y="-195"/>
			<point x="335" y="-176"/>
			<point x="335" y="-137" type="curve" smooth="yes"/>
			<point x="335" y="-79"/>
			<point x="378" y="-27"/>
			<point x="427" y="15" type="curve" smooth="yes"/>
			<point x="460" y="43"/>
			<point x="490" y="76"/>
			<point x="513" y="109" type="curve"/>
			<point x="489" y="128" type="line"/>
			<point x="454" y="85"/>
			<point x="415" y="55"/>
			<point x="390" y="55" type="curve" smooth="yes"/>
			<point x="377" y="55"/>
			<point x="366" y="63"/>
			<point x="366" y="77" type="curve" smooth="yes"/>
			<point x="366" y="89"/>
			<point x="369" y="110"/>
			<point x="375" y="135" type="curve" smooth="yes"/>
			<point x="455" y="488" type="line"/>
			<point x="437" y="497" type="line"/>
			<point x="375" y="445" type="line"/>
			<point x="371" y="442" type="line"/>
			<point x="304" y="132" type="line"/>
			<point x="303" y="127" type="line" smooth="yes"/>
			<point x="296" y="94"/>
			<point x="293" y="73"/>
			<point x="293" y="44" type="curve" smooth="yes"/>
			<point x="293" y="5"/>
			<point x="317" y="-13"/>
			<point x="344" y="-13" type="curve" smooth="yes"/>
			<point x="354" y="-13"/>
			<point x="360" y="-12"/>
			<point x="391" y="-1" type="curve"/>
			<point x="363" y="20" type="line"/>
			<point x="363" y="-11" type="line"/>
			<point x="317" y="-56"/>
			<point x="273" y="-106"/>
		</contour>
	</outline>
	<anchor name="aboveLC" x="331" y="494"/>
	<anchor name="belowLC" x="199" y="-20"/>
</glyph>
<glyph name="dcroat" format="2">
	<unicode hex="0111"/>
	<advance width="524"/>
	<outline>
		<contour>
			<point x="353" y="-13" type="curve" smooth="yes"/>
			<point x="420" y="-13"/>
			<point x="482" y="51"/>
			<point x="521" y="109" type="curve"/>
			<point x="497" y="128" type="line"/>
			<point x="463" y="85"/>
			<point x="425" y="56"/>
			<point x="399" y="56" type="curve" smooth="yes"/>
			<point x="387" y="56"/>
			<point x="376" y="64"/>
			<point x="376" y="78" type="curve" smooth="yes"/>
			<point x="376" y="89"/>
			<point x="379" y="110"/>
			<point x="384" y="135" type="curve" smooth="yes"/>
			<point x="505" y="732" type="line"/>
			<point x="493" y="740" type="line"/>
			<point x="322" y="690" type="line"/>
			<point x="318" y="661" type="line"/>
			<point x="435" y="653" type="line"/>
			<point x="423" y="676" type="line"/>
			<point x="377" y="453" type="line"/>
			<point x="367" y="420" type="line"/>
			<point x="310" y="135" type="line"/>
			<point x="305" y="111" type="line" smooth="yes"/>
			<point x="297" y="70"/>
			<point x="297" y="53"/>
			<point x="297" y="39" type="curve" smooth="yes"/>
			<point x="297" y="4"/>
			<point x="322" y="-13"/>
		</contour>
		<contour>
			<point x="119" y="-13" type="curve" smooth="yes"/>
			<point x="190" y="-13"/>
			<point x="286" y="66"/>
			<point x="352" y="170" type="curve"/>
			<point x="362" y="170" type="line"/>
			<point x="343" y="192" type="line"/>
			<point x="259" y="89"/>
			<point x="210" y="56"/>
			<point x="169" y="56" type="curve" smooth="yes"/>
			<point x="133" y="56"/>
			<point x="106" y="85"/>
			<point x="106" y="151" type="curve" smooth="yes"/>
			<point x="106" y="227"/>
			<point x="138" y="298"/>
			<point x="182" y="347" type="curve" smooth="yes"/>
			<point x="216" y="385"/>
			<point x="259" y="409"/>
			<point x="302" y="409" type="curve" smooth="yes"/>
			<point x="329" y="409"/>
			<point x="357" y="397"/>
			<point x="382" y="365" type="curve"/>
			<point x="424" y="416" type="line"/>
			<point x="391" y="458"/>
			<point x="368" y="475"/>
			<point x="332" y="475" type="curve" smooth="yes"/>
			<point x="196" y="475"/>
			<point x="29" y="273"/>
			<point x="29" y="113" type="curve" smooth="yes"/>
			<point x="29" y="22"/>
			<point x="71" y="-13"/>
		</contour>
		<contour>
			<point x="233" y="543" type="line"/>
			<point x="572" y="543" type="line"/>
			<point x="579" y="580" type="line"/>
			<point x="240" y="580" type="line"/>
		</contour>
	</outline>
</glyph>
<glyph name="eogonek" format="2">
	<unicode hex="0119"/>
	<advance width="405"/>
	<outline>
		<contour>
			<point x="214" y="-240" type="curve" smooth="yes"/>
			<point x="258" y="-240"/>
			<point x="303" y="-212"/>
			<point x="329" y="-183" type="curve"/>
			<point x="317" y="-166" type="line"/>
			<point x="294" y="-183"/>
			<point x="262" y="-195"/>
			<point x="237" y="-195" type="curve" smooth="yes"/>
			<point x="208" y="-195"/>
			<point x="187" y="-176"/>
			<point x="187" y="-137" type="curve" smooth="yes"/>
			<point x="187" y="-76"/>
			<point x="235" y="-23"/>
			<point x="287" y="21" type="curve" smooth="yes"/>
			<point x="320" y="49"/>
			<point x="343" y="76"/>
			<point x="365" y="110" type="curve"/>
			<point x="342" y="128" type="line"/>
			<point x="315" y="94"/>
			<point x="270" y="55"/>
			<point x="207" y="55" type="curve" smooth="yes"/>
			<point x="142" y="55"/>
			<point x="103" y="94"/>
			<point x="103" y="194" type="curve" smooth="yes"/>
			<point x="103" y="327"/>
			<point x="209" y="444"/>
			<point x="274" y="444" type="curve" smooth="yes"/>
			<point x="307" y="444"/>
			<point x="330" y="422"/>
			<point x="330" y="385" type="curve" smooth="yes"/>
			<point x="330" y="328"/>
			<point x="265" y="255"/>
			<point x="78" y="207" type="curve"/>
			<point x="82" y="169" type="line"/>
			<point x="329" y="235"/>
			<point x="395" y="330"/>
			<point x="395" y="395" type="curve" smooth="yes"/>
			<point x="395" y="454"/>
			<point x="360" y="487"/>
			<point x="296" y="487" type="curve" smooth="yes"/>
			<point x="157" y="487"/>
			<point x="36" y="334"/>
			<point x="36" y="173" type="curve" smooth="yes"/>
			<point x="36" y="45"/>
			<point x="99" y="-13"/>
			<point x="186" y="-13" type="curve" smooth="yes"/>
			<point x="199" y="-13"/>
			<point x="214" y="-10"/>
			<point x="218" y="-8" type="curve"/>
			<point x="218" y="-9" type="line"/>
			<point x="169" y="-55"/>
			<point x="125" y="-106"/>
			<point x="125" y="-162" type="curve" smooth="yes"/>
			<point x="125" y="-210"/>
			<point x="157" y="-240"/>
		</contour>
	</outline>
	<anchor name="aboveLC" x="297" y="494"/>
	<anchor name="belowLC" x="173" y="-20"/>
</glyph>
<glyph name="Hbar" format="2">
	<unicode hex="0126"/>
	<advance width="764"/>
	<outline>
		<contour>
			<point x="-2" y="0" type="line"/>
			<point x="264" y="0" type="line"/>
			<point x="272" y="40" type="line"/>
			<point x="152" y="55" type="line"/>
			<point x="134" y="55" type="line"/>
			<point x="7" y="40" type="line"/>
		</contour>
		<contour>
			<point x="82" y="0" type="line"/>
			<point x="172" y="0" type="line"/>
			<point x="188" y="103"/>
			<point x="206" y="207"/>
			<point x="225" y="310" type="curve" smooth="yes"/>
			<point x="293" y="670" type="line"/>
			<point x="204" y="670" type="line"/>
			<point x="188" y="567"/>
			<point x="169" y="463"/>
			<point x="150" y="360" type="curve" smooth="yes"/>
		</contour>
		<contour>
			<point x="104" y="629" type="line"/>
			<point x="225" y="614" type="line"/>
			<point x="244" y="614" type="line"/>
			<point x="369" y="629" type="line"/>
			<point x="377" y="670" type="line"/>
			<point x="112" y="670" type="line"/>
		</contour>
		<contour>
			<point x="404" y="0" type="line"/>
			<point x="669" y="0" type="line"/>
			<point x="677" y="40" type="line"/>
			<point x="558" y="55" type="line"/>
			<point x="539" y="55" type="line"/>
			<point x="412" y="40" type="line"/>
		</contour>
		<contour>
			<point x="488" y="0" type="line"/>
			<point x="577" y="0" type="line"/>
			<point x="593" y="103"/>
			<point x="611" y="207"/>
			<point x="630" y="310" type="curve" smooth="yes"/>
			<point x="698" y="670" type="line"/>
			<point x="608" y="670" type="line"/>
			<point x="592" y="567"/>
			<point x="574" y="463"/>
			<point x="555" y="360" type="curve" smooth="yes"/>
		</contour>
		<contour>
			<point x="509" y="629" type="line"/>
			<point x="630" y="614" type="line"/>
			<point x="650" y="614" type="line"/>
			<point x="774" y="629" type="line"/>
			<point x="782" y="670" type="line"/>
			<point x="517" y="670" type="line"/>
		</contour>
		<contour>
			<point x="181" y="300" type="line"/>
			<point x="593" y="300" type="line"/>
			<point x="593" y="346" type="line"/>
			<point x="181" y="346" type="line"/>
		</contour>
		<contour>
			<point x="54" y="466" type="line"/>
			<point x="784" y="466" type="line"/>
			<point x="792" y="513" type="line"/>
			<point x="62" y="513" type="line"/>
		</contour>
	</outline>
</glyph>
<glyph name="hbar" format="2">
	<unicode hex="0127"/>
	<advance width="544"/>
	<outline>
		<contour>
			<point x="360" y="-13" type="curve" smooth="yes"/>
			<point x="428" y="-13"/>
			<point x="493" y="50"/>
			<point x="532" y="109" type="curve"/>
			<point x="508" y="128" type="line"/>
			<point x="472" y="83"/>
			<point x="434" y="56"/>
			<point x="410" y="56" type="curve" smooth="yes"/>
			<point x="398" y="56"/>
			<point x="390" y="63"/>
			<point x="390" y="77" type="curve" smooth="yes"/>
			<point x="390" y="87"/>
			<point x="396" y="107"/>
			<point x="403" y="135" type="curve" smooth="yes"/>
			<point x="445" y="311" type="line" smooth="yes"/>
			<point x="453" y="344"/>
			<point x="461" y="377"/>
			<point x="461" y="409" type="curve" smooth="yes"/>
			<point x="461" y="455"/>
			<point x="439" y="478"/>
			<point x="397" y="478" type="curve" smooth="yes"/>
			<point x="331" y="478"/>
			<point x="240" y="418"/>
			<point x="173" y="350" type="curve"/>
			<point x="159" y="350" type="line"/>
			<point x="168" y="313" type="line"/>
			<point x="247" y="378"/>
			<point x="308" y="411"/>
			<point x="346" y="411" type="curve" smooth="yes"/>
			<point x="368" y="411"/>
			<point x="381" y="400"/>
			<point x="381" y="364" type="curve" smooth="yes"/>
			<point x="381" y="344"/>
			<point x="373" y="312"/>
			<point x="365" y="278" type="curve" smooth="yes"/>
			<point x="325" y="111" type="line" smooth="yes"/>
			<point x="315" y="70"/>
			<point x="309" y="53"/>
			<point x="309" y="30" type="curve" smooth="yes"/>
			<point x="309" y="4"/>
			<point x="328" y="-13"/>
		</contour>
		<contour>
			<point x="54" y="-8" type="line"/>
			<point x="121" y="0" type="line"/>
			<point x="132" y="70"/>
			<point x="144" y="140"/>
			<point x="159" y="210" type="curve" smooth="yes"/>
			<point x="188" y="348" type="line"/>
			<point x="191" y="365" type="line"/>
			<point x="266" y="732" type="line"/>
			<point x="256" y="740" type="line"/>
			<point x="83" y="690" type="line"/>
			<point x="79" y="661" type="line"/>
			<point x="196" y="653" type="line"/>
			<point x="178" y="684" type="line"/>
			<point x="168" y="615"/>
			<point x="155" y="547"/>
			<point x="141" y="478" type="curve" smooth="yes"/>
			<point x="44" y="0" type="line"/>
		</contour>
		<contour>
			<point x="56" y="538" type="line"/>
			<point x="403" y="538" type="line"/>
			<point x="411" y="584" type="line"/>
			<point x="64" y="584" type="line"/>
		</contour>
	</outline>
</glyph>
<glyph name="iogonek" format="2">
	<unicode hex="012F"/>
	<advance width="305"/>
	<outline>
		<contour>
			<point x="219" y="623" type="curve" smooth="yes"/>
			<point x="250" y="623"/>
			<point x="278" y="654"/>
			<point x="278" y="686" type="curve" smooth="yes"/>
			<point x="278" y="722"/>
			<point x="256" y="744"/>
			<point x="223" y="744" type="curve" smooth="yes"/>
			<point x="193" y="744"/>
			<point x="165" y="715"/>
			<point x="165" y="682" type="curve" smooth="yes"/>
			<point x="165" y="645"/>
			<point x="187" y="623"/>
		</contour>
		<contour>
			<point x="146" y="-240" type="curve" smooth="yes"/>
			<point x="190" y="-240"/>
			<point x="235" y="-212"/>
			<point x="261" y="-183" type="curve"/>
			<point x="249" y="-166" type="line"/>
			<point x="226" y="-182"/>
			<point x="195" y="-194"/>
			<point x="170" y="-194" type="curve" smooth="yes"/>
			<point x="141" y="-194"/>
			<point x="120" y="-175"/>
			<point x="120" y="-137" type="curve" smooth="yes"/>
			<point x="120" y="-77"/>
			<point x="163" y="-25"/>
			<point x="211" y="18" type="curve" smooth="yes"/>
			<point x="240" y="45"/>
			<point x="269" y="76"/>
			<point x="294" y="109" type="curve"/>
			<point x="269" y="128" type="line"/>
			<point x="229" y="80"/>
			<point x="197" y="56"/>
			<point x="173" y="56" type="curve" smooth="yes"/>
			<point x="162" y="56"/>
			<point x="151" y="64"/>
			<point x="151" y="78" type="curve" smooth="yes"/>
			<point x="151" y="89"/>
			<point x="155" y="110"/>
			<point x="160" y="135" type="curve" smooth="yes"/>
			<point x="231" y="477" type="line"/>
			<point x="218" y="487" type="line"/>
			<point x="48" y="436" type="line"/>
			<point x="44" y="407" type="line"/>
			<point x="173" y="399" type="line"/>
			<point x="149" y="430" type="line"/>
			<point x="82" y="111" type="line" smooth="yes"/>
			<point x="74" y="70"/>
			<point x="72" y="53"/>
			<point x="72" y="38" type="curve" smooth="yes"/>
			<point x="72" y="4"/>
			<point x="98" y="-13"/>
			<point x="126" y="-13" type="curve" smooth="yes"/>
			<point x="137" y="-13"/>
			<point x="144" y="-11"/>
			<point x="147" y="-10" type="curve"/>
			<point x="147" y="-11" type="line"/>
			<point x="101" y="-56"/>
			<point x="57" y="-106"/>
			<point x="57" y="-162" type="curve" smooth="yes"/>
			<point x="57" y="-210"/>
			<point x="89" y="-240"/>
		</contour>
	</outline>
</glyph>
<glyph name="dotlessi" format="2">
	<unicode hex="0131"/>
	<advance width="305"/>
	<outline>
		<contour>
			<point x="73" y="38" type="curve" smooth="yes"/>
			<point x="73" y="4"/>
			<point x="99" y="-13"/>
			<point x="126" y="-13" type="curve" smooth="yes"/>
			<point x="197" y="-13"/>
			<point x="248" y="49"/>
			<point x="293" y="109" type="curve"/>
			<point x="269" y="128" type="line"/>
			<point x="228" y="80"/>
			<point x="196" y="55"/>
			<point x="172" y="55" type="curve" smooth="yes"/>
			<point x="161" y="55"/>
			<point x="150" y="63"/>
			<point x="150" y="77" type="curve" smooth="yes"/>
			<point x="150" y="89"/>
			<point x="154" y="110"/>
			<point x="159" y="135" type="curve" smooth="yes"/>
			<point x="230" y="477" type="line"/>
			<point x="217" y="487" type="line"/>
			<point x="48" y="436" type="line"/>
			<point x="44" y="407" type="line"/>
			<point x="164" y="400" type="line"/>
			<point x="147" y="414" type="line"/>
			<point x="83" y="110" type="line" smooth="yes"/>
			<point x="74" y="69"/>
			<point x="73" y="52"/>
		</contour>
	</outline>
	<anchor name="aboveLC" x="190" y="494"/>
	<anchor name="belowLC" x="120" y="-20"/>
	<anchor name="ogonek" x="163" y="0"/>
</glyph>
<glyph name="kgreenlandic" format="2">
	<unicode hex="0138"/>
	<advance width="492"/>
	<outline>
		<contour>
			<point x="68" y="-8" type="line"/>
			<point x="135" y="0" type="line"/>
			<point x="148" y="71"/>
			<point x="160" y="140"/>
			<point x="175" y="210" type="curve" smooth="yes"/>
			<point x="206" y="352" type="line"/>
			<point x="231" y="477" type="line"/>
			<point x="218" y="487" type="line"/>
			<point x="48" y="436" type="line"/>
			<point x="44" y="407" type="line"/>
			<point x="164" y="400" type="line"/>
			<point x="146" y="414" type="line"/>
			<point x="58" y="0" type="line"/>
		</contour>
		<contour>
			<point x="405" y="-13" type="curve" smooth="yes"/>
			<point x="427" y="-13"/>
			<point x="446" y="-10"/>
			<point x="476" y="0" type="curve"/>
			<point x="481" y="30" type="line"/>
			<point x="430" y="34" type="line" smooth="yes"/>
			<point x="399" y="36"/>
			<point x="386" y="44"/>
			<point x="362" y="92" type="curve" smooth="yes"/>
			<point x="335" y="147" type="line" smooth="yes"/>
			<point x="310" y="197"/>
			<point x="281" y="230"/>
			<point x="223" y="242" type="curve" smooth="yes"/>
			<point x="193" y="248" type="line"/>
			<point x="190" y="241" type="line"/>
			<point x="441" y="389" type="line" smooth="yes"/>
			<point x="478" y="410"/>
			<point x="492" y="423"/>
			<point x="492" y="441" type="curve" smooth="yes"/>
			<point x="492" y="462"/>
			<point x="477" y="481"/>
			<point x="456" y="482" type="curve"/>
			<point x="169" y="249" type="line"/>
			<point x="172" y="227" type="line"/>
			<point x="192" y="221" type="line" smooth="yes"/>
			<point x="226" y="211"/>
			<point x="242" y="191"/>
			<point x="266" y="136" type="curve" smooth="yes"/>
			<point x="296" y="67" type="line" smooth="yes"/>
			<point x="327" y="-3"/>
			<point x="358" y="-13"/>
		</contour>
	</outline>
</glyph>
<glyph name="Lslash" format="2">
	<unicode hex="0141"/>
	<advance width="568"/>
	<outline>
		<contour>
			<point x="435" y="476" type="line"/>
			<point x="202" y="355" type="line"/>
			<point x="190" y="300" type="line"/>
			<point x="424" y="421" type="line"/>
		</contour>
		<contour>
			<point x="203" y="361" type="line"/>
			<point x="48" y="281" type="line"/>
			<point x="37" y="227" type="line"/>
			<point x="191" y="306" type="line"/>
		</contour>
		<component base="L"/>
	</outline>
</glyph>
<glyph name="lslash" format="2">
	<unicode hex="0142"/>
	<advance width="278"/>
	<outline>
		<contour>
			<point x="162" y="414" type="line"/>
			<point x="27" y="351" type="line"/>
			<point x="17" y="303" type="line"/>
			<point x="152" y="366" type="line"/>
		</contour>
		<contour>
			<point x="298" y="473" type="line"/>
			<point x="161" y="408" type="line"/>
			<point x="151" y="360" type="line"/>
			<point x="288" y="424" type="line"/>
		</contour>
		<component base="l"/>
	</outline>
</glyph>
<glyph name="eng" format="2">
	<unicode hex="014B"/>
	<advance width="571"/>
	<outline>
		<contour>
			<point x="68" y="-8" type="line"/>
			<point x="135" y="0" type="line"/>
			<point x="148" y="71"/>
			<point x="160" y="140"/>
			<point x="175" y="210" type="curve" smooth="yes"/>
			<point x="204" y="344" type="line"/>
			<point x="206" y="353" type="line"/>
			<point x="231" y="478" type="line"/>
			<point x="218" y="488" type="line"/>
			<point x="48" y="437" type="line"/>
			<point x="44" y="408" type="line"/>
			<point x="164" y="401" type="line"/>
			<point x="146" y="415" type="line"/>
			<point x="58" y="0" type="line"/>
		</contour>
		<contour>
			<point x="186" y="-248" type="line"/>
			<point x="221" y="-242"/>
			<point x="255" y="-226"/>
			<point x="287" y="-199" type="curve" smooth="yes"/>
			<point x="350" y="-146"/>
			<point x="389" y="-70"/>
			<point x="408" y="23" type="curve" smooth="yes"/>
			<point x="468" y="321" type="line" smooth="yes"/>
			<point x="475" y="354"/>
			<point x="483" y="387"/>
			<point x="483" y="419" type="curve" smooth="yes"/>
			<point x="483" y="465"/>
			<point x="461" y="488"/>
			<point x="419" y="488" type="curve" smooth="yes"/>
			<point x="353" y="488"/>
			<point x="262" y="429"/>
			<point x="195" y="360" type="curve"/>
			<point x="189" y="360" type="line"/>
			<point x="190" y="323" type="line"/>
			<point x="269" y="389"/>
			<point x="330" y="421"/>
			<point x="368" y="421" type="curve" smooth="yes"/>
			<point x="390" y="421"/>
			<point x="403" y="410"/>
			<point x="403" y="375" type="curve" smooth="yes"/>
			<point x="403" y="355"/>
			<point x="396" y="322"/>
			<point x="389" y="288" type="curve" smooth="yes"/>
			<point x="341" y="48" type="line" smooth="yes"/>
			<point x="317" y="-73"/>
			<point x="293" y="-123"/>
			<point x="259" y="-166" type="curve" smooth="yes"/>
			<point x="239" y="-191"/>
			<point x="214" y="-205"/>
			<point x="178" y="-220" type="curve"/>
		</contour>
	</outline>
</glyph>
<glyph name="OE" format="2">
	<unicode hex="0152"/>
	<advance width="889"/>
	<outline>
		<contour>
			<point x="426" y="0" type="curve"/>
			<point x="436" y="53" type="line"/>
			<point x="402" y="42"/>
			<point x="365" y="35"/>
			<point x="328" y="35" type="curve" smooth="yes"/>
			<point x="207" y="35"/>
			<point x="136" y="111"/>
			<point x="136" y="263" type="curve" smooth="yes"/>
			<point x="136" y="475"/>
			<point x="258" y="635"/>
			<point x="433" y="635" type="curve" smooth="yes"/>
			<point x="473" y="635"/>
			<point x="515" y="627"/>
			<point x="538" y="616" type="curve"/>
			<point x="549" y="670" type="line"/>
			<point x="513" y="678"/>
			<point x="473" y="685"/>
			<point x="426" y="685" type="curve" smooth="yes"/>
			<point x="204" y="685"/>
			<point x="49" y="492"/>
			<point x="49" y="262" type="curve" smooth="yes"/>
			<point x="49" y="80"/>
			<point x="158" y="-15"/>
			<point x="315" y="-15" type="curve" smooth="yes"/>
			<point x="355" y="-15"/>
			<point x="388" y="-9"/>
		</contour>
		<contour>
			<point x="385" y="0" type="line"/>
			<point x="473" y="0" type="line"/>
			<point x="489" y="103"/>
			<point x="507" y="207"/>
			<point x="526" y="310" type="curve" smooth="yes"/>
			<point x="594" y="670" type="line"/>
			<point x="506" y="670" type="line"/>
			<point x="490" y="567"/>
			<point x="472" y="463"/>
			<point x="453" y="360" type="curve" smooth="yes"/>
		</contour>
		<contour>
			<point x="426" y="0" type="line"/>
			<point x="799" y="0" type="line"/>
			<point x="838" y="178" type="line"/>
			<point x="788" y="178" type="line"/>
			<point x="725" y="0" type="line"/>
			<point x="780" y="50" type="line"/>
			<point x="436" y="50" type="line"/>
		</contour>
		<contour>
			<point x="488" y="319" type="line"/>
			<point x="713" y="319" type="line"/>
			<point x="721" y="365" type="line"/>
			<point x="497" y="365" type="line"/>
		</contour>
		<contour>
			<point x="540" y="620" type="line"/>
			<point x="834" y="620" type="line"/>
			<point x="802" y="670" type="line"/>
			<point x="802" y="492" type="line"/>
			<point x="852" y="492" type="line"/>
			<point x="876" y="670" type="line"/>
			<point x="550" y="670" type="line"/>
		</contour>
		<contour>
			<point x="681" y="224" type="line"/>
			<point x="723" y="224" type="line"/>
			<point x="768" y="461" type="line"/>
			<point x="726" y="461" type="line"/>
			<point x="688" y="355" type="line"/>
			<point x="685" y="335" type="line"/>
		</contour>
	</outline>
	<anchor name="aboveUC" x="551" y="690"/>
</glyph>
<glyph name="oe" format="2">
	<unicode hex="0153"/>
	<advance width="742"/>
	<outline>
		<contour>
			<point x="202" y="-13" type="curve" smooth="yes"/>
			<point x="290" y="-13"/>
			<point x="369" y="51"/>
			<point x="414" y="143" type="curve"/>
			<point x="375" y="138" type="line"/>
			<point x="385" y="34"/>
			<point x="444" y="-13"/>
			<point x="523" y="-13" type="curve" smooth="yes"/>
			<point x="596" y="-13"/>
			<point x="660" y="42"/>
			<point x="702" y="110" type="curve"/>
			<point x="679" y="128" type="line"/>
			<point x="652" y="94"/>
			<point x="607" y="55"/>
			<point x="544" y="55" type="curve" smooth="yes"/>
			<point x="479" y="55"/>
			<point x="440" y="94"/>
			<point x="440" y="194" type="curve" smooth="yes"/>
			<point x="440" y="327"/>
			<point x="546" y="444"/>
			<point x="611" y="444" type="curve" smooth="yes"/>
			<point x="644" y="444"/>
			<point x="667" y="422"/>
			<point x="667" y="385" type="curve" smooth="yes"/>
			<point x="667" y="328"/>
			<point x="602" y="255"/>
			<point x="415" y="207" type="curve"/>
			<point x="419" y="169" type="line"/>
			<point x="666" y="235"/>
			<point x="732" y="330"/>
			<point x="732" y="395" type="curve" smooth="yes"/>
			<point x="732" y="454"/>
			<point x="697" y="487"/>
			<point x="633" y="487" type="curve" smooth="yes"/>
			<point x="546" y="487"/>
			<point x="467" y="427"/>
			<point x="419" y="344" type="curve"/>
			<point x="452" y="342" type="line"/>
			<point x="436" y="436"/>
			<point x="376" y="487"/>
			<point x="296" y="487" type="curve" smooth="yes"/>
			<point x="155" y="487"/>
			<point x="36" y="343"/>
			<point x="36" y="163" type="curve" smooth="yes"/>
			<point x="36" y="49"/>
			<point x="110" y="-13"/>
		</contour>
		<contour>
			<point x="213" y="27" type="curve" smooth="yes"/>
			<point x="157" y="27"/>
			<point x="116" y="70"/>
			<point x="116" y="176" type="curve" smooth="yes"/>
			<point x="116" y="325"/>
			<point x="190" y="447"/>
			<point x="285" y="447" type="curve" smooth="yes"/>
			<point x="340" y="447"/>
			<point x="378" y="405"/>
			<point x="378" y="296" type="curve" smooth="yes"/>
			<point x="378" y="162"/>
			<point x="312" y="27"/>
		</contour>
	</outline>
	<anchor name="aboveLC" x="448" y="494"/>
</glyph>
<glyph name="Uogonek" format="2">
	<unicode hex="0172"/>
	<advance width="713"/>
	<outline>
		<contour>
			<point x="103" y="179" type="curve" smooth="yes"/>
			<point x="103" y="54"/>
			<point x="175" y="-15"/>
			<point x="310" y="-15" type="curve" smooth="yes"/>
			<point x="345" y="-15"/>
			<point x="378" y="-10"/>
			<point x="404" y="-1" type="curve"/>
			<point x="404" y="-2" type="line"/>
			<point x="353" y="-51"/>
			<point x="304" y="-103"/>
			<point x="304" y="-162" type="curve" smooth="yes"/>
			<point x="304" y="-210"/>
			<point x="336" y="-240"/>
			<point x="393" y="-240" type="curve" smooth="yes"/>
			<point x="437" y="-240"/>
			<point x="482" y="-212"/>
			<point x="508" y="-183" type="curve"/>
			<point x="496" y="-166" type="line"/>
			<point x="473" y="-183"/>
			<point x="441" y="-195"/>
			<point x="416" y="-195" type="curve" smooth="yes"/>
			<point x="387" y="-195"/>
			<point x="366" y="-176"/>
			<point x="366" y="-137" type="curve" smooth="yes"/>
			<point x="366" y="-72"/>
			<point x="427" y="-11"/>
			<point x="487" y="42" type="curve" smooth="yes"/>
			<point x="538" y="87"/>
			<point x="578" y="152"/>
			<point x="601" y="274" type="curve" smooth="yes"/>
			<point x="676" y="670" type="line"/>
			<point x="624" y="670" type="line"/>
			<point x="553" y="299" type="line" smooth="yes"/>
			<point x="516" y="108"/>
			<point x="460" y="55"/>
			<point x="320" y="55" type="curve" smooth="yes"/>
			<point x="247" y="55"/>
			<point x="186" y="101"/>
			<point x="186" y="185" type="curve" smooth="yes"/>
			<point x="186" y="232"/>
			<point x="192" y="256"/>
			<point x="197" y="282" type="curve" smooth="yes"/>
			<point x="268" y="670" type="line"/>
			<point x="183" y="670" type="line"/>
			<point x="167" y="567"/>
			<point x="149" y="463"/>
			<point x="130" y="360" type="curve" smooth="yes"/>
			<point x="116" y="286" type="line" smooth="yes"/>
			<point x="109" y="249"/>
			<point x="103" y="212"/>
		</contour>
		<contour>
			<point x="82" y="630" type="line"/>
			<point x="203" y="615" type="line"/>
			<point x="222" y="615" type="line"/>
			<point x="346" y="630" type="line"/>
			<point x="354" y="670" type="line"/>
			<point x="90" y="670" type="line"/>
		</contour>
		<contour>
			<point x="510" y="630" type="line"/>
			<point x="627" y="615" type="line"/>
			<point x="646" y="615" type="line"/>
			<point x="752" y="630" type="line"/>
			<point x="760" y="670" type="line"/>
			<point x="518" y="670" type="line"/>
		</contour>
	</outline>
	<anchor name="aboveUC" x="436" y="690"/>
	<anchor name="belowLC" x="318" y="-20"/>
</glyph>
<glyph name="uogonek" format="2">
	<unicode hex="0173"/>
	<advance width="572"/>
	<outline>
		<contour>
			<point x="153" y="-13" type="curve" smooth="yes"/>
			<point x="221" y="-13"/>
			<point x="296" y="48"/>
			<point x="394" y="144" type="curve"/>
			<point x="401" y="144" type="line"/>
			<point x="394" y="172" type="line"/>
			<point x="295" y="91"/>
			<point x="247" y="56"/>
			<point x="199" y="56" type="curve" smooth="yes"/>
			<point x="175" y="56"/>
			<point x="161" y="70"/>
			<point x="161" y="99" type="curve" smooth="yes"/>
			<point x="161" y="121"/>
			<point x="167" y="153"/>
			<point x="176" y="194" type="curve" smooth="yes"/>
			<point x="239" y="478" type="line"/>
			<point x="226" y="488" type="line"/>
			<point x="52" y="438" type="line"/>
			<point x="48" y="408" type="line"/>
			<point x="159" y="402" type="line"/>
			<point x="152" y="424" type="line"/>
			<point x="101" y="186" type="line" smooth="yes"/>
			<point x="93" y="147"/>
			<point x="80" y="97"/>
			<point x="80" y="60" type="curve" smooth="yes"/>
			<point x="80" y="11"/>
			<point x="109" y="-13"/>
		</contour>
		<contour>
			<point x="415" y="-240" type="curve" smooth="yes"/>
			<point x="447" y="-240"/>
			<point x="479" y="-226"/>
			<point x="503" y="-207" type="curve"/>
			<point x="491" y="-181" type="line"/>
			<point x="474" y="-189"/>
			<point x="455" y="-194"/>
			<point x="439" y="-194" type="curve" smooth="yes"/>
			<point x="410" y="-194"/>
			<point x="389" y="-175"/>
			<point x="389" y="-137" type="curve" smooth="yes"/>
			<point x="389" y="-76"/>
			<point x="436" y="-23"/>
			<point x="477" y="13" type="curve" smooth="yes"/>
			<point x="513" y="45"/>
			<point x="540" y="77"/>
			<point x="565" y="109" type="curve"/>
			<point x="540" y="128" type="line"/>
			<point x="499" y="80"/>
			<point x="469" y="56"/>
			<point x="442" y="56" type="curve" smooth="yes"/>
			<point x="430" y="56"/>
			<point x="419" y="64"/>
			<point x="419" y="78" type="curve" smooth="yes"/>
			<point x="419" y="89"/>
			<point x="423" y="110"/>
			<point x="428" y="135" type="curve" smooth="yes"/>
			<point x="499" y="478" type="line"/>
			<point x="486" y="488" type="line"/>
			<point x="421" y="468" type="line"/>
			<point x="410" y="404"/>
			<point x="398" y="340"/>
			<point x="385" y="276" type="curve" smooth="yes"/>
			<point x="355" y="129" type="line"/>
			<point x="352" y="112" type="line"/>
			<point x="342" y="70"/>
			<point x="341" y="53"/>
			<point x="341" y="39" type="curve" smooth="yes"/>
			<point x="341" y="4"/>
			<point x="367" y="-13"/>
			<point x="394" y="-13" type="curve" smooth="yes"/>
			<point x="407" y="-13"/>
			<point x="414" y="-11"/>
			<point x="445" y="-1" type="curve"/>
			<point x="417" y="20" type="line"/>
			<point x="417" y="-11" type="line"/>
			<point x="370" y="-56"/>
			<point x="326" y="-106"/>
			<point x="326" y="-162" type="curve" smooth="yes"/>
			<point x="326" y="-210"/>
			<point x="358" y="-240"/>
		</contour>
	</outline>
	<anchor name="aboveLC" x="331" y="495"/>
</glyph>
<glyph name="longs" format="2">
	<unicode hex="017F"/>
	<advance width="293"/>
	<outline>
		<contour>
			<point x="370" y="750" type="curve" smooth="yes"/>
			<point x="263" y="750"/>
			<point x="189" y="672"/>
			<point x="157" y="488" type="curve" smooth="yes"/>
			<point x="80" y="39" type="line" smooth="yes"/>
			<point x="59" y="-84"/>
			<point x="34" y="-144"/>
			<point x="9" y="-177" type="curve" smooth="yes"/>
			<point x="-10" y="-202"/>
			<point x="-29" y="-211"/>
			<point x="-45" y="-220" type="curve"/>
			<point x="-45" y="-226" type="line"/>
			<point x="-9" y="-217" type="line"/>
			<point x="-33" y="-194" type="line" smooth="yes"/>
			<point x="-55" y="-172"/>
			<point x="-76" y="-153"/>
			<point x="-105" y="-153" type="curve" smooth="yes"/>
			<point x="-127" y="-153"/>
			<point x="-147" y="-168"/>
			<point x="-151" y="-189" type="curve"/>
			<point x="-142" y="-226"/>
			<point x="-104" y="-250"/>
			<point x="-59" y="-250" type="curve" smooth="yes"/>
			<point x="-22" y="-250"/>
			<point x="20" y="-233"/>
			<point x="57" y="-192" type="curve" smooth="yes"/>
			<point x="96" y="-148"/>
			<point x="131" y="-77"/>
			<point x="149" y="31" type="curve" smooth="yes"/>
			<point x="226" y="480" type="line" smooth="yes"/>
			<point x="263" y="696"/>
			<point x="306" y="698"/>
			<point x="395" y="731" type="curve"/>
			<point x="395" y="736" type="line"/>
			<point x="337" y="733" type="line"/>
			<point x="365" y="699" type="line" smooth="yes"/>
			<point x="397" y="660"/>
			<point x="414" y="644"/>
			<point x="444" y="644" type="curve" smooth="yes"/>
			<point x="461" y="644"/>
			<point x="475" y="654"/>
			<point x="482" y="677" type="curve"/>
			<point x="474" y="714"/>
			<point x="428" y="750"/>
		</contour>
	</outline>
</glyph>
<glyph name="Schwa" format="2">
	<unicode hex="018F"/>
	<advance width="619"/>
	<outline>
		<contour>
			<point x="281" y="-14" type="curve" smooth="yes"/>
			<point x="467" y="-14"/>
			<point x="611" y="188"/>
			<point x="611" y="398" type="curve" smooth="yes"/>
			<point x="611" y="593"/>
			<point x="510" y="684"/>
			<point x="367" y="684" type="curve" smooth="yes"/>
			<point x="281" y="684"/>
			<point x="211" y="646"/>
			<point x="154" y="592" type="curve"/>
			<point x="175" y="561" type="line"/>
			<point x="223" y="601"/>
			<point x="281" y="626"/>
			<point x="347" y="626" type="curve" smooth="yes"/>
			<point x="444" y="626"/>
			<point x="526" y="567"/>
			<point x="526" y="426" type="curve" smooth="yes"/>
			<point x="526" y="209"/>
			<point x="433" y="35"/>
			<point x="289" y="35" type="curve" smooth="yes"/>
			<point x="213" y="35"/>
			<point x="149" y="81"/>
			<point x="149" y="211" type="curve" smooth="yes"/>
			<point x="149" y="261"/>
			<point x="154" y="288"/>
			<point x="165" y="326" type="curve"/>
			<point x="549" y="326" type="line"/>
			<point x="556" y="376" type="line"/>
			<point x="92" y="376" type="line"/>
			<point x="75" y="324"/>
			<point x="65" y="273"/>
			<point x="65" y="221" type="curve" smooth="yes"/>
			<point x="65" y="69"/>
			<point x="145" y="-14"/>
		</contour>
	</outline>
	<anchor name="aboveUC" x="367" y="686"/>
	<anchor name="belowLC" x="281" y="-17"/>
</glyph>
